<svg enable-background="new 0 0 500 500" viewBox="0 0 500 500" xmlns="http://www.w3.org/2000/svg"><path d="m476.5 450.7h-452.3c-.4 0-.6-.8-.6-1.8s.3-1.8.6-1.8h452.3" fill="#4fc1ea"/><path d="m287.5 56.2c-6 0-11.9 2-16.7 5.6-6.6-7.9-16.5-12.6-26.8-12.6-19.2 0-34.8 15.6-34.8 34.8 0 6.2 5 11.2 11.2 11.2h83.8c6.2 0 11.2-5 11.2-11.2 0-15.3-12.5-27.8-27.9-27.8zm16.7 35.4h-83.8c-4.2 0-7.6-3.4-7.6-7.6 0-17.2 14-31.2 31.2-31.2 10 0 19.1 4.6 25.1 12.6.3.4.7.7 1.2.7.5.1 1-.1 1.4-.4 4.4-3.8 10.1-5.9 15.9-5.9 13.4 0 24.3 10.9 24.3 24.3-.1 4.1-3.5 7.5-7.7 7.5z" fill="#4fc1ea"/><path d="m364 304.2h28.7v37.6h-28.7z" fill="none"/><path d="m329.1 145.4c5.2 0 9.4-4.2 9.4-9.4s-4.2-9.4-9.4-9.4-9.4 4.2-9.4 9.4c0 5.1 4.2 9.4 9.4 9.4z" fill="none"/><path d="m264.2 304.2h28.7v37.6h-28.7z" fill="none"/><path d="m314.2 304.2h28.7v37.6h-28.7z" fill="none"/><path d="m371.6 184.9v-28.2h-85.2v28.2c0 16.5-10 30.6-24.2 36.8h133.4c-14.1-6.1-24-20.2-24-36.8zm-18.4 29.2c0 .9-.7 1.6-1.6 1.6h-45c-.9 0-1.6-.7-1.6-1.6v-50c0-.9.7-1.6 1.6-1.6h45c.9 0 1.6.7 1.6 1.6z" fill="none"/><g fill="#fff"><path d="m248.1 376.1h160.9v1.7h-160.9z"/><path d="m248.1 289h160.9v1.7h-160.9z"/><path d="m388.4 408.2h4.4v5.9h-4.4z"/><path d="m388.4 390.7h4.4v5h-4.4z"/><path d="m380.2 345.1h12.5v11.1h-12.5z"/><path d="m388.4 258.3h4.4v5.9h-4.4z"/><path d="m388.4 240.9h4.4v5h-4.4z"/><path d="m388.4 249.1h4.4v5.9h-4.4z"/><path d="m388.4 267.5h4.4v5h-4.4z"/><path d="m388.4 398.9h4.4v5.9h-4.4z"/><path d="m388.4 417.4h4.4v5h-4.4z"/><path d="m380 417.4h5.1v5h-5.1z"/><path d="m380 408.2h5.1v5.9h-5.1z"/><path d="m380 398.9h5.1v5.9h-5.1z"/><path d="m380 390.7h5.1v5h-5.1z"/><path d="m380 267.5h5.1v5h-5.1z"/><path d="m380 258.3h5.1v5.9h-5.1z"/><path d="m380 249.1h5.1v5.9h-5.1z"/><path d="m380 240.9h5.1v5h-5.1z"/><path d="m371.5 417.4h5.3v5h-5.3z"/><path d="m371.5 408.2h5.3v5.9h-5.3z"/><path d="m371.5 398.9h5.3v5.9h-5.3z"/><path d="m371.5 390.7h5.3v5h-5.3z"/><path d="m371.5 267.5h5.3v5h-5.3z"/><path d="m371.5 258.3h5.3v5.9h-5.3z"/><path d="m371.5 249.1h5.3v5.9h-5.3z"/><path d="m371.5 240.9h5.3v5h-5.3z"/><path d="m364 417.4h4.2v5h-4.2z"/><path d="m364 408.2h4.2v5.9h-4.2z"/><path d="m364 398.9h4.2v5.9h-4.2z"/><path d="m364 390.7h4.2v5h-4.2z"/><path d="m364 267.5h4.2v5h-4.2z"/><path d="m364 258.3h4.2v5.9h-4.2z"/><path d="m364 249.1h4.2v5.9h-4.2z"/><path d="m364 240.9h4.2v5h-4.2z"/><path d="m294.7 143.5v9.9h68.7v-9.9c-4-.4-7.7-2.1-10.6-5-3.3-3.3-5.1-7.6-5.1-12.3v-10.2h-37.4v10.2c.1 9.1-6.8 16.5-15.6 17.3zm34.4-20.2c7 0 12.7 5.7 12.7 12.7s-5.7 12.7-12.7 12.7-12.7-5.7-12.7-12.7 5.7-12.7 12.7-12.7z"/><path d="m364 345.1h12.9v11.1h-12.9z"/><path d="m360.3 275.8h36.2v.9h-36.2z"/><path d="m360.3 359.4h36.2v.9h-36.2z"/><path d="m360.3 425.6h36.2v.9h-36.2z"/><path d="m409 445.9v-64.8h-160.9v64.8h13.2v-56.8c0-.9.7-1.6 1.6-1.6h31.3c.9 0 1.6.7 1.6 1.6v56.8zm-52-21.9c0-.9.7-1.6 1.6-1.6h2.1v-6.4c0-.1 0-.1 0-.2s0-.1 0-.2v-18c0-.1 0-.1 0-.2s0-.1 0-.2v-8c0-.9.7-1.6 1.6-1.6h32c.9 0 1.6.7 1.6 1.6v33.3h2.1c.9 0 1.6.7 1.6 1.6v4.1c0 .9-.7 1.6-1.6 1.6h-39.5c-.9 0-1.6-.7-1.6-1.6v-4.2zm-49.8 0c0-.9.7-1.6 1.6-1.6h2.1v-6.4c0-.1 0-.1 0-.2s0-.1 0-.2v-18c0-.1 0-.1 0-.2s0-.1 0-.2v-8c0-.9.7-1.6 1.6-1.6h32c.9 0 1.6.7 1.6 1.6v33.3h2.1c.9 0 1.6.7 1.6 1.6v4.1c0 .9-.7 1.6-1.6 1.6h-39.5c-.9 0-1.6-.7-1.6-1.6v-4.2z"/><path d="m248.1 294v78.8h160.9v-78.8zm51.8 68c0 .9-.7 1.6-1.6 1.6h-39.5c-.9 0-1.6-.7-1.6-1.6v-4.1c0-.9.7-1.6 1.6-1.6h2.1v-53.6c0-.9.7-1.6 1.6-1.6h32c.9 0 1.6.7 1.6 1.6v53.6h2.1c.9 0 1.6.7 1.6 1.6v4.1zm50 0c0 .9-.7 1.6-1.6 1.6h-39.5c-.9 0-1.6-.7-1.6-1.6v-4.1c0-.9.7-1.6 1.6-1.6h2.1v-53.6c0-.9.7-1.6 1.6-1.6h32c.9 0 1.6.7 1.6 1.6v53.6h2.1c.9 0 1.6.7 1.6 1.6v4.1zm48.2 1.6h-39.5c-.9 0-1.6-.7-1.6-1.6v-4.1c0-.9.7-1.6 1.6-1.6h2.1v-53.6c0-.9.7-1.6 1.6-1.6h32c.9 0 1.6.7 1.6 1.6v53.6h2.1c.9 0 1.6.7 1.6 1.6v4.1c.2.9-.6 1.6-1.5 1.6z"/><path d="m248.1 285.7h160.9v-60.8h-160.9zm108.9-11.6c0-.9.7-1.6 1.6-1.6h2.1v-6.4c0-.1 0-.1 0-.2s0-.1 0-.2v-18c0-.1 0-.1 0-.2s0-.1 0-.2v-8c0-.9.7-1.6 1.6-1.6h32c.9 0 1.6.7 1.6 1.6v33.3h2.1c.9 0 1.6.7 1.6 1.6v4.1c0 .9-.7 1.6-1.6 1.6h-39.5c-.9 0-1.6-.7-1.6-1.6v-4.2zm-49.8 0c0-.9.7-1.6 1.6-1.6h2.1v-6.4c0-.1 0-.1 0-.2s0-.1 0-.2v-18c0-.1 0-.1 0-.2s0-.1 0-.2v-8c0-.9.7-1.6 1.6-1.6h32c.9 0 1.6.7 1.6 1.6v33.3h2.1c.9 0 1.6.7 1.6 1.6v4.1c0 .9-.7 1.6-1.6 1.6h-39.5c-.9 0-1.6-.7-1.6-1.6v-4.2zm-50 0c0-.9.7-1.6 1.6-1.6h2.1v-6.4c0-.1 0-.1 0-.2s0-.1 0-.2v-18c0-.1 0-.1 0-.2s0-.1 0-.2v-8c0-.9.7-1.6 1.6-1.6h32c.9 0 1.6.7 1.6 1.6v33.3h2.1c.9 0 1.6.7 1.6 1.6v4.1c0 .9-.7 1.6-1.6 1.6h-39.5c-.9 0-1.6-.7-1.6-1.6v-4.2z"/><path d="m308.2 212.5h41.7v-46.7h-41.7zm2.5-42.7c0-.9.7-1.6 1.6-1.6h33.5c.9 0 1.6.7 1.6 1.6v38.8c0 .9-.7 1.6-1.6 1.6h-33.5c-.9 0-1.6-.7-1.6-1.6z"/><path d="m314 171.4h30.2v35.5h-30.2z"/><path d="m338.5 408.2h4.4v5.9h-4.4z"/><path d="m338.5 390.7h4.4v5h-4.4z"/><path d="m330.4 345.1h12.5v11.1h-12.5z"/><path d="m338.5 258.3h4.4v5.9h-4.4z"/><path d="m338.5 240.9h4.4v5h-4.4z"/><path d="m338.5 249.1h4.4v5.9h-4.4z"/><path d="m338.5 267.5h4.4v5h-4.4z"/><path d="m338.5 398.9h4.4v5.9h-4.4z"/><path d="m338.5 417.4h4.4v5h-4.4z"/><path d="m330.2 417.4h5.1v5h-5.1z"/><path d="m330.2 408.2h5.1v5.9h-5.1z"/><path d="m330.2 398.9h5.1v5.9h-5.1z"/><path d="m330.2 390.7h5.1v5h-5.1z"/><path d="m330.2 267.5h5.1v5h-5.1z"/><path d="m330.2 258.3h5.1v5.9h-5.1z"/><path d="m330.2 249.1h5.1v5.9h-5.1z"/><path d="m330.2 240.9h5.1v5h-5.1z"/><path d="m321.6 417.4h5.3v5h-5.3z"/><path d="m321.6 408.2h5.3v5.9h-5.3z"/><path d="m321.6 398.9h5.3v5.9h-5.3z"/><path d="m321.6 390.7h5.3v5h-5.3z"/><path d="m321.6 267.5h5.3v5h-5.3z"/><path d="m321.6 258.3h5.3v5.9h-5.3z"/><path d="m321.6 249.1h5.3v5.9h-5.3z"/><path d="m321.6 240.9h5.3v5h-5.3z"/><path d="m314.2 417.4h4.2v5h-4.2z"/><path d="m314.2 408.2h4.2v5.9h-4.2z"/><path d="m314.2 398.9h4.2v5.9h-4.2z"/><path d="m314.2 390.7h4.2v5h-4.2z"/><path d="m314.2 267.5h4.2v5h-4.2z"/><path d="m314.2 258.3h4.2v5.9h-4.2z"/><path d="m314.2 249.1h4.2v5.9h-4.2z"/><path d="m314.2 240.9h4.2v5h-4.2z"/><path d="m314.2 345.1h12.9v11.1h-12.9z"/><path d="m310.4 275.8h36.2v.9h-36.2z"/><path d="m310.4 359.4h36.2v.9h-36.2z"/><path d="m310.4 425.6h36.2v.9h-36.2z"/><path d="m280.4 345.1h12.5v11.1h-12.5z"/><path d="m288.6 258.3h4.4v5.9h-4.4z"/><path d="m288.6 240.9h4.4v5h-4.4z"/><path d="m288.6 249.1h4.4v5.9h-4.4z"/><path d="m288.6 267.5h4.4v5h-4.4z"/><path d="m288.3 395.4h-19.5v50.5h19.5zm-1.4 29.9c0 .9-.7 1.6-1.6 1.6s-1.6-.7-1.6-1.6v-7c0-.9.7-1.6 1.6-1.6s1.6.7 1.6 1.6z"/><path d="m280.2 267.5h5.1v5h-5.1z"/><path d="m280.2 258.3h5.1v5.9h-5.1z"/><path d="m280.2 249.1h5.1v5.9h-5.1z"/><path d="m280.2 240.9h5.1v5h-5.1z"/><path d="m271.7 267.5h5.3v5h-5.3z"/><path d="m271.7 258.3h5.3v5.9h-5.3z"/><path d="m271.7 249.1h5.3v5.9h-5.3z"/><path d="m271.7 240.9h5.3v5h-5.3z"/><path d="m264.2 267.5h4.2v5h-4.2z"/><path d="m264.2 258.3h4.2v5.9h-4.2z"/><path d="m264.2 249.1h4.2v5.9h-4.2z"/><path d="m264.2 240.9h4.2v5h-4.2z"/><path d="m292.6 445.9v-55.2h-28.1v55.2h1v-52.1c0-.9.7-1.6 1.6-1.6h22.9c.9 0 1.6.7 1.6 1.6v52.1z"/><path d="m264.2 345.1h12.9v11.1h-12.9z"/><path d="m260.5 275.8h36.2v.9h-36.2z"/><path d="m260.5 359.4h36.2v.9h-36.2z"/></g><path d="m413.3 223.3c0-.9-.7-1.6-1.6-1.6-.3 0-.6 0-1 0-20-.5-35.7-16.7-35.7-36.7v-29.9c0-.9-.7-1.6-1.6-1.6h-6.6v-11.5c0-.9-.7-1.6-1.6-1.6-3.7 0-7.3-1.5-9.9-4.1-2.7-2.7-4.1-6.2-4.1-9.9v-11.8c0-.9-.7-1.6-1.6-1.6h-40.6c-.9 0-1.6.7-1.6 1.6v11.8c0 7.7-6.3 14-14.1 14-.9 0-1.6.7-1.6 1.6v11.5h-6.6c-.9 0-1.6.7-1.6 1.6v29.9c0 20.3-16.5 36.8-36.7 36.8-.9 0-1.6.7-1.6 1.6v64 5 82.1 5 68.1c0 .9.7 1.6 1.6 1.6h16.5 4.3 22.4 4.3 116.4c.9 0 1.6-.7 1.6-1.6v-68.1-5-82.1-5-62.5c.5-.3 1-.9 1-1.6zm-144.5 172.1h19.5v50.5h-19.5zm21.2-3.2h-22.8c-.9 0-1.6.7-1.6 1.6v52.1h-1v-55.2h28.1v55.2h-1v-52.1c-.1-.9-.8-1.6-1.7-1.6zm4.2-4.8h-31.3c-.9 0-1.6.7-1.6 1.6v56.8h-13.2v-64.8h160.9v64.8h-113.1v-56.8c0-.8-.7-1.6-1.7-1.6zm114.8-101.7h-160.9v-60.8h160.9zm0 5h-160.9v-1.7h160.9zm0 87.1h-160.9v-1.7h160.9zm-160.9-5v-78.8h160.9v78.8zm62.3-256.7h37.4v10.2c0 4.6 1.8 9 5.1 12.3 2.9 2.9 6.6 4.6 10.6 5v9.9h-68.7v-9.9c8.8-.8 15.7-8.2 15.7-17.2v-10.3zm-23.9 68.8v-28.2h85.2v28.2c0 16.6 9.8 30.7 24 36.8h-133.4c14.2-6.2 24.2-20.3 24.2-36.8z" fill="#4fc1ea"/><path d="m329.1 148.6c7 0 12.7-5.7 12.7-12.7s-5.7-12.7-12.7-12.7-12.7 5.7-12.7 12.7 5.7 12.7 12.7 12.7zm0-22.1c5.2 0 9.4 4.2 9.4 9.4s-4.2 9.4-9.4 9.4-9.4-4.2-9.4-9.4c0-5.1 4.2-9.4 9.4-9.4z" fill="#4fc1ea"/><path d="m351.6 162.5h-45c-.9 0-1.6.7-1.6 1.6v50c0 .9.7 1.6 1.6 1.6h45c.9 0 1.6-.7 1.6-1.6v-50c0-.9-.7-1.6-1.6-1.6zm-1.7 50h-41.7v-46.7h41.7z" fill="#4fc1ea"/><path d="m312.3 210.1h33.5c.9 0 1.6-.7 1.6-1.6v-38.8c0-.9-.7-1.6-1.6-1.6h-33.5c-.9 0-1.6.7-1.6 1.6v38.8c0 .9.7 1.6 1.6 1.6zm1.7-38.7h30.2v35.5h-30.2z" fill="#4fc1ea"/><path d="m308.8 429.8h39.5c.9 0 1.6-.7 1.6-1.6v-4.2c0-.9-.7-1.6-1.6-1.6h-2.1v-33.3c0-.9-.7-1.6-1.6-1.6h-32c-.9 0-1.6.7-1.6 1.6v8 .2.2 18 .2.2 6.4h-2.1c-.9 0-1.6.7-1.6 1.6v4.1c-.1 1 .6 1.8 1.5 1.8zm34.1-34.1h-4.4v-5h4.4zm-12.7 26.6v-5h5.1v5zm-8.6 0v-5h5.3v5zm13.7-17.4h-5.1v-5.9h5.1zm-5.1 9.2v-5.9h5.1v5.9zm8.3-5.9h4.4v5.9h-4.4zm0-9.3h4.4v5.9h-4.4zm-11.6 0v5.9h-5.3v-5.9zm-8.5 6h-4.2v-5.9h4.2zm3.2 3.3h5.3v5.9h-5.3zm13.7-12.5h-5.1v-5h5.1zm-8.4 0h-5.3v-5h5.3zm-12.7 12.5h4.2v5.9h-4.2zm24.3 14.1v-5h4.4v5zm-20.1-31.6v5h-4.2v-5zm-4.2 26.7h4.2v5h-4.2zm-3.8 8.2h36.2v.9h-36.2z" fill="#4fc1ea"/><path d="m358.7 429.8h39.5c.9 0 1.6-.7 1.6-1.6v-4.2c0-.9-.7-1.6-1.6-1.6h-2.2v-33.3c0-.9-.7-1.6-1.6-1.6h-32c-.9 0-1.6.7-1.6 1.6v8 .2.2 18 .2.2 6.4h-2.1c-.9 0-1.6.7-1.6 1.6v4.1c-.1 1 .7 1.8 1.6 1.8zm21.3-7.5v-5h5.1v5zm-8.5 0v-5h5.3v5zm21.2-17.4h-4.4v-5.9h4.4zm0 9.2h-4.4v-5.9h4.4zm-7.6-9.2h-5.1v-5.9h5.1zm-5.1 9.2v-5.9h5.1v5.9zm-3.2-15.2v5.9h-5.3v-5.9zm-8.6 6h-4.2v-5.9h4.2zm0 3.3v5.9h-4.2v-5.9zm3.3 0h5.3v5.9h-5.3zm21.2-12.5h-4.4v-5h4.4zm-7.6 0h-5.1v-5h5.1zm-8.3 0h-5.3v-5h5.3zm11.6 26.6v-5h4.4v5zm-20.2-31.6v5h-4.2v-5zm0 26.7v5h-4.2v-5zm-7.9 8.2h36.2v.9h-36.2z" fill="#4fc1ea"/><path d="m258.8 279.9h39.5c.9 0 1.6-.7 1.6-1.6v-4.1c0-.9-.7-1.6-1.6-1.6h-2.1v-33.3c0-.9-.7-1.6-1.6-1.6h-32c-.9 0-1.6.7-1.6 1.6v8 .2.2 18 .2.2 6.4h-2.1c-.9 0-1.6.7-1.6 1.6v4.1c-.1 1 .6 1.7 1.5 1.7zm34.1-34.1h-4.4v-5h4.4zm-12.7 26.7v-5h5.1v5zm-8.5 0v-5h5.3v5zm13.6-17.4h-5.1v-5.9h5.1zm-5.1 9.2v-5.9h5.1v5.9zm8.4-6h4.4v5.9h-4.4zm0-9.2h4.4v5.9h-4.4zm-11.7 0v5.9h-5.3v-5.9zm-8.5 6h-4.2v-5.9h4.2zm3.3 3.2h5.3v5.9h-5.3zm13.6-12.5h-5.1v-5h5.1zm-8.4 0h-5.3v-5h5.3zm-12.7 12.5h4.2v5.9h-4.2zm24.4 14.2v-5h4.4v5zm-20.2-31.6v5h-4.2v-5zm-4.2 26.6h4.2v5h-4.2zm-3.7 8.3h36.2v.9h-36.2z" fill="#4fc1ea"/><path d="m308.8 279.9h39.5c.9 0 1.6-.7 1.6-1.6v-4.1c0-.9-.7-1.6-1.6-1.6h-2.1v-33.3c0-.9-.7-1.6-1.6-1.6h-32c-.9 0-1.6.7-1.6 1.6v8 .2.2 18 .2.2 6.4h-2.1c-.9 0-1.6.7-1.6 1.6v4.1c-.1 1 .6 1.7 1.5 1.7zm34.1-34.1h-4.4v-5h4.4zm-12.7 26.7v-5h5.1v5zm-8.6 0v-5h5.3v5zm13.7-17.4h-5.1v-5.9h5.1zm-5.1 9.2v-5.9h5.1v5.9zm8.3-6h4.4v5.9h-4.4zm0-9.2h4.4v5.9h-4.4zm-11.6 0v5.9h-5.3v-5.9zm-8.5 6h-4.2v-5.9h4.2zm3.2 3.2h5.3v5.9h-5.3zm13.7-12.5h-5.1v-5h5.1zm-8.4 0h-5.3v-5h5.3zm-12.7 12.5h4.2v5.9h-4.2zm24.3 14.2v-5h4.4v5zm-20.1-31.6v5h-4.2v-5zm-4.2 26.6h4.2v5h-4.2zm-3.8 8.3h36.2v.9h-36.2z" fill="#4fc1ea"/><path d="m358.7 279.9h39.5c.9 0 1.6-.7 1.6-1.6v-4.1c0-.9-.7-1.6-1.6-1.6h-2.2v-33.3c0-.9-.7-1.6-1.6-1.6h-32c-.9 0-1.6.7-1.6 1.6v8 .2.2 18 .2.2 6.4h-2.1c-.9 0-1.6.7-1.6 1.6v4.1c-.1 1 .7 1.7 1.6 1.7zm21.3-7.4v-5h5.1v5zm-8.5 0v-5h5.3v5zm21.2-17.4h-4.4v-5.9h4.4zm0 9.2h-4.4v-5.9h4.4zm-7.6-9.2h-5.1v-5.9h5.1zm-5.1 9.2v-5.9h5.1v5.9zm-3.2-15.2v5.9h-5.3v-5.9zm-8.6 6h-4.2v-5.9h4.2zm0 3.2v5.9h-4.2v-5.9zm3.3 0h5.3v5.9h-5.3zm21.2-12.5h-4.4v-5h4.4zm-7.6 0h-5.1v-5h5.1zm-8.3 0h-5.3v-5h5.3zm11.6 26.7v-5h4.4v5zm-20.2-31.6v5h-4.2v-5zm0 26.6v5h-4.2v-5zm-7.9 8.3h36.2v.9h-36.2z" fill="#4fc1ea"/><path d="m298.3 356.2h-2.1v-53.6c0-.9-.7-1.6-1.6-1.6h-32c-.9 0-1.6.7-1.6 1.6v53.6h-2.1c-.9 0-1.6.7-1.6 1.6v4.1c0 .9.7 1.6 1.6 1.6h39.5c.9 0 1.6-.7 1.6-1.6v-4.1c-.1-.9-.8-1.6-1.7-1.6zm-1.6 4.1h-36.2v-.9h36.2zm-3.8-18.5h-28.7v-37.6h28.7zm-12.5 14.4v-11.1h12.5v11.1zm-16.2-11.1h12.9v11.1h-12.9z" fill="#4fc1ea"/><path d="m348.3 356.2h-2.1v-53.6c0-.9-.7-1.6-1.6-1.6h-32c-.9 0-1.6.7-1.6 1.6v53.6h-2.1c-.9 0-1.6.7-1.6 1.6v4.1c0 .9.7 1.6 1.6 1.6h39.5c.9 0 1.6-.7 1.6-1.6v-4.1c-.1-.9-.8-1.6-1.7-1.6zm-1.7 4.1h-36.2v-.9h36.2zm-3.7-18.5h-28.7v-37.6h28.7zm-12.5 14.4v-11.1h12.5v11.1zm-16.2-11.1h12.9v11.1h-12.9z" fill="#4fc1ea"/><path d="m398.1 356.2h-2.1v-53.6c0-.9-.7-1.6-1.6-1.6h-32c-.9 0-1.6.7-1.6 1.6v53.6h-2.1c-.9 0-1.6.7-1.6 1.6v4.1c0 .9.7 1.6 1.6 1.6h39.5c.9 0 1.6-.7 1.6-1.6v-4.1c0-.9-.8-1.6-1.7-1.6zm-1.6 4.1h-36.2v-.9h36.2zm-16.3-4.1v-11.1h12.5v11.1zm12.5-14.4h-28.7v-37.6h28.7zm-28.7 3.3h12.9v11.1h-12.9z" fill="#4fc1ea"/><path d="m285.3 416.7c-.9 0-1.6.7-1.6 1.6v7c0 .9.7 1.6 1.6 1.6s1.6-.7 1.6-1.6v-7c0-.9-.7-1.6-1.6-1.6z" fill="#4195ce"/><path d="m185.9 166.8v-42.2h-36v42.2c0 18.5-11.4 34.4-27.6 41h91.1c-16.1-6.7-27.5-22.5-27.5-41zm-18-35.4c6.1 0 11 5 11 11 0 6.1-5 11-11 11-6.1 0-11-5-11-11s4.9-11 11-11zm15.3 69.9c0 .9-.7 1.6-1.6 1.6h-27.3c-.9 0-1.6-.7-1.6-1.6v-25.1c0-4.1 1.6-7.9 4.5-10.8s6.7-4.5 10.8-4.5c8.4 0 15.3 6.9 15.3 15.3v25.1z" fill="none"/><path d="m157.1 302.2h9.7v10.2h-9.7z" fill="#fff"/><path d="m114.4 262.4h9.7v8.8h-9.7z" fill="#fff"/><path d="m114.4 250.3h9.7v8.8h-9.7z" fill="#fff"/><path d="m114.1 302.2h9.7v10.2h-9.7z" fill="#fff"/><path d="m114.1 315.7h9.7v8.8h-9.7z" fill="#fff"/><path d="m146.5 395.4h-19.5v50.5h19.5zm-1.4 29.9c0 .9-.7 1.6-1.6 1.6s-1.6-.7-1.6-1.6v-7c0-.9.7-1.6 1.6-1.6s1.6.7 1.6 1.6z" fill="#fff"/><path d="m150.8 445.9v-55.2h-28.1v55.2h1v-52.1c0-.9.7-1.6 1.6-1.6h22.8c.9 0 1.6.7 1.6 1.6v52.1z" fill="#fff"/><path d="m127.1 315.7h9.7v8.8h-9.7z" fill="#fff"/><path d="m127.1 302.2h9.7v10.2h-9.7z" fill="#fff"/><path d="m127.4 236.9h9.7v10.2h-9.7z" fill="#fff"/><path d="m127.1 327.8h9.7v8.8h-9.7z" fill="#fff"/><path d="m127.1 339.8h9.7v10.2h-9.7z" fill="#fff"/><path d="m127.4 250.3h9.7v8.8h-9.7z" fill="#fff"/><path d="m127.4 262.4h9.7v8.8h-9.7z" fill="#fff"/><path d="m157.1 327.8h9.7v8.8h-9.7z" fill="#fff"/><path d="m127.4 274.4h9.7v10.2h-9.7z" fill="#fff"/><path d="m157.1 315.7h9.7v8.8h-9.7z" fill="#fff"/><path d="m157.1 339.8h9.7v10.2h-9.7z" fill="#fff"/><path d="m157.3 236.9h9.7v10.2h-9.7z" fill="#fff"/><path d="m157.3 262.4h9.7v8.8h-9.7z" fill="#fff"/><path d="m157.3 250.3h9.7v8.8h-9.7z" fill="#fff"/><path d="m157.3 274.4h9.7v10.2h-9.7z" fill="#fff"/><path d="m170.1 315.7h9.7v8.8h-9.7z" fill="#fff"/><path d="m169.5 390.7h10.2v9.7h-10.2z" fill="#fff"/><path d="m169.5 403.7h10.2v9.7h-10.2z" fill="#fff"/><path d="m170.1 302.2h9.7v10.2h-9.7z" fill="#fff"/><path d="m170.1 327.8h9.7v8.8h-9.7z" fill="#fff"/><path d="m170.3 236.9h9.7v10.2h-9.7z" fill="#fff"/><path d="m170.1 339.8h9.7v10.2h-9.7z" fill="#fff"/><path d="m156 174.5h23.8c-.8-5.9-5.8-10.4-11.9-10.4-3.2 0-6.2 1.3-8.5 3.5-1.9 1.9-3 4.3-3.4 6.9z" fill="#fff"/><path d="m155.9 177.8h24.1v21.8h-24.1z" fill="#fff"/><path d="m170.3 250.3h9.7v8.8h-9.7z" fill="#fff"/><path d="m170.3 274.4h9.7v10.2h-9.7z" fill="#fff"/><path d="m170.3 262.4h9.7v8.8h-9.7z" fill="#fff"/><path d="m150 121.4h35.8c-.8-9.2-8.5-16.4-17.9-16.4s-17.1 7.2-17.9 16.4z" fill="#fff"/><path d="m183 390.7h8.8v9.7h-8.8z" fill="#fff"/><path d="m199.5 302.2h9.7v10.2h-9.7z" fill="#fff"/><path d="m183 403.7h8.8v9.7h-8.8z" fill="#fff"/><path d="m195.1 390.7h8.8v9.7h-8.8z" fill="#fff"/><path d="m195.1 403.7h8.8v9.7h-8.8z" fill="#fff"/><path d="m199.5 315.7h9.7v8.8h-9.7z" fill="#fff"/><path d="m199.5 339.8h9.7v10.2h-9.7z" fill="#fff"/><path d="m199.5 327.8h9.7v8.8h-9.7z" fill="#fff"/><path d="m199.8 236.9h9.7v10.2h-9.7z" fill="#fff"/><path d="m199.8 250.3h9.7v8.8h-9.7z" fill="#fff"/><path d="m199.8 262.4h9.7v8.8h-9.7z" fill="#fff"/><path d="m199.8 274.4h9.7v10.2h-9.7z" fill="#fff"/><path d="m207.1 390.7h10.2v9.7h-10.2z" fill="#fff"/><path d="m207.1 403.7h10.2v9.7h-10.2z" fill="#fff"/><path d="m212.5 302.2h9.7v10.2h-9.7z" fill="#fff"/><path d="m212.5 315.7h9.7v8.8h-9.7z" fill="#fff"/><path d="m212.5 327.8h9.7v8.8h-9.7z" fill="#fff"/><path d="m212.5 339.8h9.7v10.2h-9.7z" fill="#fff"/><path d="m212.8 236.9h9.7v10.2h-9.7z" fill="#fff"/><path d="m212.8 250.3h9.7v8.8h-9.7z" fill="#fff"/><path d="m212.8 262.4h9.7v8.8h-9.7z" fill="#fff"/><path d="m212.8 274.4h9.7v10.2h-9.7z" fill="#fff"/><path d="m107.3 211h121.2v3.8h-121.2z" fill="#fff"/><path d="m107.3 218.1v150.6h121.2v-150.6zm32.8 133.6c0 .9-.7 1.6-1.6 1.6h-26c-.9 0-1.6-.7-1.6-1.6v-51.1c0-.9.7-1.6 1.6-1.6h26c.9 0 1.6.7 1.6 1.6zm.2-65.4c0 .9-.7 1.6-1.6 1.6h-26c-.9 0-1.6-.7-1.6-1.6v-51.1c0-.9.7-1.6 1.6-1.6h26c.9 0 1.6.7 1.6 1.6zm42.8 65.4c0 .9-.7 1.6-1.6 1.6h-26c-.9 0-1.6-.7-1.6-1.6v-51.1c0-.9.7-1.6 1.6-1.6h26c.9 0 1.6.7 1.6 1.6zm.2-65.4c0 .9-.7 1.6-1.6 1.6h-26c-.9 0-1.6-.7-1.6-1.6v-51.1c0-.9.7-1.6 1.6-1.6h26c.9 0 1.6.7 1.6 1.6zm42.2 65.4c0 .9-.7 1.6-1.6 1.6h-26c-.9 0-1.6-.7-1.6-1.6v-51.1c0-.9.7-1.6 1.6-1.6h26c.9 0 1.6.7 1.6 1.6zm.3-65.4c0 .9-.7 1.6-1.6 1.6h-26c-.9 0-1.6-.7-1.6-1.6v-51.1c0-.9.7-1.6 1.6-1.6h26c.9 0 1.6.7 1.6 1.6z" fill="#fff"/><path d="m107.3 372h121.2v4.4h-121.2z" fill="#fff"/><path d="m107.3 379.6v66.3h12.1v-56.8c0-.9.7-1.6 1.6-1.6h31.3c.9 0 1.6.7 1.6 1.6v56.8h74.5v-66.3zm113.3 35.4c0 .9-.7 1.6-1.6 1.6h-51.1c-.9 0-1.6-.7-1.6-1.6v-26c0-.9.7-1.6 1.6-1.6h51.1c.9 0 1.6.7 1.6 1.6z" fill="#fff"/><path d="m114.1 327.8h9.7v8.8h-9.7z" fill="#fff"/><path d="m114.4 236.9h9.7v10.2h-9.7z" fill="#fff"/><path d="m114.4 274.4h9.7v10.2h-9.7z" fill="#fff"/><path d="m114.1 339.8h9.7v10.2h-9.7z" fill="#fff"/><path d="m160.1 142.5c0 4.3 3.5 7.8 7.8 7.8s7.8-3.5 7.8-7.8-3.5-7.8-7.8-7.8-7.8 3.5-7.8 7.8z" fill="#fff"/><path d="m230.1 207.7c-22.6 0-41-18.4-41-41v-42.2h7.2c.9 0 1.6-.7 1.6-1.6s-.7-1.6-1.6-1.6h-7.3c-.8-11-10-19.6-21.2-19.6s-20.3 8.7-21.2 19.6h-7.3c-.9 0-1.6.7-1.6 1.6s.7 1.6 1.6 1.6h7.2v42.2c0 22.6-18.4 41-41 41-.9 0-1.6.7-1.6 1.6v161 7.7 69.5c0 .9.7 1.6 1.6 1.6h15.4 4.3 22.8 4.3 77.7c.9 0 1.6-.7 1.6-1.6v-69.5-7.7-161c.2-.8-.6-1.6-1.5-1.6zm-103.1 187.7h19.5v50.5h-19.5zm21.1-3.2h-22.8c-.9 0-1.6.7-1.6 1.6v52.1h-1v-55.2h28.1v55.2h-1v-52.1c0-.9-.8-1.6-1.7-1.6zm5.9 53.7v-56.8c0-.9-.7-1.6-1.6-1.6h-31.3c-.9 0-1.6.7-1.6 1.6v56.8h-12.1v-66.3h121.2v66.3zm74.5-231.1h-121.2v-3.8h121.2zm0 157.2v4.4h-121.2v-4.4zm-121.2-3.3v-150.6h121.2v150.6zm78.5-247.3h-35.8c.8-9.2 8.5-16.4 17.9-16.4s17.1 7.2 17.9 16.4zm-35.9 45.4v-42.2h36v42.2c0 18.5 11.4 34.4 27.6 41h-91.1c16.1-6.7 27.5-22.5 27.5-41z" fill="#4fc1ea"/><path d="m167.9 153.5c6.1 0 11-5 11-11 0-6.1-5-11-11-11-6.1 0-11 5-11 11s4.9 11 11 11zm7.8-11c0 4.3-3.5 7.8-7.8 7.8s-7.8-3.5-7.8-7.8 3.5-7.8 7.8-7.8 7.8 3.5 7.8 7.8z" fill="#4fc1ea"/><path d="m167.9 160.8c-4.1 0-7.9 1.6-10.8 4.5s-4.5 6.7-4.5 10.8v25.1c0 .9.7 1.6 1.6 1.6h27.3c.9 0 1.6-.7 1.6-1.6v-25.1c.1-8.4-6.8-15.3-15.2-15.3zm11.9 13.7h-23.8c.4-2.6 1.5-5 3.4-6.9 2.3-2.3 5.3-3.5 8.5-3.5 6.1 0 11.1 4.5 11.9 10.4zm-23.9 3.3h24.1v21.8h-24.1z" fill="#4fc1ea"/><path d="m138.4 299h-26c-.9 0-1.6.7-1.6 1.6v51.1c0 .9.7 1.6 1.6 1.6h26c.9 0 1.6-.7 1.6-1.6v-51.1c.1-.9-.7-1.6-1.6-1.6zm-1.6 3.2v10.2h-9.7v-10.2zm-13 25.6v8.8h-9.7v-8.8zm3.3 0h9.7v8.8h-9.7zm0-12.1h9.7v8.8h-9.7zm-3.3 0v8.8h-9.7v-8.8zm3.3 24.1h9.7v10.2h-9.7zm-3.3-37.6v10.2h-9.7v-10.2zm-9.7 37.6h9.7v10.2h-9.7z" fill="#4fc1ea"/><path d="m181.4 299h-26c-.9 0-1.6.7-1.6 1.6v51.1c0 .9.7 1.6 1.6 1.6h26c.9 0 1.6-.7 1.6-1.6v-51.1c.1-.9-.7-1.6-1.6-1.6zm-24.3 40.8h9.7v10.2h-9.7zm9.7-3.2h-9.7v-8.8h9.7zm0-12.1h-9.7v-8.8h9.7zm0-12.1h-9.7v-10.2h9.7zm3.3 15.4h9.7v8.8h-9.7zm0-3.3v-8.8h9.7v8.8zm9.7-12.1h-9.7v-10.2h9.7zm-9.7 37.6v-10.2h9.7v10.2z" fill="#4fc1ea"/><path d="m223.9 299h-26c-.9 0-1.6.7-1.6 1.6v51.1c0 .9.7 1.6 1.6 1.6h26c.9 0 1.6-.7 1.6-1.6v-51.1c0-.9-.7-1.6-1.6-1.6zm-1.6 3.2v10.2h-9.7v-10.2zm-13 25.6v8.8h-9.7v-8.8zm3.2 0h9.7v8.8h-9.7zm0-12.1h9.7v8.8h-9.7zm-3.2 0v8.8h-9.7v-8.8zm3.2 24.1h9.7v10.2h-9.7zm-3.2-37.6v10.2h-9.7v-10.2zm-9.8 37.6h9.7v10.2h-9.7z" fill="#4fc1ea"/><path d="m138.7 233.6h-26c-.9 0-1.6.7-1.6 1.6v51.1c0 .9.7 1.6 1.6 1.6h26c.9 0 1.6-.7 1.6-1.6v-51.1c0-.9-.7-1.6-1.6-1.6zm-24.3 51v-10.2h9.7v10.2zm13-25.5v-8.8h9.7v8.8zm-3.3 0h-9.7v-8.8h9.7zm0 3.3v8.8h-9.7v-8.8zm3.3 8.8v-8.8h9.7v8.8zm9.7-24.2h-9.7v-10.2h9.7zm-13-10.1v10.1h-9.7v-10.2h9.7zm3.3 47.7v-10.2h9.7v10.2z" fill="#4fc1ea"/><path d="m181.7 233.6h-26c-.9 0-1.6.7-1.6 1.6v51.1c0 .9.7 1.6 1.6 1.6h26c.9 0 1.6-.7 1.6-1.6v-51.1c0-.9-.7-1.6-1.6-1.6zm-1.7 13.4h-9.7v-10.2h9.7zm-12.9 15.4v8.8h-9.7v-8.8zm3.2 0h9.7v8.8h-9.7zm0-12.1h9.7v8.8h-9.7zm-3.2 0v8.8h-9.7v-8.8zm3.2 24.1h9.7v10.2h-9.7zm-3.2-37.5v10.1h-9.7v-10.2h9.7zm-9.8 37.5h9.7v10.2h-9.7z" fill="#4fc1ea"/><path d="m224.1 233.6h-26c-.9 0-1.6.7-1.6 1.6v51.1c0 .9.7 1.6 1.6 1.6h26c.9 0 1.6-.7 1.6-1.6v-51.1c.1-.9-.7-1.6-1.6-1.6zm-24.3 51v-10.2h9.7v10.2zm13-25.5v-8.8h9.7v8.8zm-3.3 0h-9.7v-8.8h9.7zm0 3.3v8.8h-9.7v-8.8zm3.3 8.8v-8.8h9.7v8.8zm9.7-24.2h-9.7v-10.2h9.7zm-13-10.1v10.1h-9.7v-10.2h9.7zm3.3 47.7v-10.2h9.7v10.2z" fill="#4fc1ea"/><path d="m219 387.4h-51.1c-.9 0-1.6.7-1.6 1.6v26c0 .9.7 1.6 1.6 1.6h51.1c.9 0 1.6-.7 1.6-1.6v-26c0-.8-.7-1.6-1.6-1.6zm-1.7 13h-10.2v-9.7h10.2zm-47.8 3.3h10.2v9.7h-10.2zm34.4-3.3h-8.8v-9.7h8.8zm-12.1 0h-8.8v-9.7h8.8zm-12.1 0h-10.2v-9.7h10.2zm3.3 3.3h8.8v9.7h-8.8zm12.1 0h8.8v9.7h-8.8zm12 9.7v-9.7h10.2v9.7z" fill="#4fc1ea"/><path d="m143.4 416.7c-.9 0-1.6.7-1.6 1.6v7c0 .9.7 1.6 1.6 1.6s1.6-.7 1.6-1.6v-7c.1-.9-.7-1.6-1.6-1.6z" fill="#4fc1ea"/><path d="m237.7 316.4-3.4 3.4h15.6l-3.5-3.4z" fill="#fff"/><path d="m234.2 323.1c.8 3.7 4 6.4 7.9 6.4s7.2-2.8 7.9-6.4z" fill="#fff"/><path d="m238.7 312.9h6.8v.3h-6.8z" fill="#fff"/><path d="m212.8 442.9h-4.7v3h19.3v-3h-4.7z" fill="#fff"/><path d="m214.5 405.2h6.6v34.4h-6.6z" fill="#fff"/><path d="m255 320.3-6.2-6.2v-2.9c0-.9-.7-1.6-1.6-1.6h-3.4v-11.7c0-3.7-1.4-7.2-4-9.8s-6.1-4-9.8-4c-7.6 0-13.8 6.2-13.8 13.8v9h-3.2c-.9 0-1.6.7-1.6 1.6v2.9c0 .9.7 1.6 1.6 1.6h3.2v88.8h-3.3c-.9 0-1.6.7-1.6 1.6v36h-4.8c-.9 0-1.6.7-1.6 1.6v6.3c0 .9.7 1.6 1.6 1.6h22.6c.9 0 1.6-.7 1.6-1.6v-6.3c0-.9-.7-1.6-1.6-1.6h-4.8v-36c0-.9-.7-1.6-1.6-1.6h-3.3v-88.8h3.2c.9 0 1.6-.7 1.6-1.6v-2.9c0-.9-.7-1.6-1.6-1.6h-3.2v-9c0-5.8 4.7-10.5 10.5-10.5 2.8 0 5.5 1.1 7.4 3.1 2 2 3.1 4.6 3.1 7.5v11.7h-3.4c-.9 0-1.6.7-1.6 1.6v2.9l-6.2 6.2c-.5.5-.6 1.2-.4 1.8.3.6.8 1 1.5 1h.5c.8 5.5 5.5 9.7 11.2 9.7s10.4-4.2 11.2-9.7h.5c.7 0 1.3-.4 1.5-1 .4-.7.2-1.4-.2-1.9zm-27.6 125.6h-19.4v-3h4.8 9.8 4.8zm-6.3-40.7v34.4h-6.6v-34.4zm21-75.7c-3.9 0-7.2-2.8-7.9-6.4h15.8c-.8 3.7-4 6.4-7.9 6.4zm-7.8-9.7 3.4-3.4h8.7l3.4 3.4zm11.2-6.9v.3h-6.8v-.3z" fill="#4fc1ea"/></svg>