<svg enable-background="new 0 0 500 500" viewBox="0 0 500 500" xmlns="http://www.w3.org/2000/svg"><path d="m491.8 449.7h-468.1c-.4 0-.7-.8-.7-1.8s.3-1.8.7-1.8h468.2" fill="#4fc1ea"/><path d="m315.1 253.8h29.2v38.3h-29.2z" fill="none"/><path d="m268.3 253.8h29.2v38.3h-29.2z" fill="none"/><path d="m361.8 253.8h29.2v38.3h-29.2z" fill="none"/><path d="m352 142.6v-4.8h-44.5v4.8c0 20.5-12.8 38.1-30.8 45.1h106.1c-18-7-30.8-24.6-30.8-45.1zm3.9 37.8c0 .9-.7 1.7-1.7 1.7h-49.1c-.9 0-1.7-.7-1.7-1.7v-4.6c0-.9.7-1.7 1.7-1.7h2.8c.9-11.2 10.2-20.1 21.7-20.1s20.8 8.9 21.7 20.1h2.8c.9 0 1.7.7 1.7 1.7v4.6z" fill="none"/><g fill="#fff"><path d="m260.8 374.7h138v2.1h-138z"/><path d="m260.8 191.1h138v2.5h-138z"/><path d="m386.8 222.5h4.4v6h-4.4z"/><path d="m386.8 204.7h4.4v5.1h-4.4z"/><path d="m386.8 213.1h4.4v6h-4.4z"/><path d="m386.8 231.9h4.4v5.1h-4.4z"/><path d="m386.6 406.4h4.4v6h-4.4z"/><path d="m386.6 388.6h4.4v5.1h-4.4z"/><path d="m386.6 342.4h4.4v6h-4.4z"/><path d="m386.6 324.7h4.4v5.1h-4.4z"/><path d="m378.3 295.4h12.7v11.3h-12.7z"/><path d="m386.6 333h4.4v6h-4.4z"/><path d="m386.6 351.8h4.4v5.1h-4.4z"/><path d="m386.6 397h4.4v6h-4.4z"/><path d="m386.6 415.8h4.4v5.1h-4.4z"/><path d="m378.3 231.9h5.2v5.1h-5.2z"/><path d="m378.3 222.5h5.2v6h-5.2z"/><path d="m378.3 213.1h5.2v6h-5.2z"/><path d="m378.3 204.7h5.2v5.1h-5.2z"/><path d="m378.1 415.8h5.2v5.1h-5.2z"/><path d="m378.1 406.4h5.2v6h-5.2z"/><path d="m378.1 397h5.2v6h-5.2z"/><path d="m378.1 388.6h5.2v5.1h-5.2z"/><path d="m378.1 351.8h5.2v5.1h-5.2z"/><path d="m378.1 342.4h5.2v6h-5.2z"/><path d="m378.1 333h5.2v6h-5.2z"/><path d="m378.1 324.7h5.2v5.1h-5.2z"/><path d="m369.6 231.9h5.3v5.1h-5.3z"/><path d="m369.6 222.5h5.3v6h-5.3z"/><path d="m369.6 213.1h5.3v6h-5.3z"/><path d="m369.6 204.7h5.3v5.1h-5.3z"/><path d="m369.4 415.8h5.4v5.1h-5.4z"/><path d="m369.4 406.4h5.4v6h-5.4z"/><path d="m369.4 397h5.4v6h-5.4z"/><path d="m369.4 388.6h5.4v5.1h-5.4z"/><path d="m369.4 351.8h5.4v5.1h-5.4z"/><path d="m369.4 342.4h5.4v6h-5.4z"/><path d="m369.4 333h5.4v6h-5.4z"/><path d="m369.4 324.7h5.4v5.1h-5.4z"/><path d="m362 231.9h4.3v5.1h-4.3z"/><path d="m362 222.5h4.3v6h-4.3z"/><path d="m362 213.1h4.3v6h-4.3z"/><path d="m362 204.7h4.3v5.1h-4.3z"/><path d="m361.8 415.8h4.3v5.1h-4.3z"/><path d="m361.8 406.4h4.3v6h-4.3z"/><path d="m361.8 397h4.3v6h-4.3z"/><path d="m361.8 388.6h4.3v5.1h-4.3z"/><path d="m361.8 351.8h4.3v5.1h-4.3z"/><path d="m361.8 342.4h4.3v6h-4.3z"/><path d="m361.8 333h4.3v6h-4.3z"/><path d="m361.8 324.7h4.3v5.1h-4.3z"/><path d="m361.8 295.4h13.1v11.3h-13.1z"/><path d="m358.2 240.2h36.8v.9h-36.8z"/><path d="m358 310h36.8v.9h-36.8z"/><path d="m358 360.2h36.8v.9h-36.8z"/><path d="m358 424.2h36.8v.9h-36.8z"/><path d="m398.8 444.8v-64.7h-138v64.7h51.4v-57.8c0-.9.7-1.7 1.7-1.7h31.9c.9 0 1.7.7 1.7 1.7v57.8zm-94.2-18.1c0 .9-.7 1.7-1.7 1.7h-40.1c-.9 0-1.7-.7-1.7-1.7v-4.2c0-.9.7-1.7 1.7-1.7h2.1v-6.5c0-.1 0-.1 0-.2s0-.1 0-.2v-18.3c0-.1 0-.1 0-.2s0-.1 0-.2v-8.2c0-.9.7-1.7 1.7-1.7h32.5c.9 0 1.7.7 1.7 1.7v33.8h2.1c.9 0 1.7.7 1.7 1.7zm50.1-4.2c0-.9.7-1.7 1.7-1.7h2.1v-6.5c0-.1 0-.1 0-.2s0-.1 0-.2v-18.3c0-.1 0-.1 0-.2s0-.1 0-.2v-8.2c0-.9.7-1.7 1.7-1.7h32.5c.9 0 1.7.7 1.7 1.7v33.8h2.1c.9 0 1.7.7 1.7 1.7v4.2c0 .9-.7 1.7-1.7 1.7h-40.1c-.9 0-1.7-.7-1.7-1.7z"/><path d="m398.8 196.9h-138v174.4h138zm-94.2 165.8c0 .9-.7 1.7-1.7 1.7h-40.1c-.9 0-1.7-.7-1.7-1.7v-4.2c0-.9.7-1.7 1.7-1.7h2.1v-6.5c0-.1 0-.1 0-.2s0-.1 0-.2v-18.3c0-.1 0-.1 0-.2s0-.1 0-.2v-8.2c0-.9.7-1.7 1.7-1.7h32.5c.9 0 1.7.7 1.7 1.7v33.8h2.1c.9 0 1.7.7 1.7 1.7zm0-50.2c0 .9-.7 1.7-1.7 1.7h-40.1c-.9 0-1.7-.7-1.7-1.7v-4.2c0-.9.7-1.7 1.7-1.7h2.1v-54.5c0-.9.7-1.7 1.7-1.7h32.5c.9 0 1.7.7 1.7 1.7v54.5h2.1c.9 0 1.7.7 1.7 1.7zm.2-69.7c0 .9-.7 1.7-1.7 1.7h-40.1c-.9 0-1.7-.7-1.7-1.7v-4.2c0-.9.7-1.7 1.7-1.7h2.1v-6.5c0-.1 0-.1 0-.2s0-.1 0-.2v-18.3c0-.1 0-.1 0-.2s0-.1 0-.2v-8.2c0-.9.7-1.7 1.7-1.7h32.5c.9 0 1.7.7 1.7 1.7v33.8h2.1c.9 0 1.7.7 1.7 1.7zm46.6 119.9c0 .9-.7 1.7-1.7 1.7h-40.1c-.9 0-1.7-.7-1.7-1.7v-4.2c0-.9.7-1.7 1.7-1.7h2.1v-6.5c0-.1 0-.1 0-.2s0-.1 0-.2v-18.3c0-.1 0-.1 0-.2s0-.1 0-.2v-8.2c0-.9.7-1.7 1.7-1.7h32.5c.9 0 1.7.7 1.7 1.7v33.8h2.1c.9 0 1.7.7 1.7 1.7zm0-50.2c0 .9-.7 1.7-1.7 1.7h-40.1c-.9 0-1.7-.7-1.7-1.7v-4.2c0-.9.7-1.7 1.7-1.7h2.1v-54.5c0-.9.7-1.7 1.7-1.7h32.5c.9 0 1.7.7 1.7 1.7v54.5h2.1c.9 0 1.7.7 1.7 1.7zm.2-69.7c0 .9-.7 1.7-1.7 1.7h-40.1c-.9 0-1.7-.7-1.7-1.7v-4.2c0-.9.7-1.7 1.7-1.7h2.1v-6.6c0-.1 0-.1 0-.2s0-.1 0-.2v-18.4c0-.1 0-.1 0-.2s0-.1 0-.2v-8.2c0-.9.7-1.7 1.7-1.7h32.5c.9 0 1.7.7 1.7 1.7v33.8h2.1c.9 0 1.7.7 1.7 1.7zm46.6 119.9c0 .9-.7 1.7-1.7 1.7h-40.1c-.9 0-1.7-.7-1.7-1.7v-4.2c0-.9.7-1.7 1.7-1.7h2.1v-6.5c0-.1 0-.1 0-.2s0-.1 0-.2v-18.3c0-.1 0-.1 0-.2s0-.1 0-.2v-8.2c0-.9.7-1.7 1.7-1.7h32.5c.9 0 1.7.7 1.7 1.7v33.8h2.1c.9 0 1.7.7 1.7 1.7zm0-50.2c0 .9-.7 1.7-1.7 1.7h-40.1c-.9 0-1.7-.7-1.7-1.7v-4.2c0-.9.7-1.7 1.7-1.7h2.1v-54.5c0-.9.7-1.7 1.7-1.7h32.5c.9 0 1.7.7 1.7 1.7v54.5h2.1c.9 0 1.7.7 1.7 1.7zm-1.5-68h-40.1c-.9 0-1.7-.7-1.7-1.7v-4.2c0-.9.7-1.7 1.7-1.7h2.1v-6.5c0-.1 0-.1 0-.2s0-.1 0-.2v-18.3c0-.1 0-.1 0-.2s0-.1 0-.2v-8.2c0-.9.7-1.7 1.7-1.7h32.5c.9 0 1.7.7 1.7 1.7v33.8h2.1c.9 0 1.7.7 1.7 1.7v4.2c0 .9-.8 1.7-1.7 1.7z"/><path d="m340 222.5h4.4v6h-4.4z"/><path d="m340 204.7h4.4v5.1h-4.4z"/><path d="m340 213.1h4.4v6h-4.4z"/><path d="m340 231.9h4.4v5.1h-4.4z"/><path d="m339.8 342.4h4.4v6h-4.4z"/><path d="m339.8 324.7h4.4v5.1h-4.4z"/><path d="m331.5 295.4h12.7v11.3h-12.7z"/><path d="m339.8 333h4.4v6h-4.4z"/><path d="m339.8 351.8h4.4v5.1h-4.4z"/><path d="m339.7 393.5h-19.9v51.3h19.9zm-1.5 30.3c0 .9-.7 1.7-1.7 1.7-.9 0-1.7-.7-1.7-1.7v-7.1c0-.9.7-1.7 1.7-1.7.9 0 1.7.7 1.7 1.7z"/><path d="m331.5 231.9h5.2v5.1h-5.2z"/><path d="m331.5 222.5h5.2v6h-5.2z"/><path d="m331.5 213.1h5.2v6h-5.2z"/><path d="m331.5 204.7h5.2v5.1h-5.2z"/><path d="m331.3 351.8h5.2v5.1h-5.2z"/><path d="m331.3 342.4h5.2v6h-5.2z"/><path d="m331.3 333h5.2v6h-5.2z"/><path d="m331.3 324.7h5.2v5.1h-5.2z"/><path d="m307.7 134.5h44.2c-.9-11.5-10.5-20.5-22.1-20.5-11.7 0-21.3 9-22.1 20.5z"/><path d="m311.4 174.2h36.7c-.8-9.4-8.8-16.8-18.4-16.8s-17.5 7.4-18.3 16.8z"/><path d="m322.9 231.9h5.3v5.1h-5.3z"/><path d="m322.9 222.5h5.3v6h-5.3z"/><path d="m322.9 213.1h5.3v6h-5.3z"/><path d="m322.9 204.7h5.3v5.1h-5.3z"/><path d="m322.7 351.8h5.3v5.1h-5.3z"/><path d="m322.7 342.4h5.3v6h-5.3z"/><path d="m322.7 333h5.3v6h-5.3z"/><path d="m322.7 324.7h5.3v5.1h-5.3z"/><path d="m315.3 231.9h4.3v5.1h-4.3z"/><path d="m315.3 222.5h4.3v6h-4.3z"/><path d="m315.3 213.1h4.3v6h-4.3z"/><path d="m315.3 204.7h4.3v5.1h-4.3z"/><path d="m315.1 351.8h4.3v5.1h-4.3z"/><path d="m315.1 342.4h4.3v6h-4.3z"/><path d="m315.1 333h4.3v6h-4.3z"/><path d="m315.1 324.7h4.3v5.1h-4.3z"/><path d="m344 444.8v-56.1h-28.5v56.1h1v-53c0-.9.7-1.7 1.7-1.7h23.2c.9 0 1.7.7 1.7 1.7v53z"/><path d="m315.1 295.4h13.1v11.3h-13.1z"/><path d="m311.5 240.2h36.8v.9h-36.8z"/><path d="m311.3 310h36.8v.9h-36.8z"/><path d="m311.3 360.2h36.8v.9h-36.8z"/><path d="m306.9 177.5h45.7v1.2h-45.7z"/><path d="m293.2 222.5h4.4v6h-4.4z"/><path d="m293.2 204.7h4.4v5.1h-4.4z"/><path d="m293.2 213.1h4.4v6h-4.4z"/><path d="m293.2 231.9h4.4v5.1h-4.4z"/><path d="m293 406.4h4.4v6h-4.4z"/><path d="m293 388.6h4.4v5.1h-4.4z"/><path d="m293 342.4h4.4v6h-4.4z"/><path d="m293 324.7h4.4v5.1h-4.4z"/><path d="m284.7 295.4h12.7v11.3h-12.7z"/><path d="m293 333h4.4v6h-4.4z"/><path d="m293 351.8h4.4v5.1h-4.4z"/><path d="m293 397h4.4v6h-4.4z"/><path d="m293 415.8h4.4v5.1h-4.4z"/><path d="m284.7 231.9h5.2v5.1h-5.2z"/><path d="m284.7 222.5h5.2v6h-5.2z"/><path d="m284.7 213.1h5.2v6h-5.2z"/><path d="m284.7 204.7h5.2v5.1h-5.2z"/><path d="m284.5 415.8h5.2v5.1h-5.2z"/><path d="m284.5 406.4h5.2v6h-5.2z"/><path d="m284.5 397h5.2v6h-5.2z"/><path d="m284.5 388.6h5.2v5.1h-5.2z"/><path d="m284.5 351.8h5.2v5.1h-5.2z"/><path d="m284.5 342.4h5.2v6h-5.2z"/><path d="m284.5 333h5.2v6h-5.2z"/><path d="m284.5 324.7h5.2v5.1h-5.2z"/><path d="m276.1 231.9h5.3v5.1h-5.3z"/><path d="m276.1 222.5h5.3v6h-5.3z"/><path d="m276.1 213.1h5.3v6h-5.3z"/><path d="m276.1 204.7h5.3v5.1h-5.3z"/><path d="m275.9 415.8h5.4v5.1h-5.4z"/><path d="m275.9 406.4h5.4v6h-5.4z"/><path d="m275.9 397h5.4v6h-5.4z"/><path d="m275.9 388.6h5.4v5.1h-5.4z"/><path d="m275.9 351.8h5.4v5.1h-5.4z"/><path d="m275.9 342.4h5.4v6h-5.4z"/><path d="m275.9 333h5.4v6h-5.4z"/><path d="m275.9 324.7h5.4v5.1h-5.4z"/><path d="m268.5 231.9h4.3v5.1h-4.3z"/><path d="m268.5 222.5h4.3v6h-4.3z"/><path d="m268.5 213.1h4.3v6h-4.3z"/><path d="m268.5 204.7h4.3v5.1h-4.3z"/><path d="m268.3 415.8h4.3v5.1h-4.3z"/><path d="m268.3 406.4h4.3v6h-4.3z"/><path d="m268.3 397h4.3v6h-4.3z"/><path d="m268.3 388.6h4.3v5.1h-4.3z"/><path d="m268.3 351.8h4.3v5.1h-4.3z"/><path d="m268.3 342.4h4.3v6h-4.3z"/><path d="m268.3 333h4.3v6h-4.3z"/><path d="m268.3 324.7h4.3v5.1h-4.3z"/><path d="m268.3 295.4h13.1v11.3h-13.1z"/><path d="m264.7 240.2h36.8v.9h-36.8z"/><path d="m264.5 310h36.8v.9h-36.8z"/><path d="m264.5 360.2h36.8v.9h-36.8z"/><path d="m264.5 424.2h36.8v.9h-36.8z"/></g><path d="m302.9 356.8h-2.1v-33.8c0-.9-.7-1.7-1.7-1.7h-32.5c-.9 0-1.7.7-1.7 1.7v8.2.2.2 18.3.2.2 6.5h-2.1c-.9 0-1.7.7-1.7 1.7v4.2c0 .9.7 1.7 1.7 1.7h40.1c.9 0 1.7-.7 1.7-1.7v-4.2c0-.9-.7-1.7-1.7-1.7zm-1.6 4.3h-36.8v-.9h36.8zm-16.8-12.7v-6h5.2v6zm8.5-6h4.4v6h-4.4zm0-9.4h4.4v6h-4.4zm-3.3 6.1h-5.2v-6h5.2zm-8.5 0h-5.4v-6h5.4zm-8.7 0h-4.3v-6h4.3zm3.4 3.3h5.4v6h-5.4zm5.3 9.4v5.1h-5.4v-5.1zm3.3 0h5.2v5.1h-5.2zm-16.2-9.4h4.3v6h-4.3zm24.7 14.4v-5.1h4.4v5.1zm4.5-27.1h-4.5v-5.1h4.4v5.1zm-7.8 0h-5.2v-5.1h5.2zm-8.5 0h-5.4v-5.1h5.4zm-8.7 0h-4.3v-5.1h4.3zm-4.2 22.1h4.3v5.1h-4.3z" fill="#4fc1ea"/><path d="m302.9 420.8h-2.1v-33.8c0-.9-.7-1.7-1.7-1.7h-32.5c-.9 0-1.7.7-1.7 1.7v8.2.2.2 18.3.2.2 6.5h-2.1c-.9 0-1.7.7-1.7 1.7v4.2c0 .9.7 1.7 1.7 1.7h40.1c.9 0 1.7-.7 1.7-1.7v-4.2c0-.9-.7-1.7-1.7-1.7zm-1.6 4.3h-36.8v-.9h36.8zm-3.8-31.4h-4.5v-5.1h4.4v5.1zm-13 27.1v-5.1h5.2v5.1zm-8.6 0v-5.1h5.4v5.1zm13.8-17.7h-5.2v-6h5.2zm-5.2 9.4v-6h5.2v6zm8.5-6.1h4.4v6h-4.4zm0-9.4h4.4v6h-4.4zm-11.8 0v6h-5.4v-6zm-8.7 6.1h-4.3v-6h4.3zm3.4 3.3h5.4v6h-5.4zm13.8-12.7h-5.2v-5.1h5.2zm-8.5 0h-5.4v-5.1h5.4zm-12.9 12.7h4.3v6h-4.3zm24.7 14.4v-5.1h4.4v5.1zm-20.5-32.2v5.1h-4.3v-5.1zm-4.2 27.2h4.3v5.1h-4.3z" fill="#4fc1ea"/><path d="m303.1 236.9h-2.1v-33.8c0-.9-.7-1.7-1.7-1.7h-32.5c-.9 0-1.7.7-1.7 1.7v8.2.2.2 18.3.2.2 6.5h-2.1c-.9 0-1.7.7-1.7 1.7v4.2c0 .9.7 1.7 1.7 1.7h40.1c.9 0 1.7-.7 1.7-1.7v-4.2c0-.9-.7-1.7-1.7-1.7zm-1.6 4.2h-36.8v-.9h36.8zm-20.1-36.4v5.1h-5.3v-5.1zm8.5 0v5.1h-5.2v-5.1zm7.8 0v5.1h-4.4v-5.1zm-7.8 14.5h-5.2v-6h5.2zm-5.2 9.3v-6h5.2v6zm8.5-6h4.4v6h-4.4zm0-9.4h4.4v6h-4.4zm-11.8 0v6h-5.3v-6zm-8.7 6.1h-4.3v-6h4.3zm3.4 3.3h5.3v6h-5.3zm5.3 9.4v5.1h-5.3v-5.1zm3.3 0h5.2v5.1h-5.2zm-16.2-9.4h4.3v6h-4.3zm24.7 14.4v-5.1h4.4v5.1zm-20.5-32.2v5.1h-4.3v-5.1zm-4.2 27.2h4.3v5.1h-4.3z" fill="#4fc1ea"/><path d="m302.9 306.6h-2.1v-54.5c0-.9-.7-1.7-1.7-1.7h-32.5c-.9 0-1.7.7-1.7 1.7v54.5h-2.1c-.9 0-1.7.7-1.7 1.7v4.2c0 .9.7 1.7 1.7 1.7h40.1c.9 0 1.7-.7 1.7-1.7v-4.2c0-.9-.7-1.7-1.7-1.7zm-1.6 4.3h-36.8v-.9h36.8zm-3.8-18.8h-29.2v-38.3h29.2zm-12.8 14.5v-11.3h12.7v11.3zm-16.4-11.2h13.1v11.3h-13.1z" fill="#4fc1ea"/><path d="m349.7 356.8h-2.1v-33.8c0-.9-.7-1.7-1.7-1.7h-32.5c-.9 0-1.7.7-1.7 1.7v8.2.2.2 18.3.2.2 6.5h-2.1c-.9 0-1.7.7-1.7 1.7v4.2c0 .9.7 1.7 1.7 1.7h40.1c.9 0 1.7-.7 1.7-1.7v-4.2c0-.9-.8-1.7-1.7-1.7zm-1.6 4.3h-36.8v-.9h36.8zm-16.8-12.7v-6h5.2v6zm8.5-6h4.4v6h-4.4zm0-9.4h4.4v6h-4.4zm-3.3 6.1h-5.2v-6h5.2zm-8.5 0h-5.3v-6h5.3zm-8.7 0h-4.3v-6h4.3zm3.4 3.3h5.3v6h-5.3zm5.3 9.4v5.1h-5.3v-5.1zm3.3 0h5.2v5.1h-5.2zm-16.2-9.4h4.3v6h-4.3zm24.7 14.4v-5.1h4.4v5.1zm4.5-27.1h-4.4v-5.1h4.4zm-7.8 0h-5.2v-5.1h5.2zm-8.5 0h-5.3v-5.1h5.3zm-8.7 0h-4.3v-5.1h4.3zm-4.2 22.1h4.3v5.1h-4.3z" fill="#4fc1ea"/><path d="m349.9 236.9h-2.1v-33.8c0-.9-.7-1.7-1.7-1.7h-32.5c-.9 0-1.7.7-1.7 1.7v8.2.2.2 18.3.2.2 6.6h-2.1c-.9 0-1.7.7-1.7 1.7v4.2c0 .9.7 1.7 1.7 1.7h40.1c.9 0 1.7-.7 1.7-1.7v-4.2c0-1-.8-1.8-1.7-1.8zm-1.6 4.2h-36.8v-.9h36.8zm-20.1-36.4v5.1h-5.3v-5.1zm8.5 0v5.1h-5.2v-5.1zm7.7 0v5.1h-4.4v-5.1zm0 14.5h-4.4v-6h4.4zm0 9.3h-4.4v-6h4.4zm-7.7-9.3h-5.2v-6h5.2zm-5.2 9.3v-6h5.2v6zm-3.3-15.4v6h-5.3v-6zm-8.7 6.1h-4.3v-6h4.3zm0 3.3v6h-4.3v-6zm3.4 0h5.3v6h-5.3zm5.3 9.4v5.1h-5.3v-5.1zm3.3 0h5.2v5.1h-5.2zm8.5 5v-5.1h4.4v5.1zm-20.5-32.2v5.1h-4.3v-5.1zm0 27.2v5.1h-4.3v-5.1z" fill="#4fc1ea"/><path d="m349.7 306.6h-2.1v-54.5c0-.9-.7-1.7-1.7-1.7h-32.5c-.9 0-1.7.7-1.7 1.7v54.5h-2.1c-.9 0-1.7.7-1.7 1.7v4.2c0 .9.7 1.7 1.7 1.7h40.1c.9 0 1.7-.7 1.7-1.7v-4.2c0-.9-.8-1.7-1.7-1.7zm-1.6 4.3h-36.8v-.9h36.8zm-3.8-18.8h-29.2v-38.3h29.2zm-12.8 14.5v-11.3h12.7v11.3zm-16.4-11.2h13.1v11.3h-13.1z" fill="#4fc1ea"/><path d="m396.5 356.8h-2.1v-33.8c0-.9-.7-1.7-1.7-1.7h-32.5c-.9 0-1.7.7-1.7 1.7v8.2.2.2 18.3.2.2 6.5h-2.1c-.9 0-1.7.7-1.7 1.7v4.2c0 .9.7 1.7 1.7 1.7h40.1c.9 0 1.7-.7 1.7-1.7v-4.2c0-.9-.8-1.7-1.7-1.7zm-1.7 4.3h-36.8v-.9h36.8zm-3.8-22h-4.4v-6h4.4zm0 9.3h-4.4v-6h4.4zm-12.9 0v-6h5.2v6zm5.2-9.3h-5.2v-6h5.2zm-8.5 0h-5.4v-6h5.4zm-8.7 0h-4.3v-6h4.3zm0 3.3v6h-4.3v-6zm3.3 0h5.4v6h-5.4zm5.4 9.4v5.1h-5.4v-5.1zm3.3 0h5.2v5.1h-5.2zm8.5 5v-5.1h4.4v5.1zm4.4-27.1h-4.4v-5.1h4.4zm-7.7 0h-5.2v-5.1h5.2zm-8.5 0h-5.4v-5.1h5.4zm-8.7 0h-4.3v-5.1h4.3zm0 22.1v5.1h-4.3v-5.1z" fill="#4fc1ea"/><path d="m356.4 428.4h40.1c.9 0 1.7-.7 1.7-1.7v-4.2c0-.9-.7-1.7-1.7-1.7h-2.1v-33.8c0-.9-.7-1.7-1.7-1.7h-32.5c-.9 0-1.7.7-1.7 1.7v8.2.2.2 18.3.2.2 6.5h-2.1c-.9 0-1.7.7-1.7 1.7v4.2c0 .9.8 1.7 1.7 1.7zm21.7-7.6v-5.1h5.2v5.1zm-8.7 0v-5.1h5.4v5.1zm21.6-17.7h-4.4v-6h4.4zm0 9.4h-4.4v-6h4.4zm-7.7-9.4h-5.2v-6h5.2zm-5.2 9.4v-6h5.2v6zm-3.3-15.5v6h-5.4v-6zm-8.7 6.1h-4.3v-6h4.3zm0 3.3v6h-4.3v-6zm3.3 0h5.4v6h-5.4zm21.6-12.7h-4.4v-5.1h4.4zm-7.7 0h-5.2v-5.1h5.2zm-8.5 0h-5.4v-5.1h5.4zm11.8 27.1v-5.1h4.4v5.1zm-20.5-32.2v5.1h-4.3v-5.1zm0 27.2v5.1h-4.3v-5.1zm-8.1 8.4h36.8v.9h-36.8z" fill="#4fc1ea"/><path d="m396.7 236.9h-2.1v-33.8c0-.9-.7-1.7-1.7-1.7h-32.5c-.9 0-1.7.7-1.7 1.7v8.2.2.2 18.3.2.2 6.5h-2.1c-.9 0-1.7.7-1.7 1.7v4.2c0 .9.7 1.7 1.7 1.7h40.1c.9 0 1.7-.7 1.7-1.7v-4.2c0-.9-.8-1.7-1.7-1.7zm-1.7 4.2h-36.8v-.9h36.8zm-20-36.4v5.1h-5.3v-5.1zm8.5 0v5.1h-5.2v-5.1zm7.7 0v5.1h-4.4v-5.1zm0 14.5h-4.4v-6h4.4zm0 9.3h-4.4v-6h4.4zm-7.7-9.3h-5.2v-6h5.2zm-5.2 9.3v-6h5.2v6zm-3.3-15.4v6h-5.3v-6zm-5.4 9.4h5.3v6h-5.3zm5.4 9.4v5.1h-5.3v-5.1zm3.3 0h5.2v5.1h-5.2zm-12-18.8v6h-4.3v-6zm0 9.4v6h-4.3v-6zm20.5 14.4v-5.1h4.4v5.1zm-20.5-32.2v5.1h-4.3v-5.1zm-4.3 27.2h4.3v5.1h-4.3z" fill="#4fc1ea"/><path d="m396.5 306.6h-2.1v-54.5c0-.9-.7-1.7-1.7-1.7h-32.5c-.9 0-1.7.7-1.7 1.7v54.5h-2.1c-.9 0-1.7.7-1.7 1.7v4.2c0 .9.7 1.7 1.7 1.7h40.1c.9 0 1.7-.7 1.7-1.7v-4.2c0-.9-.8-1.7-1.7-1.7zm-1.7 4.3h-36.8v-.9h36.8zm-16.5-4.3v-11.3h12.7v11.3zm12.7-14.5h-29.2v-38.3h29.2zm-29.2 3.3h13.2v11.3h-13.1v-11.3z" fill="#4fc1ea"/><path d="m354.3 174.2h-2.8c-.9-11.2-10.2-20.1-21.7-20.1s-20.8 8.9-21.7 20.1h-2.8c-.9 0-1.7.7-1.7 1.7v4.6c0 .9.7 1.7 1.7 1.7h49.1c.9 0 1.7-.7 1.7-1.7v-4.6c-.2-1-.9-1.7-1.8-1.7zm-1.7 4.5h-45.7v-1.2h45.7zm-4.5-4.5h-36.7c.8-9.4 8.8-16.8 18.4-16.8s17.5 7.4 18.3 16.8z" fill="#4fc1ea"/><path d="m336.6 415.1c-.9 0-1.7.7-1.7 1.7v7.1c0 .9.7 1.7 1.7 1.7.9 0 1.7-.7 1.7-1.7v-7.1c-.1-1-.8-1.7-1.7-1.7z" fill="#4fc1ea"/><path d="m400.4 187.8c-24.9 0-45.1-20.2-45.1-45.1v-4.8h9.2c.9 0 1.7-.7 1.7-1.7 0-.9-.7-1.7-1.7-1.7h-9.3c-.9-13.3-11.9-23.8-25.4-23.8s-24.6 10.6-25.4 23.8h-9.4c-.9 0-1.7.7-1.7 1.7 0 .9.7 1.7 1.7 1.7h9.2v4.8c0 24.9-20.2 45.1-45.1 45.1-.9 0-1.7.7-1.7 1.7v183.5 5.4 68c0 .9.7 1.7 1.7 1.7h54.7 4.3 23.2 4.3 54.7c.9 0 1.7-.7 1.7-1.7v-68-5.4-183.6c.1-.9-.7-1.6-1.6-1.6zm-80.6 205.7h19.9v51.3h-19.9zm21.6-3.4h-23.2c-.9 0-1.7.7-1.7 1.7v53h-1v-56.1h28.5v56.1h-1v-53c0-.9-.7-1.7-1.6-1.7zm4.3-4.8h-31.9c-.9 0-1.7.7-1.7 1.7v57.8h-51.4v-64.7h138v64.7h-51.4v-57.8c.1-.9-.7-1.7-1.6-1.7zm-84.9-188.4h138v174.4h-138zm0 177.8h138v2.1h-138zm138-183.6v2.5h-138v-2.5zm-46.9-56.6h-44.2c.9-11.5 10.4-20.5 22.1-20.5 11.6 0 21.2 9 22.1 20.5zm-44.4 8.1v-4.8h44.5v4.8c0 20.5 12.8 38.1 30.8 45.1h-106.1c18-7 30.8-24.6 30.8-45.1z" fill="#4fc1ea"/><path d="m173.1 361.9c0-8.7-7-15.7-15.7-15.7h-5.5c-8.6 0-15.7 7-15.7 15.7v7.7h36.9z" fill="none"/><path d="m214.2 222.3h-5.5c-8.7 0-15.7 7-15.7 15.7v7.7h36.9v-7.7c-.1-8.7-7.1-15.7-15.7-15.7z" fill="none"/><path d="m189.2 128.3c.9 0 1.7.7 1.7 1.7 0 .9-.7 1.7-1.7 1.7h-10.4l8.8 12.3h12.5c.9 0 1.7.7 1.7 1.7 0 .9-.7 1.7-1.7 1.7h-10.1l14.3 20c.2.3.3.6.3 1v34.3h17.5v-50.3h-11.3c-.9 0-1.7-.7-1.7-1.7 0-.9.7-1.7 1.7-1.7h11.3v-9h-11.3c-.9 0-1.7-.7-1.7-1.7 0-.9.7-1.7 1.7-1.7h11.3v-8.9h-11.3c-.9 0-1.7-.7-1.7-1.7 0-.9.7-1.7 1.7-1.7h11.3v-4.9h-51.9l6.3 8.7h12.7z" fill="none"/><path d="m115.8 361.9c0-8.7-7-15.7-15.7-15.7h-5.5c-8.7 0-15.7 7-15.7 15.7v7.7h36.9z" fill="none"/><path d="m86.8 124.5h11.2c.9 0 1.7.7 1.7 1.7 0 .9-.7 1.7-1.7 1.7h-11.2v8.9h11.2c.9 0 1.7.7 1.7 1.7 0 .9-.7 1.7-1.7 1.7h-11.2v8.9h11.2c.9 0 1.7.7 1.7 1.7 0 .9-.7 1.7-1.7 1.7h-11.2v50.3h15.3v-34.3c0-.3.1-.7.3-1l14.3-20h-9.5c-.9 0-1.7-.7-1.7-1.7 0-.9.7-1.7 1.7-1.7h11.9l8.8-12.3h-10.7c-.9 0-1.7-.7-1.7-1.7 0-.9.7-1.7 1.7-1.7h12.9.2l6.3-8.8h-49.8z" fill="none"/><path d="m115.6 237.9c0-8.6-7-15.7-15.7-15.7h-5.5c-8.7 0-15.7 7-15.7 15.7v7.7h36.9z" fill="none"/><path d="m214.4 346.2h-5.5c-8.7 0-15.7 7-15.7 15.7v7.7h36.9v-7.7c0-8.6-7.1-15.7-15.7-15.7z" fill="none"/><path d="m172.9 237.9c0-8.6-7-15.7-15.7-15.7h-5.5c-8.7 0-15.7 7-15.7 15.7v7.7h36.9z" fill="none"/><path d="m240.8 330.8h-172.7v5.1h172.7z" fill="#fff"/><path d="m225.4 126.1v12.2 12.2 52h15.4v-92.9c0-4.3-3.5-7.7-7.7-7.7s-7.7 3.5-7.7 7.7z" fill="#fff"/><path d="m193.1 373h36.9v56.9h-36.9z" fill="#fff"/><path d="m192.9 249h36.9v56.9h-36.9z" fill="#fff"/><path d="m233.1 98.6c-6.1 0-11 5-11 11v6.6h-54.3l-5.7-8v-13.5c0-.4-.1-.7-.3-1l-7-9.3c-.6-.8-2-.8-2.7 0l-7 9.3c-.2.3-.3.6-.3 1v13.4l-5.8 8.1h-52.2v-6.6c0-6.1-4.9-11-11-11s-11 5-11 11v94.5 124.7.2 8.5.2 108.7c0 .9.7 1.7 1.7 1.7h176.1c.9 0 1.7-.7 1.7-1.7v-108.8-8.5-124.9-94.5c-.2-6.1-5.1-11.1-11.2-11.1zm-165 11.1c0-4.3 3.5-7.7 7.7-7.7 4.3 0 7.7 3.5 7.7 7.7v8.3 8.2 12.2 12.2 52h-15.4zm79.9-14.4 5.3-7.1 5.3 7.1v11.8h-10.6zm74.1 24.3v4.9h-11.3c-.9 0-1.7.7-1.7 1.7 0 .9.7 1.7 1.7 1.7h11.3v8.9h-11.3c-.9 0-1.7.7-1.7 1.7 0 .9.7 1.7 1.7 1.7h11.3v8.9h-11.3c-.9 0-1.7.7-1.7 1.7 0 .9.7 1.7 1.7 1.7h11.3v50.3h-17.5v-34.3c0-.3-.1-.7-.3-1l-14.3-20h10.1c.9 0 1.7-.7 1.7-1.7 0-.9-.7-1.7-1.7-1.7h-12.5l-8.8-12.3h10.4c.9 0 1.7-.7 1.7-1.7 0-.9-.7-1.7-1.7-1.7h-12.8l-6.3-8.7h52zm11-17.6c4.3 0 7.7 3.5 7.7 7.7v92.9h-15.4v-52-12.2-12.2-16.5c0-4.3 3.4-7.7 7.7-7.7zm-165 233.9v-5.2h172.7v5.2zm172.7-22.2v13.7h-172.7v-13.7-107.8h17.1 18.6 99.1 20.8 17.1zm-93.6-203.3h12.3l6 8.5 20 27.9 15.8 22.1v33.7h-95.8v-33.7l15.7-21.9c.3-.2.5-.5.6-.8zm-16.9 17.9c-.1 0-.1 0-.2 0h-12.9c-.9 0-1.7.7-1.7 1.7 0 .9.7 1.7 1.7 1.7h10.7l-8.8 12.3h-11.9c-.9 0-1.7.7-1.7 1.7 0 .9.7 1.7 1.7 1.7h9.5l-14.3 20c-.2.3-.3.6-.3 1v34.3h-15.3v-50.3h11.2c.9 0 1.7-.7 1.7-1.7 0-.9-.7-1.7-1.7-1.7h-11.2v-9h11.2c.9 0 1.7-.7 1.7-1.7 0-.9-.7-1.7-1.7-1.7h-11.2v-8.9h11.2c.9 0 1.7-.7 1.7-1.7 0-.9-.7-1.7-1.7-1.7h-11.2v-4.9h49.7zm110.5 309.4v7.1h-172.7v-7.1-98.5h32 57.3 56.9 26.5z" fill="#4fc1ea"/><path d="m121.1 146.9-15.7 21.9v33.7h95.8v-33.7l-15.8-22.1-20-27.9-6-8.5h-12.3l-25.6 35.7c.1.5-.1.7-.4.9zm16.7 3.8c0-8.6 7-15.6 15.6-15.6s15.6 7 15.6 15.6v37.7c0 .9-.7 1.7-1.7 1.7h-27.8c-.9 0-1.7-.7-1.7-1.7z" fill="#fff"/><path d="m208.8 342.9c-10.5 0-19 8.5-19 19v9.4 58.6h-3.6c-.9 0-1.7.7-1.7 1.7v6.1c0 .9.7 1.7 1.7 1.7h50.8c.9 0 1.7-.7 1.7-1.7v-6.1c0-.9-.7-1.7-1.7-1.7h-3.6v-58.6-9.4c0-10.5-8.5-19-19-19zm26.6 93.2h-47.5v-2.8h3.6 40.3 3.6zm-5.3-6.2h-36.9v-56.9h36.9zm0-60.2h-36.9v-7.7c0-8.7 7-15.7 15.7-15.7h5.5c8.7 0 15.7 7 15.7 15.7z" fill="#4fc1ea"/><path d="m191.5 433.2h-3.7v2.9h47.6v-2.9h-3.7z" fill="#fff"/><path d="m208.6 218.9c-10.5 0-19 8.5-19 19v9.4 58.6h-3.6c-.9 0-1.7.7-1.7 1.7v6.1c0 .9.7 1.7 1.7 1.7h50.8c.9 0 1.7-.7 1.7-1.7v-6.1c0-.9-.7-1.7-1.7-1.7h-3.6v-58.6-9.4c0-10.5-8.5-19-19-19zm26.5 93.2h-47.5v-2.8h3.6 40.2 3.6v2.8zm-5.3-6.2h-36.9v-56.9h36.9zm0-60.2h-36.9v-7.7c0-8.6 7-15.7 15.7-15.7h5.5c8.6 0 15.7 7 15.7 15.7z" fill="#4fc1ea"/><path d="m191.3 309.3h-3.7v2.8h47.5v-2.8h-3.6z" fill="#fff"/><path d="m157.4 339.3h-57.3-32v98.5 7.1h172.7v-7.1-98.5h-26.5zm-34.7 100.1h-50.8c-.9 0-1.7-.7-1.7-1.7v-6.1c0-.9.7-1.7 1.7-1.7h3.6v-58.6-9.4c0-10.5 8.5-19 19-19h5.5c10.5 0 19 8.5 19 19v9.4 58.6h3.6c.9 0 1.7.7 1.7 1.7v6.1c.1.9-.7 1.7-1.6 1.7zm57.4 0h-50.8c-.9 0-1.7-.7-1.7-1.7v-6.1c0-.9.7-1.7 1.7-1.7h3.6v-58.6-9.4c0-10.5 8.5-19 19-19h5.5c10.5 0 19 8.5 19 19v9.4 58.6h3.6c.9 0 1.7.7 1.7 1.7v6.1c0 .9-.7 1.7-1.6 1.7zm53.3-77.5v9.4 58.6h3.6c.9 0 1.7.7 1.7 1.7v6.1c0 .9-.7 1.7-1.7 1.7h-50.9c-.9 0-1.7-.7-1.7-1.7v-6.1c0-.9.7-1.7 1.7-1.7h3.6v-58.6-9.4c0-10.5 8.5-19 19-19h5.5c10.6 0 19.2 8.5 19.2 19z" fill="#fff"/><path d="m136.2 373h36.9v56.9h-36.9z" fill="#fff"/><path d="m136 249h36.9v56.9h-36.9z" fill="#fff"/><path d="m141.1 152.3h24.5v34.4h-24.5z" fill="#fff"/><path d="m165.5 149c-.8-6-5.9-10.6-12.1-10.6s-11.3 4.6-12.1 10.6z" fill="#fff"/><path d="m158.7 95.3-5.3-7-5.4 7v11.8h10.7z" fill="#fff"/><path d="m139.5 190h27.8c.9 0 1.7-.7 1.7-1.7v-37.7c0-8.6-7-15.6-15.6-15.6s-15.6 7-15.6 15.6v37.7c0 1 .7 1.7 1.7 1.7zm13.9-51.6c6.2 0 11.3 4.6 12.1 10.6h-24.2c.8-6 5.9-10.6 12.1-10.6zm12.2 48.3h-24.5v-34.4h24.5z" fill="#4fc1ea"/><path d="m134.5 433.2h-3.6v2.9h47.5v-2.9h-3.6z" fill="#fff"/><path d="m134.3 309.3h-3.6v2.8h47.5v-2.8h-3.6z" fill="#fff"/><path d="m180.1 429.9h-3.6v-58.6-9.4c0-10.5-8.5-19-19-19h-5.5c-10.5 0-19 8.5-19 19v9.4 58.6h-3.6c-.9 0-1.7.7-1.7 1.7v6.1c0 .9.7 1.7 1.7 1.7h50.8c.9 0 1.7-.7 1.7-1.7v-6.1c-.2-.9-.9-1.7-1.8-1.7zm-1.7 6.2h-47.5v-2.8h3.6 40.2 3.6v2.8zm-42.2-74.2c0-8.7 7-15.7 15.7-15.7h5.5c8.7 0 15.7 7 15.7 15.7v7.7h-36.9zm0 11.1h36.9v56.9h-36.9z" fill="#4fc1ea"/><path d="m179.9 305.9h-3.6v-58.6-9.4c0-10.5-8.5-19-19-19h-5.5c-10.5 0-19 8.5-19 19v9.4 58.6h-3.8c-.9 0-1.7.7-1.7 1.7v6.1c0 .9.7 1.7 1.7 1.7h50.9c.9 0 1.7-.7 1.7-1.7v-6.1c-.1-.9-.8-1.7-1.7-1.7zm-1.7 6.2h-47.5v-2.8h3.6 40.3 3.6zm-42.2-74.2c0-8.6 7-15.7 15.7-15.7h5.5c8.7 0 15.7 7 15.7 15.7v7.7h-36.9zm0 11.1h36.9v56.9h-36.9z" fill="#4fc1ea"/><path d="m78.8 373h36.9v56.9h-36.9z" fill="#fff"/><path d="m78.6 249h36.9v56.9h-36.9z" fill="#fff"/><path d="m83.5 150.6v-12.2-12.2-8.2-8.3c0-4.3-3.5-7.7-7.7-7.7s-7.7 3.5-7.7 7.7v92.9h15.4z" fill="#fff"/><path d="m77.2 433.2h-3.7v2.9h47.6v-2.9h-3.7z" fill="#fff"/><path d="m77 309.3h-3.7v2.8h47.6v-2.8h-3.7z" fill="#fff"/><path d="m122.7 429.9h-3.6v-58.6-9.4c0-10.5-8.5-19-19-19h-5.5c-10.5 0-19 8.5-19 19v9.4 58.6h-3.6c-.9 0-1.7.7-1.7 1.7v6.1c0 .9.7 1.7 1.7 1.7h50.9c.9 0 1.7-.7 1.7-1.7v-6.1c-.2-.9-1-1.7-1.9-1.7zm-1.6 6.2h-47.6v-2.8h3.6 40.3 3.6v2.8zm-42.3-74.2c0-8.7 7-15.7 15.7-15.7h5.5c8.7 0 15.7 7 15.7 15.7v7.7h-36.9zm0 11.1h36.9v56.9h-36.9z" fill="#4fc1ea"/><path d="m122.5 305.9h-3.6v-58.6-9.4c0-10.5-8.5-19-19-19h-5.5c-10.5 0-19 8.5-19 19v9.4 58.6h-3.6c-.9 0-1.7.7-1.7 1.7v6.1c0 .9.7 1.7 1.7 1.7h50.8c.9 0 1.7-.7 1.7-1.7v-6.1c-.1-.9-.9-1.7-1.8-1.7zm-1.6 6.2h-47.6v-2.8h3.7 40.2 3.6v2.8zm-42.3-74.2c0-8.6 7-15.7 15.7-15.7h5.5c8.7 0 15.7 7 15.7 15.7v7.7h-36.9zm0 11.1h36.9v56.9h-36.9z" fill="#4fc1ea"/><path d="m202.9 205.9h-99.1-18.6-17.1v107.9 13.7h172.7v-13.7-107.9h-17.1zm-80.4 109.5h-50.8c-.9 0-1.7-.7-1.7-1.7v-6.1c0-.9.7-1.7 1.7-1.7h3.6v-58.6-9.4c0-10.5 8.5-19 19-19h5.5c10.5 0 19 8.5 19 19v9.4 58.6h3.6c.9 0 1.7.7 1.7 1.7v6.1c.1 1-.7 1.7-1.6 1.7zm57.4 0h-50.9c-.9 0-1.7-.7-1.7-1.7v-6.1c0-.9.7-1.7 1.7-1.7h3.6v-58.6-9.4c0-10.5 8.5-19 19-19h5.5c10.5 0 19 8.5 19 19v9.4 58.6h3.6c.9 0 1.7.7 1.7 1.7v6.1c.1 1-.6 1.7-1.5 1.7zm53.3-77.5v9.4 58.6h3.6c.9 0 1.7.7 1.7 1.7v6.1c0 .9-.7 1.7-1.7 1.7h-50.8c-.9 0-1.7-.7-1.7-1.7v-6.1c0-.9.7-1.7 1.7-1.7h3.6v-58.6-9.4c0-10.5 8.5-19 19-19h5.5c10.5 0 19.1 8.6 19.1 19z" fill="none"/><path d="m419.5 389.4-1.8-7.5c-.2-.7-.3-1.5-.5-2.3l-.3-1.3c-.3-1.2-.5-2.4-.8-3.7l-.3-1.6c-.2-1-.4-2-.6-3l-2.1-10.5c-.2-.9-.3-1.8-.5-2.7-.3-1.4-.5-2.8-.7-4-.2-1.3-.4-2.5-.5-3.6-.2-1.8-.4-3.6-.6-5.5-.1-1.4-.1-2.1-.1-2.1-.2-8.3-6.9-14.9-15.1-15.1-8.6-.2-15.7 6.6-15.9 15.1 0 0 0 .8-.1 2.1-.1 1.9-.3 3.7-.6 5.5-.1 1.1-.3 2.3-.5 3.6s-.4 2.6-.7 4.1c-.2.9-.3 1.8-.5 2.8l-2 10.4c-.2 1-.4 2-.6 3l-.3 1.6c-.3 1.3-.5 2.5-.8 3.7l-.3 1.3c-.2.8-.4 1.6-.5 2.4l-1.8 7.5c-1 4.1-1 8.4 0 12.4 1.7 6.5 5.7 12 11.5 15.4 3.5 2.1 7.3 3.2 11.2 3.5v-5.9c-8.3-.8-14.9-7.9-14.9-16.5 0-.9.7-1.7 1.7-1.7.9 0 1.7.7 1.7 1.7 0 6.7 5.1 12.3 11.6 13.1v-22c-7.3-.8-12.9-7-12.9-14.5 0-.9.7-1.7 1.7-1.7.9 0 1.7.7 1.7 1.7 0 5.6 4.2 10.3 9.6 11.1v-22c-5.4-.8-9.6-5.5-9.6-11.2 0-.9.7-1.7 1.7-1.7.9 0 1.7.7 1.7 1.7 0 3.8 2.7 7 6.3 7.8v-17.5c0-.9.7-1.7 1.7-1.7.9 0 1.7.7 1.7 1.7v7.8c3.6-.8 6.3-4 6.3-7.8 0-.9.7-1.7 1.7-1.7.9 0 1.7.7 1.7 1.7 0 5.7-4.2 10.4-9.6 11.2v22c5.4-.8 9.6-5.5 9.6-11.1 0-.9.7-1.7 1.7-1.7s1.7.7 1.7 1.7c0 7.5-5.7 13.7-12.9 14.5v22c6.5-.8 11.6-6.4 11.6-13.1 0-.9.7-1.7 1.7-1.7.9 0 1.7.7 1.7 1.7 0 8.6-6.5 15.6-14.9 16.5v15.3c1.5-.1 3-.3 4.5-.7 12.5-3.4 20.7-17.1 17.3-30.5z" fill="#fff"/><path d="m422.7 388.6-1.8-7.4c-.2-.7-.3-1.5-.5-2.3l-.3-1.3c-.3-1.2-.5-2.4-.8-3.7l-.3-1.6c-.2-1-.4-2-.6-3l-2-10.5c-.2-.9-.3-1.8-.5-2.6-.2-1.4-.5-2.7-.7-4s-.4-2.5-.5-3.6c-.2-1.7-.4-3.5-.5-5.3-.1-1.2-.1-1.9-.1-2-.3-10.1-8.3-18.1-18.4-18.4-.2 0-.3 0-.5 0-10.2 0-18.6 8.2-18.8 18.4 0 0 0 .7-.1 2-.1 1.8-.3 3.6-.6 5.3-.1 1.1-.3 2.3-.5 3.6s-.4 2.6-.7 4c-.2.9-.3 1.8-.5 2.7l-2 10.4c-.2 1-.4 2-.6 3l-.4 1.7c-.3 1.3-.5 2.5-.8 3.7l-.3 1.3c-.2.8-.3 1.6-.5 2.3l-1.8 7.4c-1.2 4.6-1.2 9.5 0 14 3.1 12.3 13.9 20.6 25.9 21.4v22.5c0 .9.7 1.7 1.7 1.7.9 0 1.7-.7 1.7-1.7v-22.6c1.8-.1 3.6-.4 5.3-.8 7.4-1.9 13.5-6.5 17.4-13 3.9-6.6 5-14.2 3.1-21.6zm-25.9 16.7c8.3-.8 14.9-7.9 14.9-16.5 0-.9-.7-1.7-1.7-1.7-.9 0-1.7.7-1.7 1.7 0 6.7-5.1 12.3-11.6 13.1v-22c7.3-.8 12.9-7 12.9-14.5 0-.9-.7-1.7-1.7-1.7s-1.7.7-1.7 1.7c0 5.6-4.2 10.3-9.6 11.1v-22c5.4-.8 9.6-5.5 9.6-11.2 0-.9-.7-1.7-1.7-1.7-.9 0-1.7.7-1.7 1.7 0 3.8-2.7 7-6.3 7.8v-7.8c0-.9-.7-1.7-1.7-1.7-.9 0-1.7.7-1.7 1.7v17.5c-3.6-.8-6.3-4-6.3-7.8 0-.9-.7-1.7-1.7-1.7-.9 0-1.7.7-1.7 1.7 0 5.7 4.2 10.4 9.6 11.2v22c-5.4-.8-9.6-5.5-9.6-11.1 0-.9-.7-1.7-1.7-1.7-.9 0-1.7.7-1.7 1.7 0 7.5 5.7 13.7 12.9 14.5v22c-6.5-.8-11.6-6.4-11.6-13.1 0-.9-.7-1.7-1.7-1.7-.9 0-1.7.7-1.7 1.7 0 8.6 6.5 15.6 14.9 16.5v5.7c-3.9-.3-7.7-1.4-11.2-3.5-5.8-3.4-9.8-8.9-11.5-15.4-1-4-1-8.3 0-12.4l1.8-7.5c.2-.7.3-1.5.5-2.4l.3-1.3c.3-1.2.5-2.4.8-3.7l.3-1.6c.2-1 .4-2 .6-3l2-10.4c.2-.9.4-1.9.5-2.8.3-1.4.5-2.8.7-4.1s.4-2.5.5-3.6c.2-1.8.4-3.6.6-5.5.1-1.4.1-2.1.1-2.1.2-8.6 7.3-15.3 15.9-15.1 8.3.2 14.9 6.9 15.1 15.1 0 0 0 .8.1 2.1.1 1.8.3 3.7.6 5.5.1 1.1.3 2.3.5 3.6s.4 2.6.7 4c.2.9.3 1.8.5 2.7l2.1 10.5c.2 1 .4 2 .6 3l.3 1.6c.3 1.3.5 2.5.8 3.7l.3 1.3c.2.8.4 1.6.5 2.3l1.8 7.5c3.4 13.4-4.7 27.1-18.1 30.5-1.5.4-3 .6-4.5.7v-15.1z" fill="#4fc1ea"/><path d="m482 313-3.5 3.5h15.8l-3.4-3.5z" fill="#fff"/><path d="m494.5 319.8h-16.1c.8 3.7 4.1 6.6 8 6.6 4 0 7.3-2.8 8.1-6.6z" fill="#fff"/><path d="m483 309.4h6.9v.3h-6.9z" fill="#fff"/><path d="m454 441.7h-4.8v3.1h19.7v-3.1h-4.9z" fill="#fff"/><path d="m455.7 403.4h6.7v35h-6.7z" fill="#fff"/><path d="m423.7 316.5h15.8l-3.5-3.5h-8.8z" fill="#fff"/><path d="m439.7 319.8h-16.1c.8 3.7 4.1 6.6 8 6.6 4 0 7.3-2.8 8.1-6.6z" fill="#fff"/><path d="m428.1 309.4h6.9v.3h-6.9z" fill="#fff"/><path d="m499.5 317-6.3-6.3v-2.9c0-.9-.7-1.7-1.7-1.7h-3.5v-11.9c0-3.8-1.5-7.3-4.1-9.9-2.6-2.7-6.2-4.1-9.9-4.1-7.7 0-14 6.3-14 14v9.2h-2v-9.2c0-7.7-6.3-14-14-14-3.8 0-7.3 1.5-9.9 4.1-2.7 2.6-4.1 6.2-4.1 9.9v11.9h-3.5c-.9 0-1.7.7-1.7 1.7v2.9l-6.3 6.3c-.5.5-.6 1.2-.4 1.8.3.6.9 1 1.5 1h.5c.8 5.6 5.6 9.9 11.4 9.9s10.6-4.3 11.4-9.9h.5c.7 0 1.3-.4 1.5-1 .3-.6.1-1.3-.4-1.8l-6.3-6.3v-2.9c0-.9-.7-1.7-1.7-1.7h-3.5v-11.9c0-2.9 1.1-5.6 3.1-7.6s4.7-3.1 7.6-3.1c5.9 0 10.7 4.8 10.7 10.7v9.2h-2c-.9 0-1.7.7-1.7 1.7v3c0 .9.7 1.7 1.7 1.7h4.7v90.3h-3.1c-.9 0-1.7.7-1.7 1.7v36.6h-4.9c-.9 0-1.7.7-1.7 1.7v6.4c0 .9.7 1.7 1.7 1.7h23c.9 0 1.7-.7 1.7-1.7v-6.5c0-.9-.7-1.7-1.7-1.7h-4.9v-36.6c0-.9-.7-1.7-1.7-1.7h-3.3v-90.3h4.7c.9 0 1.7-.7 1.7-1.7v-3c0-.9-.7-1.7-1.7-1.7h-2v-9.2c0-5.9 4.8-10.7 10.7-10.7 2.9 0 5.6 1.1 7.6 3.1s3.1 4.7 3.1 7.6v11.9h-3.5c-.9 0-1.7.7-1.7 1.7v2.9l-6.3 6.3c-.5.5-.6 1.2-.4 1.8.3.6.9 1 1.5 1h.5c.8 5.6 5.6 9.9 11.4 9.9s10.6-4.3 11.4-9.9h.5c.7 0 1.3-.4 1.5-1 .6-.5.5-1.2 0-1.7zm-75.9 2.8h16.1c-.8 3.7-4.1 6.6-8.1 6.6s-7.3-2.8-8-6.6zm11.5-10.4v.3h-6.9v-.3zm4.4 7.1h-15.8l3.5-3.5h8.9zm29.4 128.3h-19.7v-3.1h4.9 10 4.9v3.1zm-6.5-41.4v35h-6.7v-35zm16-83.6h16.1c-.8 3.7-4.1 6.6-8.1 6.6-3.9 0-7.3-2.8-8-6.6zm.1-3.3 3.5-3.5h8.9l3.5 3.5zm11.4-7.1v.3h-6.9v-.3z" fill="#4fc1ea"/><path d="m430 51.8c-11 0-21 5.1-27.6 13.9-.3.4-.7.6-1.2.7-.5 0-.9-.1-1.3-.4-4.9-4.2-11.1-6.5-17.5-6.5-14.7 0-26.7 12-26.7 26.7 0 4.7 3.9 8.6 8.6 8.6h91.3c4.7 0 8.6-3.9 8.6-8.6.1-19-15.3-34.4-34.2-34.4z" fill="#fff"/><path d="m430 48.5c-11.3 0-22 5.1-29.2 13.8-5.2-4-11.7-6.2-18.3-6.2-16.6 0-30 13.5-30 30 0 6.6 5.3 11.9 11.9 11.9h91.3c6.6 0 11.9-5.3 11.9-11.9 0-20.7-16.9-37.6-37.6-37.6zm25.7 46.2h-91.3c-4.7 0-8.6-3.9-8.6-8.6 0-14.7 12-26.7 26.7-26.7 6.4 0 12.6 2.3 17.5 6.5.3.3.8.4 1.3.4.5-.1.9-.3 1.2-.7 6.5-8.7 16.5-13.8 27.5-13.8 18.9 0 34.3 15.4 34.3 34.3 0 4.8-3.9 8.6-8.6 8.6z" fill="#4fc1ea"/></svg>