<svg height="11" viewBox="0 0 73 11" width="73" xmlns="http://www.w3.org/2000/svg" xmlns:xlink="http://www.w3.org/1999/xlink"><linearGradient id="a" x1="8.923%" x2="91.871%" y1="50%" y2="50%"><stop offset="0" stop-color="#7cb7ff"/><stop offset="1" stop-color="#ba6df6"/></linearGradient><g fill="none"><path d="m15.5005754 2.32480341h1.3725v4.0875h2.2275v1.17h-3.6zm3.765 0h4.5075v1.1325h-1.575v4.125h-1.3725v-4.125h-1.56zm7.5675-.0375c1.6275 0 2.8425 1.14 2.8425 2.6625 0 1.5375-1.215 2.6925-2.8425 2.6925s-2.8425-1.155-2.8425-2.6925c0-1.53 1.215-2.6625 2.8425-2.6625zm.015 1.17c-.7875 0-1.4475.645-1.4475 1.5s.6675 1.515 1.4475 1.515c.7875 0 1.4175-.66 1.4175-1.515s-.63-1.5-1.4175-1.5zm5.76-1.1325h1.2075l2.385 3.165v-3.165h1.275v5.2575h-1.2l-2.385-3.15v3.15h-1.2825zm5.895 0h4.1475v1.095h-2.775v.9825h2.505v1.0875l-2.505.0075v.99h2.85v1.095h-4.2225zm4.605 0h4.5075v1.1325h-1.575v4.125h-1.3725v-4.125h-1.56zm4.5375 0h1.4775l.9975 3.8025.99-3.8025h1.3425l.9975 3.8025.99-3.8025h1.41l-1.7325 5.2575h-1.4175l-.945-3.5475-.975 3.5475h-1.41zm11.1675-.0375c1.6275 0 2.8425 1.14 2.8425 2.6625 0 1.5375-1.215 2.6925-2.8425 2.6925s-2.8425-1.155-2.8425-2.6925c0-1.53 1.215-2.6625 2.8425-2.6625zm.015 1.17c-.7875 0-1.4475.645-1.4475 1.5s.6675 1.515 1.4475 1.515c.7875 0 1.4175-.66 1.4175-1.515s-.63-1.5-1.4175-1.5zm8.22 4.125h-1.5525l-.765-1.455h-1.02v1.455h-1.3725v-5.2575h2.3625c1.395 0 2.19.675 2.19 1.845 0 .795-.33 1.38-.9375 1.695zm-3.3375-4.1625v1.6125h.9975c.555 0 .8775-.285.8775-.8175 0-.5175-.3225-.795-.8775-.795zm9.1125 4.1625h-1.6425l-1.365-2.0325-.675.75v1.2825h-1.3725v-5.2575h1.3725v2.205l1.9725-2.205h1.59l-1.95 2.175z" fill="#17054b"/><path d="m7.1213272.09627925-1.12796318 1.12800153.22834676.22834676c.12838512.12838512.33670886.1283084.46501726 0l1.12800153-1.12800153-.22834675-.22834676c-.06421174-.06421174-.14836978-.09627925-.23252781-.09627925-.0841964 0-.16831608.03210587-.23252781.09627925zm-2.85327964 0-.22838511.22834676 1.12803989 1.12800153c.1283084.1283084.33659379.12838512.46501726 0l.22834676-.22834676-1.12800153-1.12800153c-.06417338-.06417338-.14833142-.09627925-.23252781-.09627925-.08415804 0-.16831608.03206751-.23248946.09627925zm3.91549674 1.47579593-2.13137706 2.13137706.4315305.43149214c.24253931.24253932.63617184.2424626.87863444 0l2.13137706-2.13137706-.43153049-.43149214c-.12128884-.12128884-.28032221-.1818949-.43931722-.1818949-.15903338 0-.3181051.06064442-.43931723.1818949zm-5.39129267 0-.43153049.43149214 2.13137706 2.13137706c.24242424.2424626.63609513.24253932.87863444 0l.43149214-.43149214-2.1313387-2.13137706c-.12121213-.12125048-.28028386-.18185654-.43931723-.1818949-.15903337 0-.31802838.06060606-.43931722.1818949zm2.90245493-.0491753-.22838512.22838512.46087457.46087457.46087457-.46087457-.22834676-.22838512c-.06417338-.06417337-.14833141-.09627924-.23252781-.09627924-.08415804 0-.16831607.03210587-.23248945.09627924zm3.98231684 2.12431915-3.54215574 3.54211737.71714615.71710779c.40314538.40314538 1.05730725.40295359 1.46026084 0l3.54211735-3.54211738-.7171078-.71710778c-.2015727-.20157269-.4658228-.30230151-.7301112-.30230151-.2642885 0-.52865363.10080553-.7301496.30230151zm-8.95991561 0-.71710779.71710778 3.54215573 3.54211738c.40291523.40295359 1.05711546.40314538 1.46022248 0l.71714615-.71710779-3.54215574-3.54211737c-.20149597-.20149598-.46586114-.30230151-.73014959-.30230151-.26428846 0-.52853855.10072882-.73011124.30230151zm4.770771.62048331-.43149214.43149214.87080936.87084771.87080936-.87084771-.43145378-.43149214c-.12125048-.12121212-.28032221-.18185656-.43935558-.18185656-.15903337-.00003834-.31802838.06060608-.43931722.18185656zm-.29079402 3.85945531-.71710778.71714615 1.44721902 1.4471807 1.44721903-1.4471807-.71706943-.71714615c-.20149597-.20149597-.46586115-.30226315-.7301496-.30226315-.26428845-.00003834-.52853855.10069046-.73011124.30226315z" fill="url(#a)"/></g></svg>