<svg height="1089" viewBox="0 0 2504 1089" width="2504" xmlns="http://www.w3.org/2000/svg"><path d="m1479.54 577.915c0-1.23 18.99-15.018 42.22-30.634 59.01-39.676 116.26-88.654 176.99-151.404 64.17-66.3 87.05-94.286 87.05-106.458 0-19.744-120.59-146.657-197.97-208.342-24.65-19.649-59.54-45.274-77.53-56.939l-32.71-21.195 104.89-1.275 104.89-1.268 36.23 29.536c81.74 66.637 150.85 141.324 202.32 218.662 30.41 45.71 30.97 40.503-10.55 98.31-56.87 79.159-126.5 151.742-202.22 210.81l-28.65 22.35-102.48.039426c-56.36.023574-102.48-.969426-102.48-2.192426zm-164.3-184.004c61.53-43.264 76.18-115.749 35.36-174.982-27.22-39.503-83.69-61.278-127.95-49.339-91.83 24.775-125.2 133.243-62.12 201.949 44.57 41.862 112 52.069 154.71 22.36zm-111.01 181.544c-65.4-11.804-109.67-35.484-158.89-84.997-103.331-103.942-112.199-260.196-21.53-379.15 37.84-49.631 89.89-83.323 157.3-101.822 68.95-18.918 153.72-6.275 217.81 32.482 59.27 35.831 102.43 89.474 126.56 157.293 10.49 29.504 12.3 42.481 12.39331 88.748.08669 47.118-1.59331 59.1-12.93331 91.884-22.68 65.625-71.36 126.837-126.63 159.219-52.14 30.568-137.53 46.549-194.08 36.343zm-426.905-26.737c-73.829-58.125-156.625-148.593-209.652-229.086-17.678-26.836-17.846-27.516-10.581-42.757 25.011-52.431 147.232-189.08 223.352-249.7l33.629-26.775 104.324 1.268 104.313 1.267-36.626 24.534c-56.782 38.024-112.12 83.939-166.321 138.031-60.887 60.762-103.547 111.887-103.547 124.075 0 13.094 42.011 62.515 109.193 128.457 61.404 60.261 107.582 98.636 163.195 135.598 18.636 12.392 33.876 23.422 33.876 24.529 0 1.085-46.174 1.988-102.605 1.988h-102.616zm1569.205 401.315v-134.296h25.91c24.5 0 25.91.642 25.91 11.78 0 11.932 6.43 15.735 11.82 7.004 7.21-11.649 40.64-23.491 66.33-23.491h26.7l-2.95 14.722c-1.62 8.089-2.94 19.761-2.94 25.918 0 10.147-2.01 11.185-21.52 11.185-24.86 0-36.14 4.927-57.41 25.057l-15.31 14.484v181.914h-56.54zm-1230.9 8.365c-27.81-69.386-51.9-129.874-53.51-134.412-2.59-7.257.39-8.249 25.01-8.249h27.96l34.73 87.467c19.11 48.113 35.93 88.21 37.39 89.119 1.46.903 18.54-38.525 37.94-87.62l35.29-89.272 20.48 1.329 20.5 1.346 35.14 87.047c19.34 47.874 35.83 87.736 36.67 88.56.83.84 17.44-38.349 36.92-87.048l35.41-88.575 28.76-1.398c15.83-.772 28.77-.642 28.77.275 0 .916-24.11 60.921-53.58 133.341l-53.59 131.652h-40.75l-33.83-84.533c-18.61-46.493-35.67-87.378-37.95-90.861-2.81-4.316-15.55 22.504-40.16 84.535l-36.05 90.859-20.5 1.3-20.48 1.3zm-365.313-77.866 1.233-203.798h51.824l2.465 407.576h-56.741zm-750.317 3.529v-200.251h41.454l71.823 114.257c39.509 62.847 82.438 120.416 82.438 120.416s15.966-18.075 75.899-113.082l75.218-119.24 22.131-1.436 22.127-1.437v401.482l-29.453-1.4-29.457-1.41-4.705-258.874-112.403 176.419h-39.772l-116.403-181.399-2.501 266.204h-56.396zm2238.15 23.925c0-9.593-22.35-34.834-38.02-42.946-30.05-15.531-72.46-3.606-92.73 26.086-5.84 8.55-10.6 17.335-10.6 19.549 0 2.201 31.79 4.003 70.67 4.003 58 0 70.68-1.192 70.68-6.692zm-103.7 176.634c-37.63-11.43-66.49-37.37-84.23-75.67-23.59-50.926-13-120.152 24.43-159.633 34.38-36.223 102.29-49.836 147.11-29.47 40.16 18.242 71.04 65.207 76.29 116.031l2.67 25.935h-209.82l2.99 14.911c7 34.956 46.43 64.976 85.36 64.976 20.73 0 52.9-12.74 63.01-24.95 9.34-11.29 15.7-9.78 32.68 7.73l15.08 15.56-15.72 15.21c-22.3 21.62-57.63 33.88-96.27 33.38-17.47-.22-37.07-2.02-43.56-4.01zm-214.44-2.05c-19.44-8.61-43.13-36.68-49.11-58.19-2.72-9.8-4.95-50.147-4.96-89.663l-.02-71.862h-37.7v-47.118h37.7v-75.383h56.53v75.383h84.82v47.118h-84.82v75.613c0 73.972.25 75.842 11.57 87.162 9.48 9.49 16.25 11.57 37.61 11.57 28.27 0 29.89 1.78 32.28 35.34l1 14.14-35.34 1.09c-21.56.65-40.89-1.36-49.56-5.2zm-234.14-54.3c32.62-16.64 34.46-21.13 32.95-80.636l-1.33-53.138-17.63-14.256c-13.45-10.861-23.71-14.742-43.36-16.377-14.16-1.175-31.1-.786-37.66.856-16.71 4.185-45.27 30.434-52.83 48.562-13.42 32.108-3.84 79.882 20.23 100.949 27.39 23.99 68.74 29.82 99.63 14.04zm-90.89 55.21c-54.07-20.17-91.35-75.47-91.77244-136.137-.32756-48.262 32.87244-102.516 75.83244-123.921 34.96-17.433 87.02-17.692 119.16-.612 26.65 14.178 26.36 14.149 26.36 2.352 0-8.279 3.14-9.425 25.9-9.425h25.92v268.573h-25.92c-22.78 0-25.91-1.14-25.91-9.42 0-11.71-.06-11.71-24.59 1.16-23.2 12.16-81.28 16.27-104.98 7.43zm-650.239-2.28c-19.378-10.21-34.781-24.82-43.918-41.64-6.004-11.07-8.052-31.77-9.433-95.425l-1.774-81.265h-36.759v-47.133h37.687v-75.383h56.55v75.383h84.816v47.118h-84.816v75.613c0 73.972.248 75.842 11.565 87.162 9.434 9.44 16.267 11.57 37.126 11.57h25.575l5.4 21.45c2.97 11.79 4.16 23.46 2.64 25.91-4.62 7.48-68.942 4.93-84.659-3.36zm-303.937999-170.05c-.051001-9.245-20.360001-35.231-34.102001-43.604-17.108-10.428-50.084-12.468-66.319-4.095-15.42 7.928-31.565 23.726-39.132 38.287l-6.745 12.955h73.159c40.235 0 73.146-1.587 73.139001-3.543zm-110.707001 172.42c-39.488-14.7-76.251-53.86-87.029-92.652-12.495-44.994-.634-103.496 28.015-138.239 42.639-51.686 135.909-56.484 185.487-9.571 21.031 19.9 37.035 55.85 39.711 89.164l2.368 29.541h-209.247l3.202 10.594c7.929 26.287 19.159 43.003 36.698 54.613 15.813 10.47 24.205 12.54 50.717 12.54 28.325 0 34.138-1.69 53.791-15.53l22.034-15.53 16.046 12.22c8.827 6.74 16.047 14.95 16.047 18.25 0 8.54-17.689 23.65-42.407 36.24-24.493 12.46-91.389 17.32-115.445 8.36z" fill="#00abbf" fill-rule="evenodd"/></svg>