<svg viewBox="0 0 116.7 12.19" xmlns="http://www.w3.org/2000/svg"><path d="m51.05 12.03h2.79v-7.12h.02l4.51 7.12h2.87v-11.86h-2.79v7.29l-4.61-7.29h-2.79z"/><g fill="#fc0"><path d="m0 .17v2.49h3.14v9.37h2.77v-9.37h3.14v-2.49z"/><path d="m26.41 18.31c0-.74-.55-1.25-1.76-1.25h-1.6v2.5h1.6c1 0 1.76-.42 1.76-1.25m-3.36-3.44h1.32c.84 0 1.5-.39 1.5-1.14s-.48-1.13-1.6-1.13h-1.22zm6.26 3.82c0 1.91-1.25 3.31-3.79 3.31h-5.21v-11.86h4.48c2.64 0 3.91 1.07 3.91 2.89a2.69 2.69 0 0 1 -1.7 2.62 2.88 2.88 0 0 1 2.33 3" transform="translate(-10.28 -9.97)"/><path d="m32.21.17-2 7.28h-.03l-1.81-7.28h-2.94l-1.83 7.28h-.04l-2-7.28h-2.98l3.71 11.86h2.56l2.07-7.81h.02l1.98 7.81h2.56l3.71-11.86z"/><path d="m48.87 13.51 1.3 4h-2.58zm-1.31-3.37-4.35 11.86h2.93l.68-2.12h4.18l.7 2.12h2.9l-4.37-11.86z" transform="translate(-10.28 -9.97)"/></g><path d="m42.94.17 4.38 11.86h2.49l-4.38-11.86z"/><path d="m120.9 19.56a3 3 0 0 1 -1.66-.47 3.16 3.16 0 0 1 -1.14-1.26 3.8 3.8 0 0 1 -.41-1.76 3.91 3.91 0 0 1 .41-1.77 3.16 3.16 0 0 1 1.14-1.3 3.05 3.05 0 0 1 1.66-.46 3 3 0 0 1 1.63.46 3.18 3.18 0 0 1 1.13 1.25 4 4 0 0 1 0 3.55 3.07 3.07 0 0 1 -1.13 1.26 3 3 0 0 1 -1.63.46m0 2.61a6.41 6.41 0 0 0 3.1-.73 5.47 5.47 0 0 0 2.16-2.16 6.34 6.34 0 0 0 .78-3.17 6.34 6.34 0 0 0 -.78-3.17 5.47 5.47 0 0 0 -2.16-2.16 6.83 6.83 0 0 0 -6.32 0 5.56 5.56 0 0 0 -2.17 2.16 6.45 6.45 0 0 0 -.76 3.16 6.34 6.34 0 0 0 .77 3.15 5.56 5.56 0 0 0 2.16 2.17 6.4 6.4 0 0 0 3.18.78m-15.29-.16h2.79v-3.42l.87-1.06 2.83 4.48h3.45l-4.43-6.73 4.26-5.13h-3.53l-3.42 4.54v-4.54h-2.79zm-7.18-2.44a2.94 2.94 0 0 1 -1.65-.47 3.25 3.25 0 0 1 -1.15-1.26 3.8 3.8 0 0 1 -.4-1.76 3.9 3.9 0 0 1 .4-1.77 3.25 3.25 0 0 1 1.15-1.3 3 3 0 0 1 1.65-.46 3 3 0 0 1 1.61.46 3.2 3.2 0 0 1 1.14 1.25 4 4 0 0 1 0 3.55 3.1 3.1 0 0 1 -1.14 1.3 3 3 0 0 1 -1.63.46m0 2.61a6.38 6.38 0 0 0 3.14-.77 5.35 5.35 0 0 0 2.16-2.16 6.34 6.34 0 0 0 .78-3.17 6.34 6.34 0 0 0 -.78-3.17 5.35 5.35 0 0 0 -2.16-2.16 6.83 6.83 0 0 0 -6.32 0 5.47 5.47 0 0 0 -2.16 2.16 6.46 6.46 0 0 0 -.77 3.16 6.34 6.34 0 0 0 .78 3.15 5.43 5.43 0 0 0 2.16 2.17 6.34 6.34 0 0 0 3.17.78m-13-2.61v-2.5h1.63a2.09 2.09 0 0 1 1.31.34 1.09 1.09 0 0 1 .45.91 1.06 1.06 0 0 1 -.48.93 2.29 2.29 0 0 1 -1.28.32zm0-4.69v-2.26h1.23a1.91 1.91 0 0 1 1.2.31 1 1 0 0 1 0 1.66 1.86 1.86 0 0 1 -1.08.3zm-2.73 7.14h5.21a4 4 0 0 0 2.82-.91 3.14 3.14 0 0 0 1-2.4 3.1 3.1 0 0 0 -.58-1.91 3.13 3.13 0 0 0 -1.75-1.09 2.57 2.57 0 0 0 1.31-1.07 3 3 0 0 0 .35-1.62 2.55 2.55 0 0 0 -1-2.14 4.77 4.77 0 0 0 -2.93-.75h-4.43zm-9.48 0h8.09v-2.49h-5.35v-2.15h3.94v-2.46h-3.94v-2.27h5v-2.49h-7.74z" transform="translate(-10.28 -9.97)"/></svg>