<svg enable-background="new 0 0 200 200" viewBox="0 0 200 200" xmlns="http://www.w3.org/2000/svg"><g fill="#4fc1ea"><path d="m76.1 72.9v46.2c0 4.1 3.3 7.4 7.4 7.4h32.9c4.1 0 7.4-3.3 7.4-7.4v-34c0-2-.8-3.9-2.2-5.3l-12.2-12.2c-1.4-1.4-3.3-2.2-5.3-2.2h-20.5c-4.1.1-7.5 3.4-7.5 7.5zm30.7-2.5 12.2 12.2c.7.7 1 1.6 1 2.5v34c0 2-1.6 3.6-3.6 3.6h-32.8c-2 0-3.6-1.6-3.6-3.6v-46.2c0-2 1.6-3.6 3.6-3.6h20.7c.9 0 1.8.4 2.5 1.1z"/><path d="m88.9 80.8h22.2v3.9h-22.2z"/><path d="m88.9 94.1h22.2v3.9h-22.2z"/><path d="m88.9 107.3h22.2v3.9h-22.2z"/></g><g fill="#585763" opacity=".3"><path d="m114.5 56.6c13.3 4.9 23.4 16.3 26.5 30.3l3.8-.8c-3.5-15.7-15.1-28.5-30.2-33.5v-2.3c0-1.9-2.1-3.1-3.7-2.1l-5.1 2.9c-1.6.9-1.6 3.3 0 4.3l5.1 2.9c1.5.7 3.3-.2 3.6-1.7z"/><path d="m59.2 90.4 2.9-5.1c.9-1.5-.1-3.3-1.7-3.7 5-13.3 16.4-23.5 30.5-26.6l-.9-3.8c-15.8 3.5-28.6 15.2-33.6 30.4h-2.3c-1.9 0-3.1 2.1-2.1 3.7l2.9 5.1c1 1.6 3.4 1.6 4.3 0z"/><path d="m96.8 136.8-5.1-2.9c-1.6-.9-3.7.2-3.7 2.1v.3c-14.5-4.3-25.7-16.3-29-31.2l-3.8.8c3.7 16.6 16.5 29.9 32.8 34.3v1.6c0 1.9 2.1 3.1 3.7 2.1l5.1-2.9c1.7-.9 1.7-3.3 0-4.2z"/><path d="m148 106.9-2.9-5.1c-1-1.6-3.3-1.6-4.3 0l-2.9 5.1c-.9 1.5 0 3.3 1.6 3.6-4.9 13.3-16.3 23.4-30.3 26.5l.8 3.8c15.7-3.5 28.5-15.1 33.5-30.2h2.3c2 0 3.1-2.1 2.2-3.7z"/></g></svg>