<svg enable-background="new 0 0 200 200" viewBox="0 0 200 200" xmlns="http://www.w3.org/2000/svg"><path d="m68.1 129.4h59c4.8 0 8.8-3.9 8.8-8.8v-33.8c0-4.8-3.9-8.8-8.8-8.8h-59c-4.8 0-8.8 3.9-8.8 8.8v33.8c0 4.9 4 8.8 8.8 8.8zm-4.7-42.6c0-2.6 2.1-4.7 4.7-4.7h59c2.6 0 4.7 2.1 4.7 4.7v33.8c0 2.6-2.1 4.7-4.7 4.7h-59c-2.6 0-4.7-2.1-4.7-4.7z" fill="#4fc1ea"/><path d="m135.8 131.7h-76.3c-3.3 0-6 2.7-6 6v1.4c0 3.3 2.7 6 6 6h76.4c3.3 0 6-2.7 6-6v-1.4c-.1-3.3-2.8-6-6.1-6zm2 7.4c0 1.1-.9 1.9-1.9 1.9h-76.4c-1.1 0-1.9-.9-1.9-1.9v-1.4c0-1.1.9-1.9 1.9-1.9h76.4c1.1 0 1.9.9 1.9 1.9z" fill="#4fc1ea"/><path d="m121.3 39c-20.6 0-37.3 16.8-37.3 37.4v1.6h43.2c.9 0 1.8.1 2.6.4h7.6c-.1 4.1-.6 8-1.4 11.6v12.3c.8-1.5 1.5-3.1 2.1-4.8 3.4-.4 6.9-1 10.3-1.7-3.2 4.4-7.5 8-12.4 10.4v4.5c13.4-5.7 22.8-19 22.8-34.4-.1-20.5-16.8-37.3-37.5-37.3zm-20.1 35.4h-13.1c.3-4.5 1.4-8.8 3.3-12.6 3.9-.9 7.9-1.7 11.8-2.2-1.1 4.4-1.8 9.4-2 14.8zm-6.8-17.4c3.9-5.4 9.5-9.7 15.9-11.9-2.2 2.7-4.1 6.2-5.6 10.2-3.5.4-6.9.9-10.3 1.7zm24.9 17.4h-14c.2-5.6 1-10.8 2.4-15.4 3.8-.4 7.7-.6 11.6-.7zm0-20.2c-3.4.1-6.7.2-10.1.5 2.5-6 6.1-10.2 10.1-11.3zm4.1-10.8c4 1.1 7.5 5.3 10.1 11.3-3.3-.3-6.7-.5-10.1-.5zm0 31v-16.1c3.9.1 7.7.3 11.6.7 1.4 4.6 2.3 9.8 2.4 15.4zm14.7-19.2c-1.5-4.1-3.4-7.6-5.6-10.2 6.4 2.3 12 6.5 15.9 11.9-3.5-.7-6.9-1.2-10.3-1.7zm13.1 6.6c1.9 3.8 3.1 8.1 3.3 12.6h-13.1c-.1-5.3-.9-10.4-2.1-14.8 4.1.5 8 1.2 11.9 2.2zm0 29.3c-3.9.9-7.9 1.7-11.8 2.2 1.2-4.5 1.9-9.5 2.1-14.8h13.1c-.3 4.4-1.5 8.7-3.4 12.6z" fill="#585763" opacity=".3"/></svg>