<svg enable-background="new 0 0 200 200" viewBox="0 0 200 200" xmlns="http://www.w3.org/2000/svg"><g fill="#585763"><path d="m122.7 144.2h-45.4c-5 0-9-4.1-9-9v-76c0-5 4.1-9 9-9h45.4c5 0 9 4.1 9 9v76c0 5-4 9-9 9zm-45.4-90.4c-3 0-5.4 2.4-5.4 5.4v76c0 3 2.4 5.4 5.4 5.4h45.4c3 0 5.4-2.4 5.4-5.4v-76c0-3-2.4-5.4-5.4-5.4z" opacity=".3"/><path d="m120.7 131.4h-41.4c-3 0-5.4-2.4-5.4-5.4v-57.6c0-3 2.4-5.4 5.4-5.4h41.4c3 0 5.4 2.4 5.4 5.4v57.5c0 3-2.4 5.5-5.4 5.5zm-41.4-64.8c-1 0-1.8.8-1.8 1.8v57.5c0 1 .8 1.8 1.8 1.8h41.4c1 0 1.8-.8 1.8-1.8v-57.5c0-1-.8-1.8-1.8-1.8z" opacity=".3"/><path d="m93.5 134.4h12.9v3.6h-12.9z" opacity=".3"/></g><path d="m102.8 107.8c-1.5-1.5-4-1.5-5.6 0l-2.6-2.6c2.9-2.9 7.7-2.9 10.7 0z" fill="#4fc1ea"/><path d="m108.7 101.9c-4.8-4.8-12.6-4.8-17.4 0l-2.6-2.6c6.2-6.2 16.3-6.2 22.5 0z" fill="#4fc1ea"/><path d="m85.2 95.8-2.6-2.6c9.6-9.6 25.2-9.6 34.8 0l-2.6 2.6c-8.1-8.2-21.5-8.2-29.6 0z" fill="#4fc1ea"/></svg>