<svg height="809" viewBox="0 0 1099 809" width="1099" xmlns="http://www.w3.org/2000/svg"><g fill="none"><g transform="matrix(.90630779 .42261826 -.42261826 .90630779 778.596738 97.996064)"><path d="m304 139.095277v68.299775c-.003513 1.313722-1.068933 2.377833-2.384273 2.381341h-1.696989v355.797318c-.00115 20.502551-16.641951 37.123963-37.169749 37.123963h-222.5911271c-9.8567717 0-19.3094149-3.912832-26.2782345-10.875019-6.96881965-6.962188-10.88289865-16.404295-10.88109258-26.248944v-343.318675h-1.22857753c-.92804709.001386-1.68233197-.747321-1.6866912-1.674218v-38.870974c-.0000801-.446812.17759863-.875348.49393195-1.191292.31633333-.315944.74539638-.493404 1.19275925-.493324h1.22857753v-14.641609h-1.23902044c-.97428548-.003743-1.75951438-.794715-1.75951438-1.767807v-38.340632c0-.969541.78877927-1.754906 1.75951438-1.757409h1.23898921v-19.986627h-1.25981256c-.41437161.000553-.81193085-.163608-1.10493609-.456253s-.45736862-.689715-.45681502-1.103577v-20.9225257c-.0019547-.8639646.69672874-1.5664409 1.56175111-1.5702292h1.25981256v-42.3649941c.00078197-20.4969568 16.63713141-37.113565 37.15932711-37.113565h222.5911163c20.52423 0 37.164052 16.6145772 37.16975 37.113565v99.600371h1.69703c1.315352.00348 2.380789 1.067607 2.384273 2.381341z" fill="#3f3d56"/><rect fill="#e6e8ec" height="8.837209" rx="2.54189" width="41.534884" x="123.72093" y="18.55814"/><circle cx="176.302326" cy="23.418605" fill="#e6e8ec" r="4.860465"/><path d="m281.906977 44.7458641v523.8209629c.006733 6.893431-3.019121 13.441084-8.274142 17.904412-4.259387 3.629291-9.67309 5.621784-15.269721 5.621784h-212.7262388c-3.7849371.005756-7.5151666-.90334-10.8727899-2.649839-.7888061-.403817-1.5524722-.854935-2.2868201-1.350884-6.4921898-4.37887-10.3842419-11.696238-10.3842419-19.525473v-523.8209629c0-6.2423684 2.4801416-12.2291449 6.8955301-16.6431659 4.4153885-4.4140211 10.4040195-6.8933959 16.6483218-6.8933959h31.838772v4.0838283c.0000861 10.7032393 8.6794422 19.3799075 19.3859972 19.3799936h108.1873776c10.70657-.0000517 19.385946-8.6767401 19.385998-19.3799936v-4.0838283h33.928094c6.244839 0 12.23449 2.4770576 16.650259 6.8914589 4.415769 4.4144014 6.893604 10.402197 6.893604 16.6451029z" fill="#7ab2eb"/><g fill="#fff"><path d="m281.906977 493.456135v75.080547c.006733 6.902264-3.019121 13.458307-8.274142 17.927354-4.259387 3.633941-9.67309 5.628987-15.269721 5.628987h-212.7262388c-3.7849371.005763-7.5151666-.904497-10.8727899-2.653234-.7888061-.404335-1.5524722-.85603-2.2868201-1.352615-6.4921898-4.384481-10.3842419-11.711225-10.3842419-19.550492v-75.049333c73.8717318-66.467321 185.9262727-66.480783 259.8139537-.031214z" opacity=".3"/><path d="m269.534884 588.553063c-3.367672 1.754383-7.116474 2.6662-10.920392 2.656239h-213.2498245c-3.794253.00567-7.5336638-.898511-10.8995512-2.635568 19.7413811-47.091484 66.1086037-77.778515 117.5279317-77.783036 51.419329-.004522 97.792036 30.674354 117.541836 77.762365z" opacity=".3"/><path d="m223.581395 590.487603c-2.038323 1.06034-4.307329 1.611439-6.609696 1.60542h-129.0722986c-2.2965175.003417-4.5598382-.543078-6.5970748-1.59296 11.9487483-28.461875 40.0131204-47.008965 71.1353384-47.011691 31.122218-.002725 59.189901 18.53945 71.143731 46.999231z" opacity=".3"/><path d="m206.617775 223.581395c-21.341435 0-44.762549-4.063018-63.046649-17.773042-25.45662-19.08797-56.8203057-18.069424-78.6480273-13.852634-14.4988896 2.824351-28.5717377 7.510831-41.8686572 13.942923l-.9614182-1.843231c13.4592749-6.51575 27.7043687-11.26516 42.3813491-14.130224 22.2566542-4.306622 54.2629696-5.33582 80.3444636 14.220565 48.859968 36.636688 136.349538 3.73162 137.226687 3.396169l.745175 1.94066c-16.406581 5.846628-33.375351 9.976564-50.634071 12.323547-8.464442 1.15453-16.996045 1.747582-25.538852 1.775267z"/><path d="m22.9767442 204.936492s71.7086511-17.308801 121.5929298 6.390049c49.884279 23.698849 138.221024-.175892 138.221024-.175892" opacity=".3"/><path d="m90.2832768 232.418605c-8.6652172-.038846-17.3070979-.901576-25.8089044-2.576536-14.6769806-2.865051-28.9220741-7.614428-42.3813491-14.130131l.9614182-1.843216c13.2969174 6.432046 27.3697661 11.118488 41.8686572 13.94281 21.8267132 4.216248 53.1908983 5.235294 78.6480273-13.852511 26.058655-19.539484 62.559344-19.484669 88.585501-15.997688 17.258719 2.346964 34.227488 6.476863 50.634071 12.323438l-.745175 1.940654c-.878157-.336467-88.365732-33.241779-137.226687 3.396142-17.10335 12.824891-36.756531 16.797038-54.5355592 16.797038z" opacity=".3"/><path d="m90.5926984 223.581395c-36.0268014 0-68.0197551-13.027429-68.4996751-13.226574l.792346-1.939242c.7120941.295907 71.8661681 29.251425 120.7680627.067584 49.747572-29.692208 138.249429-3.188367 139.137266-2.917057l-.603403 2.006815c-.878683-.268258-88.514049-26.506378-137.47435 2.714327-16.70841 9.972102-35.929376 13.294147-54.1202466 13.294147z" opacity=".3"/><path d="m22.0930233 208.428948s71.7126011 24.151146 121.6068587 0c49.894258-24.151145 138.207095-2.281998 138.207095-2.281998" opacity=".3"/><path d="m22.0930233 204.977353s71.7126011-37.675788 121.6068587 0c49.894258 37.675788 138.207095 3.559912 138.207095 3.559912" opacity=".3"/><circle cx="152.883721" cy="574.418605" r="11.488372"/></g></g><g fill="#7ab2eb"><path d="m12.85 430.95c17.36 74.2 54.11 138.34 112.19 169.43 120.7 64.61 392.91 31.29 596.07-7 102.657106-19.282302 195.838151-72.551257 264.54-151.23z" opacity=".1"/><path d="m1078.2 81.71h-111.47c-5.321264 0-9.635-4.3137364-9.635-9.635s4.313736-9.635 9.635-9.635h19.27c-5.321264 0-9.635-4.3137364-9.635-9.635s4.313736-9.635 9.635-9.635h-13.76c-5.321264 0-9.635-4.3137364-9.635-9.635s4.313736-9.635 9.635-9.635h58.18c-12.91-6-28-10.27-45.38-12.51-158.64-20.38-215.28-6.9-235.26 7-24.65 17.1-52.15 29.68-81.54 35.74-97.88 20.19-280.93 44.49-446.84-7.78-82.46-26-143.75 17.92-180.48 91.28h1056.63c-1.38-21.32-5.51-41-13.09-58.24-1.74099 1.4989114-3.96266 2.3222759-6.26 2.32z" opacity=".1"/><path d="m3.39 276.1c-4.2819026 43.151471-2.82927001 86.68001 4.32 129.45l978.68 35.79c27.24337-31.338974 50.11783-66.222536 68-103.7zm387.08 92.35h-19.27c5.321264 0 9.635 4.313736 9.635 9.635s-4.313736 9.635-9.635 9.635h-111.47c-5.321264 0-9.635-4.313736-9.635-9.635s4.313736-9.635 9.635-9.635h19.27c-5.321264 0-9.635-4.313736-9.635-9.635s4.313736-9.635 9.635-9.635h-13.76c-5.321264 0-9.635-4.313736-9.635-9.635s4.313736-9.635 9.635-9.635h111.47c5.321264 0 9.635 4.313736 9.635 9.635s-4.313736 9.635-9.635 9.635h13.76c5.321264 0 9.635 4.313736 9.635 9.635s-4.313736 9.635-9.635 9.635z" opacity=".1"/><path d="m1097.6 138.29-1068.49 26c-12.99 33.4-21.56 71.17-25.56 110.33h1075.33c7.02102-22.997692 12.21385-46.514213 15.53-70.33 3.2-23.02 4.48-45.27 3.19-66zm-877.13 85.16h-19.27c5.321264 0 9.635 4.313736 9.635 9.635s-4.313736 9.635-9.635 9.635h-111.47c-5.3212636 0-9.635-4.313736-9.635-9.635s4.3137364-9.635 9.635-9.635h19.27c-5.321264 0-9.635-4.313736-9.635-9.635s4.313736-9.635 9.635-9.635h-13.76c-5.3212636 0-9.635-4.313736-9.635-9.635s4.3137364-9.635 9.635-9.635h111.47c5.321264 0 9.635 4.313736 9.635 9.635s-4.313736 9.635-9.635 9.635h13.76c5.321264 0 9.635 4.313736 9.635 9.635s-4.313736 9.635-9.635 9.635z" opacity=".1"/><g opacity=".1" transform="translate(629 257)"><path d="m133.55 23.19c-2.89 8.33-26.35 27.26-26.35 27.26s-6.7-29.39-3.81-37.72c1.562068-5.77507383 6.21548-10.19623268 12.062899-11.46083592 5.847419-1.26460325 11.911844.83864221 15.720624 5.45217939 3.808781 4.61353723 4.725536 10.96652463 2.376477 16.46865653z"/><path d="m142.43 77.95c-7 5.42-36.94 8.56-36.94 8.56s10.35-28.32 17.3-33.74c4.455677-3.961807 10.744646-5.1174879 16.317731-2.9985983 5.573086 2.1188896 9.505717 7.1608269 10.203839 13.0821106.698121 5.9212838-1.954084 11.7395762-6.88157 15.0964877z"/><path d="m113.98 156.47c-8.74 1.17-36.2-11.26-36.2-11.26s23.23-19.22 32-20.39c5.847546-1.173298 11.862317 1.00317 15.60501 5.646732s4.592007 10.983368 2.2035 16.448298c-2.388506 5.46493-7.618332 9.147783-13.56851 9.55497z"/><path d="m79.09 211c-8.42 2.63-37.59-5-37.59-5s19.64-22.87 28.06-25.5c8.2005266-2.001071 16.5449658 2.712705 19.0639522 10.769232s-1.6540982 16.684083-9.5339522 19.710768z"/><path d="m73.26 77.17c4 7.88 29.72 23.55 29.72 23.55s2.77-30-1.19-37.9c-4.2642274-7.286634-13.4562786-10.0061158-20.9986221-6.212473-7.5423434 3.7936428-10.8391698 12.7947717-7.5313779 20.562473z"/><path d="m33.26 141.47c6.14 6.33 35.4 13.58 35.4 13.58s-6.33-29.47-12.47-35.8c-6.2484971-5.682873-15.8380476-5.530041-21.9022784.349062-6.0642308 5.879104-6.5142017 15.459311-1.0277216 21.880938z"/><path d="m2.96 209.29c5 7.28 32.6 19.37 32.6 19.37s-1.26-30.12-6.24-37.4c-5.2254828-6.544045-14.6130671-7.951623-21.52804004-3.227923-6.91497295 4.723701-9.01765184 13.980415-4.82195996 21.227923z"/></g><path d="m300.74 776.76c39.32 13.22 87.29 5.18 131.9 6.11 6.11.13 12.57.51 17.47 2.79s7.31 6 10.67 9.15c12.5 11.79 38.11 15.58 60.5 13.58s42.92-8.62 64-13.66c36.52-8.72 78.27-12.68 114.29-3.18 3.31.87 6.79 1.87 10.33 1.53 7.9-.78 10.25-7.1 15.77-10.71 10-6.52 31.63-4.75 36-13.34 2.57-5-3.34-10.2-9.77-13.64-24.62-13.16-59.84-15.33-92.06-13.3s-63.9 7.63-96.29 7.65c-40.35 0-79.34-8.59-119.3-12.11-27.68-2.44-57.89-2.14-83.84 5-28.05 7.82-34.25 25.26-59.67 34.13z" opacity=".1"/></g><path d="m366.51 185.9h7v99h-7z" fill="#535461"/><path d="m366.51 318.9h7v56h-7z" fill="#535461"/><rect fill="#535461" height="684" rx="47.1" width="315" x="371.51" y="88.9"/><rect fill="#7ab2eb" height="623" rx="47.1" width="315" x="371.51" y="120.9"/><rect fill="#eaeaf3" height="7" rx="3.5" width="52" x="503.51" y="103.9"/><circle cx="573.51" cy="107.9" fill="#eaeaf3" r="5"/><path d="m447.31 397.1v73c.050899 4.62354-1.754379 9.074396-5.011673 12.356125-3.257295 3.28173-7.694535 5.120219-12.318327 5.103983-9.64 0-19-7.810108-19-17.460108v-73c0-9.52 9.33-17.33 19-17.33 9.555159.038364 17.291636 7.774841 17.33 17.33zm6.809957 98.94c-.010607 4.949545 1.950878 9.699436 5.450743 13.1993 3.499864 3.499865 8.249755 5.46135 13.1993 5.4507h12.54l.19 38.51c0 23.25 34.79 23.07 34.79 0v-38.5h23.44v38.51c0 23.13 35 23.19 35 0v-38.51h12.73c4.930383-.015887 9.652515-1.989724 13.12757-5.487283s5.418369-8.232335 5.402527-13.162717v-113.1h-155.87014zm156.290043-119.17h-157c0-27 16.13-50.42 40.08-62.64l-12-22.25c-1.76-3.09 2.71-5 4.22-2.39l12.23 22.44c21.754605-9.517402 46.495395-9.517402 68.25 0l12.16-22.37c1.58-2.71 6-.69 4.22 2.39l-12 22.18c23.71 12.22 39.84 35.67 39.84 62.64zm-107.58-35c0-3.656125-2.963875-6.62-6.62-6.62-3.553353.138183-6.362755 3.058961-6.362755 6.615s2.809402 6.476817 6.362755 6.615c3.644441 0 6.603484-2.945596 6.62-6.59zm71.470037 0c-.05558-3.598986-3.017058-6.472118-6.616076-6.418671-3.599017.053448-6.473873 3.013253-6.422521 6.612301s3.009483 6.475627 6.60856 6.42637c3.583111-.081684 6.441825-3.015977 6.430037-6.6zm59.739963 37.879927c-4.600275-.013257-9.015978 1.808296-12.268878 5.061195-3.252899 3.2529-5.074452 7.668603-5.061264 12.268878v73c-.018458 4.613852 1.797252 9.045975 5.047551 12.320656s7.668729 5.123462 12.282591 5.139344c9.71 0 19-7.81 19-17.46v-73c-.03-9.68-9.36-17.31-19-17.31z" fill="#fff"/><g fill="#535461"><path d="m455.01 570.46h65v3h-65z"/><path d="m544.01 570.46h43v3h-43z"/><path d="m398.01 570.46h43v3h-43z"/><path d="m612.01 570.46h43v3h-43z"/></g></g></svg>