<svg height="52" viewBox="0 0 155 52" width="155" xmlns="http://www.w3.org/2000/svg"><g fill="none" transform="translate(-20 -12)"><path d="m196 0h-196v76h196z"/><g transform="translate(20 12)"><path d="m142.257411-.000169h-129.9417826c-.4736543 0-.941625 0-1.4140263.002769-.3954437.0026-.7877358.010153-1.1869771.01651-.8673365.01027234-1.73263331.08706914-2.58837084.229723-.85453556.14575942-1.68230216.42055746-2.45530332.8151-.77205577.39788022-1.47750519.91488479-2.09075625 1.532258-.61647053.6156371-1.13034632 1.32723029-1.5218675 2.107417-.39260178.77863386-.66483311 1.61301178-.80729167 2.474316-.14381295.86021638-.22120001 1.73035268-.23146667 2.6026-.01198667.39858-.0132525.798486-.01956875 1.197118v30.048538c.00631625.40365.00758208.79469.01956875 1.19847.01026981.872204.08765687 1.7422969.23146667 2.60247.14206519.8618078.41431262 1.6966646.80729167 2.47559.39134341.7776638.90529146 1.4863761 1.5218675 2.09859.61092581.6201182 1.31683122 1.1374746 2.09075625 1.53231.77299529.3955985 1.60067265.6720322 2.45530332.82004.855883.1415112 1.72109086.2183391 2.58837084.22984.3992413.00884.7915334.01391 1.1869771.01391.4723883.0026.9403979.0026 1.4140263.0026h129.9417826c.464225 0 .935942 0 1.400167-.0026.393571 0 .797216-.00507 1.190788-.01391.86564-.0108892 1.729218-.0877221 2.583333-.22984.857388-.1490497 1.688032-.4254102 2.464758-.82004.773228-.395064 1.478481-.9124062 2.088884-1.53231.614985-.6146116 1.13003-1.3228056 1.526233-2.09859.39003-.779492.659686-1.6142822.79967-2.47559.144041-.8602911.224174-1.7301905.239734-2.60247.005038-.40378.005038-.79482.005038-1.19847.010075-.47229.010075-.94198.010075-1.42194v-27.207271c0-.476073 0-.948337-.010075-1.419327 0-.398632 0-.798538-.005038-1.19717-.015558-.87232285-.09569-1.74226563-.239734-2.6026-.140374-.86080592-.410014-1.69511774-.79967-2.474316-.797314-1.5638011-2.061625-2.83672298-3.615117-3.63974-.776728-.39357841-1.607462-.66830347-2.464758-.8151-.853967-.14328238-1.717635-.22010591-2.583333-.229788-.393572-.006344-.797217-.013962-1.190788-.016497-.464225-.0026-.935942-.0026-1.400167-.0026z" fill="#a6a6a6"/><path d="m10.9079054 50.8625c-.393545 0-.7775833-.00507-1.16804126-.01391-.80886519-.0106071-1.61583987-.0814774-2.4143058-.21203-.7445292-.1290534-1.46577786-.3691162-2.13995584-.71227-.66799614-.3403105-1.2772623-.7865353-1.80445834-1.32158-.53482707-.5287421-.98009505-1.1419929-1.31815875-1.81545-.34178887-.6778342-.57832711-1.4043906-.701375-2.15436-.13288103-.8058506-.20477518-1.6206928-.2150625-2.4375-.00818916-.27417-.01891-1.18703-.01891-1.18703v-30.030728s.01141834-.898833.01897459-1.162902c.00985003-.81551336.08132611-1.62909098.21380959-2.433691.12327501-.7520239.35999637-1.48067547.70196916-2.16073.33682123-.672992.77961717-1.28670062 1.3112225-1.817335.53100782-.53567616 1.14222292-.98419865 1.81135584-1.329211.67262852-.34205132 1.39251411-.58042069 2.13553832-.707122.80108823-.13186402 1.61086441-.20315609 2.42253373-.213278l1.16549676-.015873h132.7427106l1.17942.01651c.804287.00961896 1.606707.08027501 2.400434.211367.750546.12829059 1.477934.36832319 2.158246.712205 1.340515.69529986 2.431267 1.79532984 3.119375 3.145909.336514.67535983.569584 1.39806778.6913 2.143596.134061.8112018.209091 1.63117287.224492 2.453373.003745.36816.003745.76362.003745 1.157182.010205.4875.010205.951509.010205 1.419327v27.207271c0 .47229 0 .93314-.010205 1.39776 0 .42276 0 .81003-.005037 1.20861-.015067.8075284-.088846 1.6128635-.220746 2.40955-.120526.7553795-.355777 1.487607-.6975 2.171-.340454.6661474-.783165 1.274086-1.311817 1.80141-.52767.5379201-1.138011.9867555-1.807558 1.32925-.678427.3457918-1.404745.5867423-2.1545.71474-.798406.1312493-1.605458.2021242-2.414384.21203-.378328.00884-.774483.01391-1.159141.01391l-1.400167.0026z" fill="#000"/></g><g fill="#fff"><g><g transform="translate(32.486111 23.266667)"><path d="m19.5070256 15.1242173c.0282319-2.2054121 1.1770221-4.242542 3.04389-5.397678-1.1830729-1.70053936-3.0936037-2.74006411-5.1552484-2.80498397-2.1690183-.229138-4.2717871 1.306279-5.3770791 1.306279-1.1266821 0-2.82845296-1.283529-4.66097921-1.245582-2.41112671.07840095-4.60445948 1.42466413-5.77752167 3.54623097-2.49808334 4.352946-.63473791 10.750311 1.75821667 14.268904 1.19724583 1.722955 2.5964825 3.64754 4.42735542 3.57929 1.7916192-.074789 2.46075419-1.149824 4.62339169-1.149824 2.142565 0 2.7703537 1.149824 4.638375 1.10643 1.9224908-.031408 3.1337512-1.730612 4.2889921-3.469882.8602191-1.2276683 1.5221564-2.5845092 1.9612925-4.020263-2.2833353-.9719693-3.7680201-3.2237603-3.770685-5.718921z"/><path d="m15.9786701 4.60749033c1.0482219-1.26647052 1.564641-2.8943038 1.4395884-4.537806-1.6014499.16928664-3.080741.93961358-4.1431242 2.157493-1.0490546 1.20160174-1.5805032 2.77361849-1.4772921 4.369807 1.6229234.0168178 3.163855-.71645181 4.1808279-1.989494z"/></g><g transform="translate(63.916667 34.966667)"><path d="m10.7237654 12.3148783h-6.11397499l-1.46826332 4.363385h-2.58963667l5.79105833-16.14339997h2.69054168l5.79105837 16.14339997h-2.6337988zm-5.48076124-2.013479h4.84633334l-2.38907959-7.08145097h-.06685666z"/><path d="m27.3312662 10.7939823c0 3.657524-1.9450691 6.007417-4.88033 6.007417-1.5172106.0798781-2.9463402-.7199261-3.6794803-2.0592h-.0555418v5.829694h-2.4004332v-15.66346597h2.3235275v1.957618h.0441491c.7657107-1.3308777 2.1963813-2.13033751 3.7236296-2.080767 2.9680045.000013 4.9244791 2.361333 4.9244791 6.00870397zm-2.46729 0c0-2.38289997-1.2235571-3.94951697-3.0904158-3.94951697-1.8340633 0-3.0677083 1.599611-3.0677083 3.94951697 0 2.371486 1.233645 3.95967 3.0677083 3.95967 1.8668717 0 3.0904158-1.555177 3.0904158-3.95967z"/><path d="m40.2025179 10.7939823c0 3.657524-1.9450692 6.007417-4.88033 6.007417-1.5172107.0798781-2.9463402-.7199261-3.6794804-2.0592h-.0555416v5.829694h-2.4004334v-15.66346597h2.3234759v1.957618h.0441491c.7657163-1.3308769 2.1963924-2.130332 3.7236425-2.080754 2.968095 0 4.9245179 2.36132 4.9245179 6.00869097zm-2.467277 0c0-2.38289997-1.22357-3.94951697-3.0904288-3.94951697-1.8340634 0-3.0677084 1.599611-3.0677084 3.94951697 0 2.371486 1.233645 3.95967 3.0677084 3.95967 1.8668716 0 3.0904288-1.555177 3.0904288-3.95967z"/><path d="m48.7093571 12.1803023c.1778625 1.600885 1.7230833 2.652 3.8346354 2.652 2.0232796 0 3.4789234-1.051167 3.4789234-2.494635 0-1.253031-.877933-2.0033-2.9567025-2.517476l-2.0787696-.50401c-2.9453488-.716014-4.3127072-2.10234697-4.3127072-4.35195797 0-2.785354 2.4117871-4.698538 5.8364605-4.698538 3.3893333 0 5.7128479 1.913184 5.7910583 4.698538h-2.4231666c-.1450542-1.611038-1.4682634-2.58349-3.4019788-2.58349s-3.2569116.983892-3.2569116 2.41592c0 1.141309.8451375 1.812889 2.9125532 2.327l1.7672068.436722c3.2909729.783302 4.6583312 2.11379997 4.6583312 4.47509397 0 3.020212-2.3903455 4.911816-6.1921855 4.911816-3.5571337 0-5.95882-1.84717-6.113975-4.7671z"/><path d="m63.7388546 2.12307333v2.785354h2.2238366v1.913184h-2.2238366v6.48857297c0 1.008007.4452763 1.477736 1.4228483 1.477736.2640056-.0046332.5275841-.0232925.7896346-.0559v1.901757c-.4395176.0826535-.8862502.1200868-1.3332971.111722-2.367625 0-3.2909729-.895024-3.2909729-3.177642v-6.74624597h-1.70035v-1.913184h1.7003241v-2.785354z"/><path d="m67.250625 10.7939823c0-3.70321897 2.1670679-6.03027097 5.5463521-6.03027097 3.390625 0 5.547605 2.327 5.547605 6.03027097 0 3.713385-2.1456262 6.030271-5.547605 6.030271-3.4007775 0-5.5463521-2.316899-5.5463521-6.030271zm8.6481088 0c0-2.54032997-1.1567004-4.03964597-3.1017697-4.03964597-1.9450691 0-3.1005037 1.510743-3.1005037 4.03964597 0 2.550483 1.1554346 4.038385 3.1005037 4.038385 1.9450693 0 3.1017697-1.487902 3.1017697-4.038385z"/><path d="m80.3236479 4.90842733h2.2894405v2.0033h.0555416c.3192691-1.28961507 1.4933379-2.17717297 2.8129013-2.126462.2766289-.00097209.5524938.02926397.8224302.090142v2.259764c-.349227-.10740168-.7135303-.15671332-1.0785419-.14599-.7057044-.02881392-1.3886697.25424716-1.8695694.77485977-.4808997.52061262-.7116888 1.22676419-.631769 1.9330402v6.981156h-2.4004333z"/><path d="m97.3713871 13.2213163c-.3229164 2.136615-2.3903449 3.602924-5.0354842 3.602924-3.4019794 0-5.5135444-2.294045-5.5135444-5.97441 0-3.69179197 2.1229194-6.08613197 5.4126394-6.08613197 3.23547 0 5.2701028 2.23691 5.2701028 5.80556597v.827736h-8.2596015v.14599c-.0771155.8762411.2235126 1.7435983.8254144 2.381444.601901.6378456 1.4470637.9847023 2.320505.952341 1.164879.1098495 2.2631328-.563371 2.7006421-1.655472zm-8.1145663-3.51278195h5.8465806c.0435627-.78737428-.24121-1.557331-.7857079-2.12438001-.544497-.56704899-1.2993504-.87977647-2.0826956-.86283801-.7895426-.0047421-1.5482556.30813202-2.1075024.86908022-.5592469.5609482-.8726877 1.32349059-.8706747 2.1181378z"/></g></g><g transform="translate(66.595092 22.4)"><path d="m2.78411883.98732468c1.01713231-.07646812 2.01339093.32894717 2.71456233 1.10465804.7011714.77571086 1.03334826 1.8399531.90510114 2.89980117 0 2.57467533-1.32825335 4.05464932-3.61966347 4.05464932h-2.77863531v-8.05910853zm-1.58384289 6.91937662h1.45038196c.72689528.04551959 1.43467469-.2545177 1.92681441-.81680278.49213973-.56228507.71624515-1.32695542.61009058-2.08169073.09843132-.75160322-.12890146-1.50996355-.61982095-2.06766319s-1.19405165-.85637609-1.91708404-.81433889h-1.45038196z"/><path d="m7.75343685 6.00274494c-.09954503-1.09012928.39940768-2.14513921 1.28759872-2.72256148.88819103-.57742227 2.01205473-.57742227 2.90024593 0 .888191.57742227 1.3871437 1.6324322 1.2875987 2.72256148.1014389 1.09130071-.3970584 2.14835688-1.286037 2.72702219-.8889785.57866537-2.01439095.57866537-2.90336951 0-.88897855-.57866531-1.38747584-1.63572148-1.28603684-2.72702219zm4.29701115 0c0-1.31832832-.5653137-2.08927897-1.5574008-2.08927897-.99587733 0-1.55609864.77095065-1.55609864 2.08929247 0 1.32889039.56025996 2.09389818 1.55609864 2.09389818.9921128 0 1.5574008-.77030233 1.5574008-2.09391168z"/><path d="m20.507232 9.04631168h-1.188501l-1.1998333-4.479307h-.0906457l-1.1948053 4.479307h-1.1771815l-1.6002032-6.08187947h1.1620718l1.0399432 4.64083117h.0856177l1.1935419-4.64083117h1.0991187l1.1935419 4.64083117h.0906456l1.0349023-4.64083117h1.1456987z"/><path d="m23.4470209 2.96443221h1.1028962v.96616h.0856177c.2977277-.71134928.9934315-1.14648861 1.7324007-1.08355844.5721812-.04506878 1.1328783.18489025 1.5237787.62494825.3909003.44005799.569584 1.04246046.4855997 1.63711928v3.93714282h-1.1456985v-3.63573191c0-.97737039-.4053979-1.46342857-1.2527175-1.46342857-.3881018-.01893729-.7647443.14063308-1.0311834.43687669s-.396102.69961507-.354995 1.10436279v3.55798856h-1.1456986z"/><path d="m30.2028872.59023377h1.1456986v8.45606441h-1.1456986z"/><path d="m32.9412341 6.00274494c-.0994685-1.0902006.3995628-2.14523723 1.2878198-2.72266841s2.0121784-.57743118 2.9004354 0 1.3872884 1.63246781 1.2878198 2.72266841c.1013102 1.09133979-.3972785 2.14836607-1.2863011 2.72700595-.8890227.57863984-2.01445.57863984-2.9034728 0-.8890226-.57863988-1.3876113-1.63566616-1.2863011-2.72700595zm4.2970112 0c0-1.31832832-.5653138-2.08927897-1.5574008-2.08927897-.9958774 0-1.5560987.77095065-1.5560987 2.08929247 0 1.32889039.5602599 2.09389818 1.5560987 2.09389818.9920999 0 1.5574008-.77030233 1.5574008-2.09391168z"/><path d="m39.6234468 7.32635429c0-1.09476884.7780751-1.72590026 2.1591997-1.81559688l1.5725105-.09496417v-.52495688c0-.64235532-.4053978-1.00507221-1.188501-1.00507221-.6395732 0-1.0827455.24599377-1.209915.6759865h-1.1091876c.1170877-1.04464624 1.0550529-1.71468987 2.3719739-1.71468987 1.4554229 0 2.2763004.75906493 2.2763004 2.04377558v4.15548881h-1.1028963v-.85470439h-.0906456c-.3745871.6241706-1.040725.98896332-1.7437329.95490908-.4928256.05370431-.9843374-.11350766-1.3530249-.46029799-.3686876-.34679032-.5801395-.84079155-.5820812-1.35987758zm3.7317102-.51968935v-.50846546l-1.4176484.09496416c-.7994763.05605195-1.1620718.34095792-1.1620718.87712519 0 .54737767.4532411.86591481 1.0765057.86591481.3689592.03912812.7372793-.08028928 1.020644-.33091505.2833646-.25062577.4575101-.61099937.4825705-.99862365z"/><path d="m46.0015949 6.00274494c0-1.92177144.9430061-3.13920624 2.4097484-3.13920624.7406318-.03575151 1.4343021.38000907 1.7802439 1.06701298h.0856177v-3.34031791h1.1456986v8.45606441h-1.0978553v-.96089247h-.0906457c-.3720917.68130394-1.0743082 1.09003684-1.8230463 1.06112415-1.4768241.00006755-2.4097613-1.21739427-2.4097613-3.14378492zm1.1835117 0c0 1.28997818.5804106 2.06620986 1.5511093 2.06620986.9656321 0 1.5624288-.78742857 1.5624288-2.06092883 0-1.2675574-.6030623-2.06620986-1.5624288-2.06620986-.964446 0-1.551148.78149921-1.551148 2.06092883z"/><path d="m56.1630869 6.00274494c-.0995449-1.09012928.3994077-2.14513921 1.2875987-2.72256148.8881912-.57742227 2.0120549-.57742227 2.9002459 0 .8881911.57742227 1.3871438 1.6324322 1.2875987 2.72256148.1014391 1.09130071-.3970582 2.14835688-1.2860368 2.72702219-.8889786.57866537-2.014391.57866537-2.9033695 0-.8889786-.57866531-1.3874759-1.63572148-1.286037-2.72702219zm4.2969983 0c0-1.31832832-.5653008-2.08927897-1.5573879-2.08927897-.9958774 0-1.5560987.77095065-1.5560987 2.08929247 0 1.32889039.56026 2.09389818 1.5560987 2.09389818.9920999 0 1.5573879-.77030233 1.5573879-2.09391168z"/><path d="m63.1757804 2.96443221h1.1028962v.96616h.0856177c.2977278-.71134928.9934315-1.14648861 1.7324007-1.08355844.5721812-.04506878 1.1328783.18489025 1.5237787.62494825.3909004.44005799.5695841 1.04246046.4855998 1.63711928v3.93714282h-1.1456986v-3.63573191c0-.97737039-.4053979-1.46342857-1.2527174-1.46342857-.3881019-.01893729-.7647444.14063308-1.0311835.43687669s-.396102.69961507-.3549949 1.10436279v3.55798856h-1.1456987z"/><path d="m74.5799211 1.45023273v1.5419013h1.2577583v1.01101506h-1.2577583v3.12733403c0 .63707429.2505486.9160374.8208774.9160374.1460124-.00048956.2918781-.00973864.4368809-.02770182v.99979116c-.2057486.03856199-.4142089.0590775-.623213.06133301-1.2741187 0-1.7815074-.46956679-1.7815074-1.64214651v-3.4347013h-.921592v-1.01101506h.921592v-1.54184727z"/><path d="m77.4026222.59023377h1.1356297v3.35156882h.0906457c.3120291-.71757492 1.0199088-1.15326877 1.7701106-1.08948779.5689321-.03243276 1.1220391.20258892 1.508667.64105041.3866279.43846148.5665072 1.03469435.4906426 1.62629817v3.9266483h-1.146846v-3.63054545c0-.97144103-.4318915-1.46342857-1.2413852-1.46342857-.398592-.03424751-.7912909.11756182-1.073112.41484317-.2818211.29728136-.4240278.70972141-.3886022 1.12705813v3.55207272h-1.1456986z"/><path d="m89.0786994 7.4041652c-.3212662 1.14721384-1.3809577 1.88844151-2.5155031 1.75953145-.7740999.02140801-1.5180521-.31474087-2.0344695-.91925851-.5164174-.6045176-.7530923-1.41628986-.647229-2.21993425-.1030514-.80587779.1327366-1.6189508.6462784-2.22857554.5135417-.60962473 1.2543047-.95581429 2.0303787-.94888108 1.6153129 0 2.5897892 1.15615585 2.5897892 3.06597403v.41882285h-4.0993466v.06726235c-.0362763.45130616.1108485.89770605.4051923 1.22941601.2943438.33170995.7085949.51795136 1.1408765.51292164.5605198.07049672 1.1061478-.22078653 1.3811373-.73731947zm-4.0301276-1.96002182h2.932234c.0292047-.41275786-.1093282-.81924303-.3814607-1.11928434-.2721325-.30004133-.6525555-.46573479-1.0475204-.45624813-.4003154-.005269-.7856972.15905414-1.068723.45569407-.2830266.29663994-.4397086.70045331-.4345042 1.1198384z"/></g></g></g></svg>