<svg enable-background="new 0 0 40 40" viewBox="0 0 40 40" xmlns="http://www.w3.org/2000/svg"><g fill="none" stroke="#4788c7" stroke-linecap="round" stroke-miterlimit="10"><path d="m31.014 7.206 5.351 16.937"/><path d="m8.986 32.794-5.351-16.937"/><path d="m35.234 9.502 3.266 10.338"/><path d="m4.766 30.498-3.266-10.338"/></g><path d="m16.262 38.5c-.852 0-1.596-.546-1.853-1.358l-8.834-27.96c-.322-1.021.246-2.115 1.268-2.438l16.31-5.153c.191-.06.389-.091.586-.091.852 0 1.596.546 1.853 1.358l8.834 27.959c.322 1.021-.246 2.115-1.268 2.438l-16.31 5.153c-.192.061-.389.092-.586.092z" fill="#98ccfd"/><path d="m23.739 2c.632 0 1.185.406 1.376 1.009l8.834 27.959c.24.759-.183 1.571-.941 1.811l-16.309 5.153c-.144.045-.291.068-.438.068-.632 0-1.185-.406-1.376-1.009l-8.833-27.959c-.116-.368-.082-.759.096-1.101s.478-.594.846-.711l16.309-5.153c.142-.044.289-.067.436-.067m0-1c-.244 0-.492.037-.737.114l-16.31 5.153c-1.287.407-2 1.779-1.594 3.066l8.834 27.959c.329 1.042 1.292 1.708 2.329 1.708.244 0 .492-.037.737-.114l16.309-5.153c1.287-.407 2-1.779 1.594-3.066l-8.833-27.959c-.329-1.042-1.292-1.708-2.329-1.708z" fill="#4788c7"/><path d="m9.321 7.089h20.991v24.656h-20.991z" fill="#dff0fe" transform="matrix(.9535 -.3013 .3013 .9535 -4.9291 6.8719)"/><path d="m25.784 5.128 7.127 22.557-19.062 6.023-7.128-22.558zm.652-1.255-20.969 6.625 7.729 24.464 20.969-6.625z" fill="#4788c7"/><path d="m22.173 34.048 4.12-1.302" fill="none" stroke="#4788c7" stroke-linecap="round" stroke-miterlimit="10"/></svg>