<?xml version="1.0" encoding="UTF-8"?>
<svg width="181px" height="54px" viewBox="0 0 181 54" version="1.1" xmlns="http://www.w3.org/2000/svg" xmlns:xlink="http://www.w3.org/1999/xlink">
    <!-- Generator: Sketch 64 (93537) - https://sketch.com -->
    <title>google_play</title>
    <desc>Created with Sketch.</desc>
    <defs>
        <path d="M0.813066646,0.0139999996 L0.713999982,0.108799997 C0.325999992,0.51933332 0.0969333309,1.15679997 0.0969333309,1.98226662 L0.0969333309,1.78799996 L0.0969333309,1.78799996 L0.0969333309,31.2759992 C0.0969333309,31.2786659 0.0969333309,31.2806659 0.0969333309,31.2827992 C0.0969333309,31.2802659 0.0969333309,31.2781326 0.0969333309,31.2754659 L0.0969333309,31.0806659 C0.0969333309,31.9745325 0.363999991,32.6478659 0.811466646,33.0515992 L17.3311996,16.5322663 L0.813066646,0.0139999996 M0.0969333309,31.2843992 C0.0969333309,31.3578659 0.0989333309,31.4291992 0.102666664,31.4994659 C0.0989333309,31.4297325 0.0969333309,31.3578659 0.0969333309,31.2843992" id="path-1"></path>
        <linearGradient x1="61.2933704%" y1="95.5670711%" x2="25.9611265%" y2="27.8361624%" id="linearGradient-3">
            <stop stop-color="#00A0FF" offset="0%"></stop>
            <stop stop-color="#00A1FF" offset="0.657445%"></stop>
            <stop stop-color="#00BEFF" offset="26.01%"></stop>
            <stop stop-color="#00D2FF" offset="51.22%"></stop>
            <stop stop-color="#00DFFF" offset="76.04%"></stop>
            <stop stop-color="#00E3FF" offset="100%"></stop>
        </linearGradient>
        <path d="M5.63693319,0.0286666659 L5.63693319,0.0286666659 L5.76253319,0.0999999975 L12.2863997,3.8067999 C12.9083997,4.1603999 13.322933,4.58906655 13.529733,5.04266654 C13.3234663,4.58906655 12.9087997,4.15986656 12.2863997,3.80626657 L5.76253319,0.0994666642 L5.63693319,0.0286666659 M5.63853319,0.223999994 L0.131199997,5.73226652 L5.63799986,11.2395997 L12.2863997,7.46253315 C13.1306663,6.98279983 13.6046663,6.36453317 13.6838663,5.73279986 C13.6838663,5.73226652 13.6838663,5.73119986 13.6838663,5.73026652 C13.6046663,5.09999987 13.1306663,4.48119989 12.2863997,4.0015999 L5.63853319,0.223999994" id="path-4"></path>
        <linearGradient x1="107.590142%" y1="50.8682001%" x2="-130.463869%" y2="50.8682001%" id="linearGradient-6">
            <stop stop-color="#FFE000" offset="0%"></stop>
            <stop stop-color="#FFBD00" offset="40.87%"></stop>
            <stop stop-color="#FFA500" offset="77.54%"></stop>
            <stop stop-color="#FF9C00" offset="100%"></stop>
        </linearGradient>
        <path d="M1.32399997,0.0515999987 C0.862533312,0.0515999987 0.459866655,0.201599995 0.145866663,0.484933321 L0.146399996,0.485466655 C0.460399988,0.202133328 0.863599978,0.0515999987 1.32506663,0.0515999987 C1.36506663,0.0515999987 1.4057333,0.0526666654 1.4469333,0.0546666653 C1.40519996,0.0526666654 1.36399997,0.0515999987 1.32399997,0.0515999987 M1.3245333,0.24693051 C0.863066645,0.246399994 0.460399988,0.396933323 0.146399996,0.68026665 L0.146399996,0.68026665 L0.146399996,0.68066665 L16.6645329,17.1989329 L22.1718661,11.6906664 L22.1718661,11.6906664 L2.8182666,0.694266649 C2.28279994,0.390666657 1.77546662,0.24693051 1.3245333,0.24693051" id="path-7"></path>
        <linearGradient x1="86.7252262%" y1="69.4865215%" x2="-50.4795896%" y2="-37.7651021%" id="linearGradient-9">
            <stop stop-color="#FF3A44" offset="0%"></stop>
            <stop stop-color="#C31162" offset="100%"></stop>
        </linearGradient>
        <path d="M16.5311996,0.132266663 L16.5311996,0.132266663 L0.0114666664,16.6515996 C0.325466659,16.9343996 0.727599982,17.0843996 1.1885333,17.0843996 C1.64066663,17.0843996 2.14839995,16.9401329 2.68493327,16.6359996 L22.0379994,5.63959986 L16.5311996,0.132266663 M22.1625328,5.76399986 L2.68493327,16.8306662 C2.14839995,17.1349329 1.64066663,17.2791996 1.1885333,17.2791996 C1.18639997,17.2791996 1.1849333,17.2791996 1.18279997,17.2791996 C1.18546664,17.2791996 1.18746664,17.2791996 1.19066664,17.2791996 C1.64173329,17.2791996 2.14893328,17.1354662 2.68493327,16.8311996 L22.1625328,5.76399986" id="path-10"></path>
        <linearGradient x1="-19.3296937%" y1="112.411183%" x2="41.8411754%" y2="65.0593858%" id="linearGradient-12">
            <stop stop-color="#32A071" offset="0%"></stop>
            <stop stop-color="#2DA771" offset="6.85%"></stop>
            <stop stop-color="#15CF74" offset="47.62%"></stop>
            <stop stop-color="#06E775" offset="80.09%"></stop>
            <stop stop-color="#00F076" offset="100%"></stop>
        </linearGradient>
        <polyline id="path-13" points="1.03693333 1.162 1.03693333 1.162 1.16253333 1.23333333 1.03693333 1.162"></polyline>
        <linearGradient x1="6809.6%" y1="4300.35%" x2="-17387.4%" y2="4300.35%" id="linearGradient-15">
            <stop stop-color="#CCB300" offset="0%"></stop>
            <stop stop-color="#CC9700" offset="40.87%"></stop>
            <stop stop-color="#CC8400" offset="77.54%"></stop>
            <stop stop-color="#CC7D00" offset="100%"></stop>
        </linearGradient>
        <path d="M1.32506663,0.0515999987 C0.863599978,0.0515999987 0.460399988,0.202133328 0.146399996,0.485466655 L0.145866663,0.484933321 C0.144799996,0.485999988 0.143199996,0.487466654 0.14173333,0.488533321 L0.0557333319,0.572399986 C0.0530666653,0.575066652 0.0505333321,0.578133319 0.0473333321,0.581199985 L0.146399996,0.68026665 C0.460399988,0.396933323 0.863066645,0.246399994 1.3245333,0.246933327 C1.77546662,0.246933327 2.28279994,0.390666657 2.8182666,0.694266649 L22.1718661,11.6906664 L22.2958661,11.5666664 L22.1702661,11.495333 L2.8182666,0.499466654 C2.33026661,0.222933328 1.86613329,0.0786666647 1.4469333,0.0546666653 C1.4057333,0.0526666653 1.36506663,0.0515999987 1.32506663,0.0515999987" id="path-16"></path>
        <linearGradient x1="86.2468837%" y1="69.4394661%" x2="-50.1414325%" y2="-1.91052725%" id="linearGradient-18">
            <stop stop-color="#CC2E36" offset="0%"></stop>
            <stop stop-color="#9C0E4E" offset="100%"></stop>
        </linearGradient>
        <path d="M1.71399998,0.0478666655 L1.71399998,0.0478666655 C1.32599999,0.458399989 1.09693333,1.09533331 1.09693333,1.92133329 L1.09693333,2.11559995 C1.09693333,1.2901333 1.32599999,0.65266665 1.71399998,0.242133327 L1.81306665,0.14733333 L1.71399998,0.0478666655" id="path-19"></path>
        <linearGradient x1="308.135018%" y1="1531.75135%" x2="-66.6655356%" y2="449.567965%" id="linearGradient-21">
            <stop stop-color="#008DE0" offset="0%"></stop>
            <stop stop-color="#008DE0" offset="0.657445%"></stop>
            <stop stop-color="#00A7E0" offset="26.01%"></stop>
            <stop stop-color="#00B8E0" offset="51.22%"></stop>
            <stop stop-color="#00C4E0" offset="76.04%"></stop>
            <stop stop-color="#00C7E0" offset="100%"></stop>
        </linearGradient>
        <polyline id="path-22" points="1.04733333 1.04786667 1.04733333 1.04786667 1.04733333 1.04786667 1.1464 1.14733333 1.1464 1.14693333 1.04733333 1.04786667"></polyline>
        <linearGradient x1="14404.35%" y1="10180.7%" x2="-8353.95%" y2="-12577.6%" id="linearGradient-24">
            <stop stop-color="#E0333C" offset="0%"></stop>
            <stop stop-color="#AB0F56" offset="100%"></stop>
        </linearGradient>
        <path d="M0.162533329,0.0999999975 L0.162533329,0.0999999975 L0.0385333324,0.223999994 L6.68639983,4.0015999 C7.53066648,4.48119989 8.00466647,5.1 8.08386646,5.73026652 C8.08386646,5.4989332 8.03226647,5.2677332 7.92973314,5.04266654 C7.72293314,4.58906655 7.30839982,4.1603999 6.68639983,3.8067999 L0.162533329,0.0999999975" id="path-25"></path>
        <linearGradient x1="112.78588%" y1="100.021313%" x2="-288.225058%" y2="100.021313%" id="linearGradient-27">
            <stop stop-color="#E0C500" offset="0%"></stop>
            <stop stop-color="#E0A600" offset="40.87%"></stop>
            <stop stop-color="#E09100" offset="77.54%"></stop>
            <stop stop-color="#E08900" offset="100%"></stop>
        </linearGradient>
        <path d="M8.08386646,-0.00053333332 C8.00466647,0.631199984 7.53066648,1.24946664 6.68639983,1.72919996 L0.0379999991,5.50626653 L0.161999996,5.63026653 L0.162533329,5.63026653 L6.68639983,1.92346662 C7.61719981,1.39426663 8.08333313,0.696933316 8.08386646,-0.00053333332" id="path-28"></path>
        <linearGradient x1="112.785032%" y1="-0.0236792877%" x2="-288.199324%" y2="-0.0236792877%" id="linearGradient-30">
            <stop stop-color="#FFE840" offset="0%"></stop>
            <stop stop-color="#FFCE40" offset="40.87%"></stop>
            <stop stop-color="#FFBC40" offset="77.54%"></stop>
            <stop stop-color="#FFB540" offset="100%"></stop>
        </linearGradient>
        <path d="M1.09693333,0.0139999997 L1.09693333,0.208799995 C1.09693333,0.211466661 1.09693333,0.213599995 1.09693333,0.216133328 C1.09693333,0.216666661 1.09693333,0.217199995 1.09693333,0.217733328 C1.09693333,0.291199993 1.09893333,0.363066658 1.10266666,0.432799989 C1.10266666,0.433866656 1.10266666,0.434933322 1.10266666,0.435999989 C1.10266666,0.436933322 1.10266666,0.437999989 1.10306666,0.439066656 C1.10306666,0.441199989 1.10306666,0.443199989 1.10306666,0.445333322 C1.10306666,0.445866656 1.10306666,0.446399989 1.10306666,0.446933322 C1.1432,1.15786664 1.36399999,1.71253329 1.71399998,2.08279995 L1.71399998,2.08279995 L1.71399998,2.08279995 L1.81146665,1.98493328 C1.36399999,1.58119996 1.09693333,0.907866644 1.09693333,0.0139999997" id="path-31"></path>
        <linearGradient x1="306.91369%" y1="23.3823801%" x2="-66.1070955%" y2="-1009.83193%" id="linearGradient-33">
            <stop stop-color="#40B8FF" offset="0%"></stop>
            <stop stop-color="#40B9FF" offset="0.657445%"></stop>
            <stop stop-color="#40CEFF" offset="26.01%"></stop>
            <stop stop-color="#40DDFF" offset="51.22%"></stop>
            <stop stop-color="#40E7FF" offset="76.04%"></stop>
            <stop stop-color="#40EAFF" offset="100%"></stop>
        </linearGradient>
        <path d="M22.1713328,0.039599999 L2.8182666,11.0359997 C2.28173328,11.340133 1.77399996,11.4843997 1.32186663,11.4843997 C0.860933312,11.4843997 0.458799989,11.3343997 0.144799996,11.0515997 L0.0473333321,11.1494664 L0.0473333321,11.1494664 C0.0781333314,11.1817331 0.109333331,11.2130664 0.14213333,11.2426664 C0.143199996,11.2437331 0.144799996,11.2447997 0.145866663,11.2458664 C0.457333322,11.526533 0.855199979,11.676533 1.31199997,11.6791997 L1.31199997,11.6791997 C1.31306663,11.6791997 1.3145333,11.6791997 1.3161333,11.6791997 C1.31826663,11.6791997 1.3197333,11.6791997 1.32186663,11.6791997 C1.77399996,11.6791997 2.28173328,11.534933 2.8182666,11.2306664 L22.2958661,0.163999996 L22.2953328,0.163599996 L22.1713328,0.039599999" id="path-34"></path>
        <linearGradient x1="-18.8069326%" y1="85.5201818%" x2="42.0959584%" y2="53.6580685%" id="linearGradient-36">
            <stop stop-color="#65B895" offset="0%"></stop>
            <stop stop-color="#62BD95" offset="6.85%"></stop>
            <stop stop-color="#50DB97" offset="47.62%"></stop>
            <stop stop-color="#44ED98" offset="80.09%"></stop>
            <stop stop-color="#40F498" offset="100%"></stop>
        </linearGradient>
    </defs>
    <g id="Screens" stroke="none" stroke-width="1" fill="none" fill-rule="evenodd">
        <g id="google_play" transform="translate(-8.000000, -11.000000)">
            <g id="g10" transform="translate(98.000000, 38.000000) scale(-1, 1) rotate(-180.000000) translate(-98.000000, -38.000000) ">
                <polyline id="path14-path" points="196 0 0 0 0 76 196 76 196 0"></polyline>
                <g id="g12" transform="translate(8.000000, 11.000000)">
                    <path d="M173.666662,0.333333 L6.9999995,0.333333 C3.333333,0.333333 0.333333,3.333333 0.333333,6.9999995 L0.333333,46.9999985 C0.333333,50.6666651 3.333333,53.666665 6.9999995,53.666665 L173.666662,53.666665 C177.333333,53.666665 180.333333,50.6666651 180.333333,46.9999985 L180.333333,6.9999995 C180.333333,3.333333 177.333333,0.333333 173.666662,0.333333" id="path16" fill="#000000" fill-rule="nonzero"></path>
                    <path d="M173.666662,53.666665 L6.9999995,53.666665 C3.333333,53.666665 0.333333,50.6666651 0.333333,46.9999985 L0.333333,6.9999995 C0.333333,3.333333 3.333333,0.333333 6.9999995,0.333333 L173.666662,0.333333 C177.333333,0.333333 180.333333,3.333333 180.333333,6.9999995 L180.333333,46.9999985 C180.333333,50.6666651 177.333333,53.666665 173.666662,53.666665 M173.666662,52.5999984 C176.754662,52.5999984 179.266662,50.0874651 179.266662,46.9999985 L179.266662,6.9999995 C179.266662,3.9119996 176.754662,1.3994663 173.666662,1.3994663 L6.9999995,1.3994663 C3.9125329,1.3994663 1.3999996,3.9119996 1.3999996,6.9999995 L1.3999996,46.9999985 C1.3999996,50.0874651 3.9125329,52.5999984 6.9999995,52.5999984 L173.666662,52.5999984" id="path18" fill="#A6A6A6" fill-rule="nonzero"></path>
                    <path d="M63.5578648,40.0087987 C63.5578648,38.891732 63.2270648,38.0021321 62.5645314,37.3385321 C61.8119981,36.5494654 60.8311982,36.1546654 59.6254649,36.1546654 C58.4707982,36.1546654 57.4890649,36.5546654 56.6817316,37.3557321 C55.8729316,38.1562654 55.4693316,39.148932 55.4693316,40.333332 C55.4693316,41.5182653 55.8729316,42.5103986 56.6817316,43.3114653 C57.4890649,44.1119986 58.4707982,44.5125319 59.6254649,44.5125319 C60.1983982,44.5125319 60.7469315,44.4005319 61.2677315,44.1770652 C61.7885315,43.9530652 62.2062648,43.6557319 62.5187981,43.2833319 L61.8155981,42.5797319 C61.2859981,43.2125319 60.5567982,43.5286653 59.6254649,43.5286653 C58.7833315,43.5286653 58.0551982,43.2327986 57.4406649,42.6406653 C56.8259983,42.0478653 56.5187983,41.2791986 56.5187983,40.333332 C56.5187983,39.3874654 56.8259983,38.6187987 57.4406649,38.0259987 C58.0551982,37.4338654 58.7833315,37.1379987 59.6254649,37.1379987 C60.5187982,37.1379987 61.2635981,37.4354654 61.8598648,38.0311987 C62.2469315,38.419332 62.4707981,38.9587987 62.5306648,39.6515987 L59.6254649,39.6515987 L59.6254649,40.612532 L63.5021314,40.612532 C63.5395981,40.4035987 63.5578648,40.2030653 63.5578648,40.0087987" id="path20" fill="#FFFFFF" fill-rule="nonzero"></path>
                    <path d="M63.5578648,40.0087987 L63.4245314,40.0087987 C63.4234648,38.9171987 63.1046648,38.0693321 62.4702648,37.4327987 L62.4687981,37.4317321 L62.4682648,37.4306654 C61.7395981,36.6687988 60.8030648,36.2895988 59.6254649,36.2879988 C58.5015982,36.2895988 57.5609316,36.6729321 56.7754649,37.4499987 C55.9917316,38.2286654 55.6041316,39.1791987 55.602665,40.333332 C55.6041316,41.4879986 55.9917316,42.4379986 56.7754649,43.2161319 C57.5609316,43.9937319 58.5015982,44.3775986 59.6254649,44.3791986 C60.1811982,44.3791986 60.7103982,44.2707986 61.2150648,44.0546652 C61.7202648,43.8369319 62.1193315,43.5515986 62.4166648,43.1973319 L62.5187981,43.2833319 L62.4245314,43.3775986 L61.7213315,42.6734653 L61.8155981,42.5797319 L61.9182648,42.6650653 C61.3639981,43.3291986 60.5859982,43.6639986 59.6254649,43.6619986 C58.7521315,43.6630653 57.9838649,43.3510653 57.3483982,42.7363986 C56.7067983,42.119732 56.3843983,41.3078653 56.3854649,40.333332 C56.3843983,39.3587987 56.7067983,38.546932 57.3483982,37.9302654 C57.9838649,37.3155987 58.7521315,37.0035987 59.6254649,37.0046654 C60.5483982,37.0030654 61.3349315,37.3161321 61.9541315,37.9369321 L61.9541315,37.9369321 C62.3677314,38.3515987 62.6021314,38.9259987 62.6635981,39.640132 L62.6759981,39.784932 L59.7587982,39.784932 L59.7587982,40.4791987 L63.5021314,40.4791987 L63.5021314,40.612532 L63.3707981,40.5890653 C63.4073314,40.386932 63.4245314,40.1947987 63.4245314,40.0087987 L63.5578648,40.0087987 L63.6912019,40.0087987 C63.6912019,40.2114653 63.6723981,40.419732 63.6333314,40.6363987 L63.6135981,40.7458653 L59.4921315,40.7458653 L59.4921315,39.6515987 L59.4921315,39.5182654 L62.5306648,39.5182654 L62.5306648,39.6515987 L62.3978648,39.6630654 C62.3390648,38.992132 62.1254648,38.486932 61.7655981,38.1254654 L61.7655981,38.1254654 C61.1926648,37.5546654 60.4895982,37.2729321 59.6254649,37.2713321 C58.8145315,37.2723987 58.1265316,37.5515987 57.5333316,38.1218654 C56.9458649,38.690132 56.6535983,39.4155987 56.6521316,40.333332 C56.6535983,41.2510653 56.9458649,41.976532 57.5333316,42.5447986 C58.1265316,43.1150653 58.8145315,43.3942653 59.6254649,43.3953319 C60.5270648,43.3931986 61.2078648,43.0953319 61.7135981,42.4937319 L61.8073315,42.3822653 L62.6130648,43.1890653 L62.6994648,43.2754653 L62.6207981,43.3687986 C62.2931981,43.7593319 61.8567981,44.0693319 61.3202648,44.2994652 C60.7827982,44.5302652 60.2155982,44.6458693 59.6254649,44.6458693 C58.4401315,44.6469319 57.4171982,44.2302652 56.5874649,43.4057319 C55.7546649,42.5827986 55.3349316,41.5483986 55.3359943,40.333332 C55.3349316,39.1187987 55.7546649,38.0838654 56.5879983,37.2603987 C57.4171982,36.4363988 58.4401315,36.0202654 59.6254649,36.0213279 C60.8598648,36.0202654 61.8838648,36.4302654 62.6609314,37.2463987 L62.5645314,37.3385321 L62.6587981,37.2442654 C63.3494648,37.9343987 63.6921314,38.8666654 63.6912019,40.0087987 L63.5578648,40.0087987" id="path22" fill="#FFFFFF" fill-rule="nonzero"></path>
                    <polyline id="path24" fill="#FFFFFF" fill-rule="nonzero" points="69.7035979 43.3505319 66.060398 43.3505319 66.060398 40.8139987 69.3458646 40.8139987 69.3458646 39.8526653 66.060398 39.8526653 66.060398 37.3161321 69.7035979 37.3161321 69.7035979 36.3333321 65.0333314 36.3333321 65.0333314 44.3333319 69.7035979 44.3333319 69.7035979 43.3505319"></polyline>
                    <polyline id="path26" fill="#FFFFFF" fill-rule="nonzero" points="69.7035979 43.3505319 69.7035979 43.4838653 65.9270647 43.4838653 65.9270647 40.6806653 69.2125313 40.6806653 69.2125313 39.9863987 65.9270647 39.9859987 65.9270647 37.1827987 69.5702646 37.1827987 69.5702646 36.4666654 65.1666647 36.4666654 65.1666647 44.1999986 69.5702646 44.1999986 69.5702646 43.3505319 69.7035979 43.3505319 69.7035979 43.4838653 69.7035979 43.3505319 69.8369313 43.3505319 69.8369313 44.3333319 69.8369313 44.4666652 64.8999981 44.4666652 64.8999981 36.1999988 69.8369313 36.1999988 69.8369313 37.3161321 69.8369313 37.4494654 66.1937314 37.4494654 66.1937314 39.719332 69.4791979 39.719332 69.4791979 40.8139987 69.4791979 40.947332 66.1937314 40.947332 66.1937314 43.2171986 69.8369313 43.2171986 69.8369313 43.3505319 69.7035979 43.3505319"></polyline>
                    <polyline id="path28" fill="#FFFFFF" fill-rule="nonzero" points="74.0385312 36.3333321 73.0098645 36.3333321 73.0098645 43.3505319 70.7754646 43.3505319 70.7754646 44.3333319 76.2729311 44.3333319 76.2729311 43.3505319 74.0385312 43.3505319 74.0385312 36.3333321"></polyline>
                    <polyline id="path30" fill="#FFFFFF" fill-rule="nonzero" points="74.0385312 36.3333321 74.0385312 36.4666654 73.1431978 36.4666654 73.1431978 43.4838653 70.9087979 43.4838653 70.9087979 44.1999986 76.1395978 44.1999986 76.1395978 43.4838653 73.9051978 43.4838653 73.9051978 36.3333321 74.0385312 36.3333321 74.0385312 36.4666654 74.0385312 36.3333321 74.1718645 36.3333321 74.1718645 43.2171986 76.4062644 43.2171986 76.4062644 44.3333319 76.4062644 44.4666652 70.6421312 44.4666652 70.6421312 43.3505319 70.6421312 43.2171986 72.8765312 43.2171986 72.8765312 36.1999988 74.0385312 36.1999988 74.1718645 36.1999988 74.1718645 36.3333321 74.0385312 36.3333321"></polyline>
                    <polyline id="path32" fill="#FFFFFF" fill-rule="nonzero" points="80.250531 36.3333321 80.250531 44.3333319 81.278131 44.3333319 81.278131 36.3333321 80.250531 36.3333321"></polyline>
                    <polyline id="path34" fill="#FFFFFF" fill-rule="nonzero" points="80.250531 36.3333321 80.3838643 36.3333321 80.3838643 44.1999986 81.1447976 44.1999986 81.1447976 36.4666654 80.250531 36.4666654 80.250531 36.3333321 80.3838643 36.3333321 80.250531 36.3333321 80.250531 36.1999988 81.278131 36.1999988 81.4114643 36.1999988 81.4114643 44.4666652 80.250531 44.4666652 80.1171977 44.4666652 80.1171977 36.1999988 80.250531 36.1999988 80.250531 36.3333321"></polyline>
                    <polyline id="path36" fill="#FFFFFF" fill-rule="nonzero" points="85.8379975 36.3333321 84.8093309 36.3333321 84.8093309 43.3505319 82.5750643 43.3505319 82.5750643 44.3333319 88.072397 44.3333319 88.072397 43.3505319 85.8379975 43.3505319 85.8379975 36.3333321"></polyline>
                    <polyline id="path38" fill="#FFFFFF" fill-rule="nonzero" points="85.8379975 36.3333321 85.8379975 36.4666654 84.9426642 36.4666654 84.9426642 43.4838653 82.7083976 43.4838653 82.7083976 44.1999986 87.939064 44.1999986 87.939064 43.4838653 85.7046642 43.4838653 85.7046642 36.3333321 85.8379975 36.3333321 85.8379975 36.4666654 85.8379975 36.3333321 85.9713309 36.3333321 85.9713309 43.2171986 88.205731 43.2171986 88.205731 44.3333319 88.205731 44.4666652 82.4417309 44.4666652 82.4417309 43.3505319 82.4417309 43.2171986 84.6759976 43.2171986 84.6759976 36.1999988 85.8379975 36.1999988 85.9713309 36.1999988 85.9713309 36.3333321 85.8379975 36.3333321"></polyline>
                    <path d="M93.372397,38.0369321 C93.964531,37.4374654 94.689064,37.1379987 95.545864,37.1379987 C96.402664,37.1379987 97.127597,37.4374654 97.718797,38.0369321 C98.311464,38.6363987 98.608397,39.4026654 98.608397,40.333332 C98.608397,41.2639986 98.311464,42.0302653 97.718797,42.6297319 C97.127597,43.2291986 96.402664,43.5286653 95.545864,43.5286653 C94.689064,43.5286653 93.964531,43.2291986 93.372397,42.6297319 C92.781197,42.0302653 92.484397,41.2639986 92.484397,40.333332 C92.484397,39.4026654 92.781197,38.6363987 93.372397,38.0369321 Z M98.479197,37.3671987 C97.692664,36.5583988 96.714531,36.1546654 95.545864,36.1546654 C94.375997,36.1546654 93.398397,36.5583988 92.613597,37.3671987 C91.826531,38.1750654 91.434931,39.1639987 91.434931,40.333332 C91.434931,41.5026653 91.826531,42.4917319 92.613597,43.2994653 C93.398397,44.1083986 94.375997,44.5125319 95.545864,44.5125319 C96.708397,44.5125319 97.683864,44.1062652 98.473997,43.2942653 C99.263064,42.4822653 99.657864,41.495332 99.657864,40.333332 C99.657864,39.1639987 99.263997,38.1750654 98.479197,37.3671987" id="path40" fill="#FFFFFF" fill-rule="nonzero"></path>
                    <path d="M93.372397,38.0369321 L93.277597,37.9431987 C93.891731,37.3197321 94.657864,37.0030654 95.545864,37.0046534 C96.433331,37.0030654 97.200531,37.3197321 97.813597,37.9431987 C98.431731,38.5671987 98.742664,39.374532 98.7417351,40.333332 C98.742664,41.292132 98.431731,42.0994653 97.813597,42.7234653 L97.813597,42.7234653 C97.200531,43.3469319 96.433331,43.6635986 95.545864,43.6620106 C94.657864,43.6635986 93.891731,43.3469319 93.277597,42.7234653 L93.277597,42.7234653 C92.660931,42.0994653 92.349464,41.292132 92.3510519,40.333332 C92.349464,39.374532 92.660931,38.5671987 93.277597,37.9431987 L93.372397,38.0369321 L93.467197,38.1306654 C92.901597,38.7062654 92.618797,39.4302654 92.617731,40.333332 C92.618797,41.2363986 92.901597,41.9603986 93.467197,42.5359986 L93.467197,42.5359986 C94.037997,43.1114653 94.719731,43.3937319 95.545864,43.3953319 C96.371331,43.3937319 97.054664,43.1114653 97.623997,42.5359986 L97.623997,42.5359986 C98.190664,41.9603986 98.473464,41.2363986 98.474531,40.333332 C98.473464,39.4302654 98.190664,38.7062654 97.623997,38.1306654 C97.054664,37.5551987 96.371331,37.2729321 95.545864,37.2713321 C94.719731,37.2729321 94.037997,37.5551987 93.467197,38.1306654 L93.372397,38.0369321 Z M98.479197,37.3671987 L98.383864,37.4598654 C97.619331,36.6765321 96.684397,36.2895988 95.545864,36.2879988 C94.406797,36.2895988 93.471864,36.6765321 92.708797,37.4598654 L92.705197,37.4639987 L92.708797,37.4598654 C91.945864,38.2458654 91.569331,39.193732 91.568264,40.333332 C91.569331,41.472932 91.945864,42.4207986 92.708797,43.2067986 L92.708797,43.2067986 C93.471864,43.9901319 94.406797,44.3775986 95.545864,44.3791986 C96.677064,44.3775986 97.609864,43.9885319 98.378664,43.2010653 C99.144264,42.4114653 99.522931,41.4650653 99.524531,40.333332 C99.522931,39.193732 99.145331,38.2458654 98.383864,37.4598654 L98.479197,37.3671987 L98.575064,37.2745321 C99.383331,38.1046654 99.792131,39.1343987 99.7912006,40.333332 C99.792131,41.5254653 99.381731,42.5530653 98.569731,43.3869319 C97.757331,44.2239986 96.739597,44.6473319 95.545864,44.6458728 C94.345864,44.6473319 93.325064,44.2259986 92.517731,43.3921319 L92.517731,43.3926653 C91.707864,42.5619986 91.300531,41.5322653 91.3015929,40.333332 C91.300531,39.1343987 91.707864,38.1046654 92.517731,37.2739987 L92.521331,37.2702654 L92.517731,37.2745321 C93.325064,36.4406654 94.345864,36.0202654 95.545864,36.0213281 C96.745331,36.0202654 97.766131,36.4406654 98.575064,37.2745321 L98.479197,37.3671987" id="path42" fill="#FFFFFF" fill-rule="nonzero"></path>
                    <polyline id="path44" fill="#FFFFFF" fill-rule="nonzero" points="101.10053 36.3333321 101.10053 44.3333319 102.351597 44.3333319 106.239597 38.1098654 106.283864 38.1098654 106.239597 39.6515987 106.239597 44.3333319 107.268264 44.3333319 107.268264 36.3333321 106.19533 36.3333321 102.127597 42.8583986 102.08333 42.8583986 102.127597 41.316132 102.127597 36.3333321 101.10053 36.3333321"></polyline>
                    <polyline id="path46" fill="#FFFFFF" fill-rule="nonzero" points="101.10053 36.3333321 101.233864 36.3333321 101.233864 44.1999986 102.277597 44.1999986 106.165597 37.9765321 106.283864 37.9765321 106.420797 37.9765321 106.37293 39.6535987 106.37293 44.1999986 107.13493 44.1999986 107.13493 36.4666654 106.26933 36.4666654 102.201597 42.9917319 102.08333 42.9917319 101.946397 42.9917319 101.994264 41.3139986 101.994264 36.4666654 101.10053 36.4666654 101.10053 36.3333321 101.233864 36.3333321 101.10053 36.3333321 101.10053 36.1999988 102.127597 36.1999988 102.26093 36.1999988 102.26093 41.3182653 102.216664 42.8619986 102.08333 42.8583986 102.08333 42.7250653 102.127597 42.7250653 102.127597 42.8583986 102.01453 42.7874653 106.12133 36.1999988 107.268264 36.1999988 107.401597 36.1999988 107.401597 44.4666652 106.239597 44.4666652 106.106264 44.4666652 106.106264 39.6499987 106.15053 38.1062654 106.283864 38.1098654 106.283864 38.2431987 106.239597 38.2431987 106.239597 38.1098654 106.352664 38.1806654 102.425464 44.4666652 101.10053 44.4666652 100.967197 44.4666652 100.967197 36.1999988 101.10053 36.1999988 101.10053 36.3333321"></polyline>
                    <path d="M142.914663,13.666666 L145.402663,13.666666 L145.402663,30.3349322 L142.914663,30.3349322 L142.914663,13.666666 Z M165.323996,24.3306657 L162.471996,17.1041326 L162.386662,17.1041326 L159.426662,24.3306657 L156.746662,24.3306657 L161.185329,14.230266 L158.654662,8.6119995 L161.250662,8.6119995 L168.090662,24.3306657 L165.323996,24.3306657 Z M151.214663,15.559866 C150.398663,15.559866 149.262663,15.9671993 149.262663,16.9754659 C149.262663,18.2619992 150.678663,18.7551992 151.899996,18.7551992 C152.994663,18.7551992 153.507996,18.5193325 154.173329,18.1973326 C153.979996,16.6535993 152.650663,15.559866 151.214663,15.559866 L151.214663,15.559866 Z M151.514663,24.6953324 C149.713329,24.6953324 147.847996,23.9015991 147.075996,22.1431991 L149.283996,21.2213325 C149.755996,22.1431991 150.634663,22.4437324 151.557329,22.4437324 C152.843996,22.4437324 154.151996,21.6713325 154.173329,20.2989325 L154.173329,20.1275992 C153.722662,20.3849325 152.758663,20.7707992 151.578663,20.7707992 C149.198663,20.7707992 146.774663,19.4630659 146.774663,17.0182659 C146.774663,14.7879993 148.726663,13.351066 150.913329,13.351066 C152.586663,13.351066 153.507996,14.1015993 154.087996,14.980666 L154.173329,14.980666 L154.173329,13.694266 L156.574662,13.694266 L156.574662,20.0849325 C156.574662,23.0437324 154.366662,24.6953324 151.514663,24.6953324 L151.514663,24.6953324 Z M136.138663,22.3015991 L132.599996,22.3015991 L132.599996,28.0150656 L136.138663,28.0150656 C137.998663,28.0150656 139.054663,26.4750657 139.054663,25.158399 C139.054663,23.8666657 137.998663,22.3015991 136.138663,22.3015991 Z M136.074663,30.3349322 L130.11333,30.3349322 L130.11333,13.666666 L132.599996,13.666666 L132.599996,19.9817325 L136.074663,19.9817325 C138.831996,19.9817325 141.542663,21.9781325 141.542663,25.158399 C141.542663,28.3385323 138.831996,30.3349322 136.074663,30.3349322 Z M103.566664,15.5567993 C101.847864,15.5567993 100.408797,16.9958659 100.408797,18.9723992 C100.408797,20.9697325 101.847864,22.4306658 103.566664,22.4306658 C105.263597,22.4306658 106.59533,20.9697325 106.59533,18.9723992 C106.59533,16.9958659 105.263597,15.5567993 103.566664,15.5567993 L103.566664,15.5567993 Z M106.423464,23.3973324 L106.337464,23.3973324 C105.779197,24.0630657 104.704664,24.6645324 103.351597,24.6645324 C100.51613,24.6645324 97.917197,22.1729325 97.917197,18.9723992 C97.917197,15.7931993 100.51613,13.3229327 103.351597,13.3229327 C104.704664,13.3229327 105.779197,13.9245327 106.337464,14.611466 L106.423464,14.611466 L106.423464,13.7953327 C106.423464,11.6254661 105.263597,10.4655994 103.394797,10.4655994 C101.86973,10.4655994 100.92453,11.5614661 100.537464,12.4849327 L98.368264,11.5827994 C98.991197,10.0791994 100.64533,8.2317328 103.394797,8.2317328 C106.31613,8.2317328 108.786397,9.9505328 108.786397,14.139066 L108.786397,24.3207991 L106.423464,24.3207991 L106.423464,23.3973324 Z M110.504664,13.666666 L112.996397,13.666666 L112.996397,30.3354656 L110.504664,30.3354656 L110.504664,13.666666 Z M116.66973,19.1655992 C116.605197,21.3567991 118.366663,22.4734658 119.633863,22.4734658 C120.622663,22.4734658 121.459997,21.9797325 121.738663,21.2702658 L116.66973,19.1655992 Z M124.402663,21.0557325 C123.930663,22.3234658 122.490663,24.6645324 119.547863,24.6645324 C116.62653,24.6645324 114.199463,22.3661324 114.199463,18.9937325 C114.199463,15.8145326 116.605197,13.3229327 119.827063,13.3229327 C122.426663,13.3229327 123.930663,14.9125326 124.55333,15.8359993 L122.619997,17.1250659 C121.975997,16.1797326 121.094663,15.5567993 119.827063,15.5567993 C118.559863,15.5567993 117.657863,16.1369326 117.077597,17.2750659 L124.659997,20.4114658 L124.402663,21.0557325 Z M63.9917314,22.9245324 L63.9917314,20.5187992 L69.7483979,20.5187992 C69.5765313,19.1655992 69.1254646,18.1775992 68.437998,17.4901326 C67.6005313,16.6521326 66.2901314,15.7286659 63.9917314,15.7286659 C60.4473315,15.7286659 57.6765316,18.5854659 57.6765316,22.1297325 C57.6765316,25.673999 60.4473315,28.531199 63.9917314,28.531199 C65.903598,28.531199 67.2994647,27.779199 68.3306646,26.8125323 L70.0275979,28.5093323 C68.5885313,29.8843989 66.6765313,30.9369322 63.9917314,30.9369322 C59.1369315,30.9369322 55.0557316,26.984399 55.0557316,22.1297325 C55.0557316,17.2750659 59.1369315,13.3229327 63.9917314,13.3229327 C66.6125313,13.3229327 68.5885313,14.1817327 70.1349313,15.7931993 C71.7245312,17.3827992 72.2187979,19.6166659 72.2187979,21.4207991 C72.2187979,21.9797325 72.1759979,22.4947991 72.0895979,22.9245324 L63.9917314,22.9245324 Z M78.7635977,15.5567993 C77.0447977,15.5567993 75.5625311,16.9745326 75.5625311,18.9937325 C75.5625311,21.0343991 77.0447977,22.4306658 78.7635977,22.4306658 C80.481731,22.4306658 81.9639976,21.0343991 81.9639976,18.9937325 C81.9639976,16.9745326 80.481731,15.5567993 78.7635977,15.5567993 L78.7635977,15.5567993 Z M78.7635977,24.6645324 C75.6270645,24.6645324 73.0707978,22.2802658 73.0707978,18.9937325 C73.0707978,15.7286659 75.6270645,13.3229327 78.7635977,13.3229327 C81.8994643,13.3229327 84.4557309,15.7286659 84.4557309,18.9937325 C84.4557309,22.2802658 81.8994643,24.6645324 78.7635977,24.6645324 Z M91.181197,15.5567993 C89.463064,15.5567993 87.980664,16.9745326 87.980664,18.9937325 C87.980664,21.0343991 89.463064,22.4306658 91.181197,22.4306658 C92.899464,22.4306658 94.381731,21.0343991 94.381731,18.9937325 C94.381731,16.9745326 92.899464,15.5567993 91.181197,15.5567993 Z M91.181197,24.6645324 C88.044797,24.6645324 85.4890642,22.2802658 85.4890642,18.9937325 C85.4890642,15.7286659 88.044797,13.3229327 91.181197,13.3229327 C94.317197,13.3229327 96.873464,15.7286659 96.873464,18.9937325 C96.873464,22.2802658 94.317197,24.6645324 91.181197,24.6645324" id="path48" fill="#FFFFFF" fill-rule="nonzero"></path>
                    <g id="g50" transform="translate(13.533333, 10.466666)">
                        <g id="g52-Clipped">
                            <g>
                                <mask id="mask-2" fill="white">
                                    <use xlink:href="#path-1"></use>
                                </mask>
                                <g id="path-1"></g>
                                <g id="g52" mask="url(#mask-2)" fill="url(#linearGradient-3)" fill-rule="nonzero">
                                    <path d="M0.813066646,0.0139999996 L0.713999982,0.108799997 C0.325999992,0.51933332 0.0969333309,1.15679997 0.0969333309,1.98226662 L0.0969333309,1.78799996 L0.0969333309,1.78799996 L0.0969333309,31.2759992 C0.0969333309,31.2786659 0.0969333309,31.2806659 0.0969333309,31.2827992 C0.0969333309,31.2802659 0.0969333309,31.2781326 0.0969333309,31.2754659 L0.0969333309,31.0806659 C0.0969333309,31.9745325 0.363999991,32.6478659 0.811466646,33.0515992 L17.3311996,16.5322663 L0.813066646,0.0139999996 M0.0969333309,31.2843992 C0.0969333309,31.3578659 0.0989333309,31.4291992 0.102666664,31.4994659 C0.0989333309,31.4297325 0.0969333309,31.3578659 0.0969333309,31.2843992" id="path72"></path>
                                </g>
                            </g>
                        </g>
                    </g>
                    <g id="g74" transform="translate(30.733332, 21.266666)">
                        <g id="g76-Clipped">
                            <g>
                                <mask id="mask-5" fill="white">
                                    <use xlink:href="#path-4"></use>
                                </mask>
                                <g id="path-4"></g>
                                <g id="g76" mask="url(#mask-5)" fill="url(#linearGradient-6)" fill-rule="nonzero">
                                    <path d="M5.63693319,0.0286666659 L5.63693319,0.0286666659 L5.76253319,0.0999999975 L12.2863997,3.8067999 C12.9083997,4.1603999 13.322933,4.58906655 13.529733,5.04266654 C13.3234663,4.58906655 12.9087997,4.15986656 12.2863997,3.80626657 L5.76253319,0.0994666642 L5.63693319,0.0286666659 M5.63853319,0.223999994 L0.131199997,5.73226652 L5.63799986,11.2395997 L12.2863997,7.46253315 C13.1306663,6.98279983 13.6046663,6.36453317 13.6838663,5.73279986 C13.6838663,5.73226652 13.6838663,5.73119986 13.6838663,5.73026652 C13.6046663,5.09999987 13.1306663,4.48119989 12.2863997,4.0015999 L5.63853319,0.223999994" id="path92"></path>
                                </g>
                            </g>
                        </g>
                    </g>
                    <g id="g94" transform="translate(14.199999, 9.799999)">
                        <g id="g96-Clipped">
                            <g>
                                <mask id="mask-8" fill="white">
                                    <use xlink:href="#path-7"></use>
                                </mask>
                                <g id="path-7"></g>
                                <g id="g96" mask="url(#mask-8)" fill="url(#linearGradient-9)" fill-rule="nonzero">
                                    <path d="M1.32399997,0.0515999987 C0.862533312,0.0515999987 0.459866655,0.201599995 0.145866663,0.484933321 L0.146399996,0.485466655 C0.460399988,0.202133328 0.863599978,0.0515999987 1.32506663,0.0515999987 C1.36506663,0.0515999987 1.4057333,0.0526666654 1.4469333,0.0546666653 C1.40519996,0.0526666654 1.36399997,0.0515999987 1.32399997,0.0515999987 M1.3245333,0.24693051 C0.863066645,0.246399994 0.460399988,0.396933323 0.146399996,0.68026665 L0.146399996,0.68026665 L0.146399996,0.68066665 L16.6645329,17.1989329 L22.1718661,11.6906664 L22.1718661,11.6906664 L2.8182666,0.694266649 C2.28279994,0.390666657 1.77546662,0.24693051 1.3245333,0.24693051" id="path108"></path>
                                </g>
                            </g>
                        </g>
                    </g>
                    <g id="g110" transform="translate(14.333333, 26.866666)">
                        <g id="g112-Clipped">
                            <g>
                                <mask id="mask-11" fill="white">
                                    <use xlink:href="#path-10"></use>
                                </mask>
                                <g id="path-10"></g>
                                <g id="g112" mask="url(#mask-11)" fill="url(#linearGradient-12)" fill-rule="nonzero">
                                    <path d="M16.5311996,0.132266663 L16.5311996,0.132266663 L0.0114666664,16.6515996 C0.325466659,16.9343996 0.727599982,17.0843996 1.1885333,17.0843996 C1.64066663,17.0843996 2.14839995,16.9401329 2.68493327,16.6359996 L22.0379994,5.63959986 L16.5311996,0.132266663 M22.1625328,5.76399986 L2.68493327,16.8306662 C2.14839995,17.1349329 1.64066663,17.2791996 1.1885333,17.2791996 C1.18639997,17.2791996 1.1849333,17.2791996 1.18279997,17.2791996 C1.18546664,17.2791996 1.18746664,17.2791996 1.19066664,17.2791996 C1.64173329,17.2791996 2.14893328,17.1354662 2.68493327,16.8311996 L22.1625328,5.76399986" id="path130"></path>
                                </g>
                            </g>
                        </g>
                    </g>
                    <path d="M15.6469326,9.8546661 C16.0661326,9.8786661 16.5302659,10.0229328 17.0182659,10.2994661 L36.3702654,21.2953325 L36.3702654,21.2953325 L17.0182659,10.2994661 C16.5306659,10.0223994 16.0661326,9.8786661 15.6469326,9.8546661" id="path132" fill="#000000" fill-rule="nonzero"></path>
                    <g id="g134" transform="translate(35.333332, 20.133332)">
                        <g id="g136-Clipped">
                            <g>
                                <mask id="mask-14" fill="white">
                                    <use xlink:href="#path-13"></use>
                                </mask>
                                <g id="path-13"></g>
                                <g id="g136" mask="url(#mask-14)" fill="url(#linearGradient-15)" fill-rule="nonzero">
                                    <polyline id="path152" points="1.03693333 1.162 1.03693333 1.162 1.16253333 1.23333333 1.03693333 1.162"></polyline>
                                </g>
                            </g>
                        </g>
                    </g>
                    <g id="g154" transform="translate(14.199999, 9.799999)">
                        <g id="g156-Clipped">
                            <g>
                                <mask id="mask-17" fill="white">
                                    <use xlink:href="#path-16"></use>
                                </mask>
                                <g id="path-16"></g>
                                <g id="g156" mask="url(#mask-17)" fill="url(#linearGradient-18)" fill-rule="nonzero">
                                    <path d="M1.32506663,0.0515999987 C0.863599978,0.0515999987 0.460399988,0.202133328 0.146399996,0.485466655 L0.145866663,0.484933321 C0.144799996,0.485999988 0.143199996,0.487466654 0.14173333,0.488533321 L0.0557333319,0.572399986 C0.0530666653,0.575066652 0.0505333321,0.578133319 0.0473333321,0.581199985 L0.146399996,0.68026665 C0.460399988,0.396933323 0.863066645,0.246399994 1.3245333,0.246933327 C1.77546662,0.246933327 2.28279994,0.390666657 2.8182666,0.694266649 L22.1718661,11.6906664 L22.2958661,11.5666664 L22.1702661,11.495333 L2.8182666,0.499466654 C2.33026661,0.222933328 1.86613329,0.0786666647 1.4469333,0.0546666653 C1.4057333,0.0526666653 1.36506663,0.0515999987 1.32506663,0.0515999987" id="path168"></path>
                                </g>
                            </g>
                        </g>
                    </g>
                    <path d="M14.2473327,10.3806661 C13.8593327,10.7911994 13.630266,11.4286661 13.630266,12.2541327 L13.630266,12.254666 C13.630266,11.4286661 13.8593327,10.7917327 14.2473327,10.3811994 L14.2473327,10.3811994 L14.2473327,10.3811994 L14.2473327,10.3806661" id="path170" fill="#000000" fill-rule="nonzero"></path>
                    <g id="g172" transform="translate(12.533333, 10.333333)">
                        <g id="g174-Clipped">
                            <g>
                                <mask id="mask-20" fill="white">
                                    <use xlink:href="#path-19"></use>
                                </mask>
                                <g id="path-19"></g>
                                <g id="g174" mask="url(#mask-20)" fill="url(#linearGradient-21)" fill-rule="nonzero">
                                    <path d="M1.71399998,0.0478666655 L1.71399998,0.0478666655 C1.32599999,0.458399989 1.09693333,1.09533331 1.09693333,1.92133329 L1.09693333,2.11559995 C1.09693333,1.2901333 1.32599999,0.65266665 1.71399998,0.242133327 L1.81306665,0.14733333 L1.71399998,0.0478666655" id="path194"></path>
                                </g>
                            </g>
                        </g>
                    </g>
                    <g id="g196" transform="translate(13.199999, 9.333333)">
                        <g id="g198-Clipped">
                            <g>
                                <mask id="mask-23" fill="white">
                                    <use xlink:href="#path-22"></use>
                                </mask>
                                <g id="path-22"></g>
                                <g id="g198" mask="url(#mask-23)" fill="url(#linearGradient-24)" fill-rule="nonzero">
                                    <polyline id="path210" points="1.04733333 1.04786667 1.04733333 1.04786667 1.04733333 1.04786667 1.1464 1.14733333 1.1464 1.14693333 1.04733333 1.04786667"></polyline>
                                </g>
                            </g>
                        </g>
                    </g>
                    <path d="M44.2630652,26.3093324 C44.3655986,26.534399 44.4171986,26.765599 44.4171986,26.9969323 C44.4171986,26.9973323 44.4171986,26.9978657 44.4171986,26.9978657 C44.4171986,26.7661323 44.3655986,26.5349323 44.2630652,26.3093324" id="path212" fill="#000000" fill-rule="nonzero"></path>
                    <g id="g214" transform="translate(36.333332, 21.266666)">
                        <g id="g216-Clipped">
                            <g>
                                <mask id="mask-26" fill="white">
                                    <use xlink:href="#path-25"></use>
                                </mask>
                                <g id="path-25"></g>
                                <g id="g216" mask="url(#mask-26)" fill="url(#linearGradient-27)" fill-rule="nonzero">
                                    <path d="M0.162533329,0.0999999975 L0.162533329,0.0999999975 L0.0385333324,0.223999994 L6.68639983,4.0015999 C7.53066648,4.48119989 8.00466647,5.1 8.08386646,5.73026652 C8.08386646,5.4989332 8.03226647,5.2677332 7.92973314,5.04266654 C7.72293314,4.58906655 7.30839982,4.1603999 6.68639983,3.8067999 L0.162533329,0.0999999975" id="path232"></path>
                                </g>
                            </g>
                        </g>
                    </g>
                    <path d="M44.4172022,26.9989323 L44.4172022,26.9994657 C44.4166652,27.6969323 43.9505319,28.3942656 43.0197319,28.9234656 L36.4958654,32.6302655 L36.4953321,32.6302655 L36.4958654,32.6306655 L43.0197319,28.923999 C43.9515986,28.394799 44.4182652,27.696399 44.4172022,26.9989323" id="path234" fill="#404040" fill-rule="nonzero"></path>
                    <g id="g236" transform="translate(36.333332, 26.999999)">
                        <g id="g238-Clipped">
                            <g>
                                <mask id="mask-29" fill="white">
                                    <use xlink:href="#path-28"></use>
                                </mask>
                                <g id="path-28"></g>
                                <g id="g238" mask="url(#mask-29)" fill="url(#linearGradient-30)" fill-rule="nonzero">
                                    <path d="M8.08386646,-0.00053333332 C8.00466647,0.631199984 7.53066648,1.24946664 6.68639983,1.72919996 L0.0379999991,5.50626653 L0.161999996,5.63026653 L0.162533329,5.63026653 L6.68639983,1.92346662 C7.61719981,1.39426663 8.08333313,0.696933316 8.08386646,-0.00053333332" id="path254"></path>
                                </g>
                            </g>
                        </g>
                    </g>
                    <path d="M13.6363993,41.9802653 C13.7135993,43.3499986 14.4583993,44.1411986 15.5119993,44.1458652 C15.0551993,44.1431986 14.6573326,43.9931986 14.345866,43.7125319 L14.345866,43.7130652 L14.3421326,43.7093319 C14.3093327,43.6797319 14.2781327,43.6483986 14.2473327,43.6161319 L14.2473327,43.6161319 C13.8973327,43.2458653 13.6765327,42.6911986 13.6363993,41.9802653" id="path256" fill="#404040" fill-rule="nonzero"></path>
                    <g id="g258" transform="translate(12.533333, 41.533332)">
                        <g id="g260-Clipped">
                            <g>
                                <mask id="mask-32" fill="white">
                                    <use xlink:href="#path-31"></use>
                                </mask>
                                <g id="path-31"></g>
                                <g id="g260" mask="url(#mask-32)" fill="url(#linearGradient-33)" fill-rule="nonzero">
                                    <path d="M1.09693333,0.0139999997 L1.09693333,0.208799995 C1.09693333,0.211466661 1.09693333,0.213599995 1.09693333,0.216133328 C1.09693333,0.216666661 1.09693333,0.217199995 1.09693333,0.217733328 C1.09693333,0.291199993 1.09893333,0.363066658 1.10266666,0.432799989 C1.10266666,0.433866656 1.10266666,0.434933322 1.10266666,0.435999989 C1.10266666,0.436933322 1.10266666,0.437999989 1.10306666,0.439066656 C1.10306666,0.441199989 1.10306666,0.443199989 1.10306666,0.445333322 C1.10306666,0.445866656 1.10306666,0.446399989 1.10306666,0.446933322 C1.1432,1.15786664 1.36399999,1.71253329 1.71399998,2.08279995 L1.71399998,2.08279995 L1.71399998,2.08279995 L1.81146665,1.98493328 C1.36399999,1.58119996 1.09693333,0.907866644 1.09693333,0.0139999997" id="path280"></path>
                                </g>
                            </g>
                        </g>
                    </g>
                    <path d="M15.5119993,44.1458652 C15.513066,44.1458652 15.5145326,44.1458652 15.5161326,44.1458652 C15.5145326,44.1458652 15.513066,44.1458652 15.5119993,44.1458652" id="path282" fill="#404040" fill-rule="nonzero"></path>
                    <g id="g284" transform="translate(14.199999, 32.466666)">
                        <g id="g286-Clipped">
                            <g>
                                <mask id="mask-35" fill="white">
                                    <use xlink:href="#path-34"></use>
                                </mask>
                                <g id="path-34"></g>
                                <g id="g286" mask="url(#mask-35)" fill="url(#linearGradient-36)" fill-rule="nonzero">
                                    <path d="M22.1713328,0.039599999 L2.8182666,11.0359997 C2.28173328,11.340133 1.77399996,11.4843997 1.32186663,11.4843997 C0.860933312,11.4843997 0.458799989,11.3343997 0.144799996,11.0515997 L0.0473333321,11.1494664 L0.0473333321,11.1494664 C0.0781333314,11.1817331 0.109333331,11.2130664 0.14213333,11.2426664 C0.143199996,11.2437331 0.144799996,11.2447997 0.145866663,11.2458664 C0.457333322,11.526533 0.855199979,11.676533 1.31199997,11.6791997 L1.31199997,11.6791997 C1.31306663,11.6791997 1.3145333,11.6791997 1.3161333,11.6791997 C1.31826663,11.6791997 1.3197333,11.6791997 1.32186663,11.6791997 C1.77399996,11.6791997 2.28173328,11.534933 2.8182666,11.2306664 L22.2958661,0.163999996 L22.2953328,0.163599996 L22.1713328,0.039599999" id="path304"></path>
                                </g>
                            </g>
                        </g>
                    </g>
                </g>
            </g>
        </g>
    </g>
</svg>