<svg fill="#68a2e6" viewBox="0 0 80 80" xmlns="http://www.w3.org/2000/svg"><path d="m17 9v3h-2v3c0 1.304.836 2.415125 2 2.828125v34.34375c-1.164.413-2 1.524125-2 2.828125v16h16 8 2 4.943359l-.935547-.537109-2.355468-1.351563.048828-.111328h-1.701172v-10h3.046875l-.283203-.634766-.613281-1.365234h-2.150391-2-8v1 11h-14v-14c0-.552.449-1 1-1h1v-38h-1c-.551 0-1-.448-1-1v-1h2v-3h42v3h2v1c0 .552-.449 1-1 1h-1v26.914062l2-1.808593v-23.277344c1.164-.413 2-1.524125 2-2.828125v-3h-2v-3zm5 7a1 1 0 0 0 -1 1 1 1 0 0 0 1 1 1 1 0 0 0 1-1 1 1 0 0 0 -1-1zm4 0a1 1 0 0 0 -1 1 1 1 0 0 0 1 1 1 1 0 0 0 1-1 1 1 0 0 0 -1-1zm4 0a1 1 0 0 0 -1 1 1 1 0 0 0 1 1 1 1 0 0 0 1-1 1 1 0 0 0 -1-1zm4 0a1 1 0 0 0 -1 1 1 1 0 0 0 1 1 1 1 0 0 0 1-1 1 1 0 0 0 -1-1zm4 0a1 1 0 0 0 -1 1 1 1 0 0 0 1 1 1 1 0 0 0 1-1 1 1 0 0 0 -1-1zm4 0a1 1 0 0 0 -1 1 1 1 0 0 0 1 1 1 1 0 0 0 1-1 1 1 0 0 0 -1-1zm4 0a1 1 0 0 0 -1 1 1 1 0 0 0 1 1 1 1 0 0 0 1-1 1 1 0 0 0 -1-1zm4 0a1 1 0 0 0 -1 1 1 1 0 0 0 1 1 1 1 0 0 0 1-1 1 1 0 0 0 -1-1zm4 0a1 1 0 0 0 -1 1 1 1 0 0 0 1 1 1 1 0 0 0 1-1 1 1 0 0 0 -1-1zm4 0a1 1 0 0 0 -1 1 1 1 0 0 0 1 1 1 1 0 0 0 1-1 1 1 0 0 0 -1-1zm-36 6v1 5h6v-6zm10 0v1 5h6v-6zm10 0v1 5h6v-6zm10 0v1 5h6v-6zm-28 2h2v2h-2zm10 0h2v2h-2zm10 0h2v2h-2zm10 0h2v2h-2zm-32 8v1 5h6v-6zm10 0v1 5h6v-6zm10 0v1 5h6v-6zm10 0v1 5h6v-6zm-28 2h2v2h-2zm10 0h2v2h-2zm10 0h2v2h-2zm10 0h2v2h-2zm-32 8v1 5h6v-6zm10 0v1 5h6v-6zm10 0v1 5h6v-6zm10 0v3.361328l1.123047.121094.876953.09375v-1.576172h2v1.792969l1.628906.173828.371094-.335938v-3.630859zm-28 2h2v2h-2zm10 0h2v2h-2zm10 0h2v2h-2zm19 1.150391-.671875.607421-3.683594 3.335938-5.841797-.628906-1.207031 5.75-5.095703 2.923828 2.404297 5.361328-2.404297 5.361328 5.095703 2.923828 1.207031 5.75 5.841797-.628906 4.355469 3.943359 4.355469-3.943359 5.841797.628906 1.207031-5.75 5.095703-2.923828-2.404297-5.361328 2.404297-5.361328-5.095703-2.923828-1.207031-5.75-5.841797.628906zm0 2.699218 3.677734 3.328125 4.933594-.53125 1.019531 4.857422 4.302735 2.46875-2.029297 4.527344 2.029297 4.527344-4.302735 2.46875-1.019531 4.857422-4.933594-.53125-3.677734 3.328125-3.677734-3.328125-4.933594.53125-1.019531-4.857422-4.302735-2.46875 2.029297-4.527344-2.029297-4.527344 4.302735-2.46875 1.019531-4.857422 4.933594.53125zm-41 4.150391a1 1 0 0 0 -1 1 1 1 0 0 0 1 1 1 1 0 0 0 1-1 1 1 0 0 0 -1-1zm4 0a1 1 0 0 0 -1 1 1 1 0 0 0 1 1 1 1 0 0 0 1-1 1 1 0 0 0 -1-1zm4 0a1 1 0 0 0 -1 1 1 1 0 0 0 1 1 1 1 0 0 0 1-1 1 1 0 0 0 -1-1zm4 0a1 1 0 0 0 -1 1 1 1 0 0 0 1 1 1 1 0 0 0 1-1 1 1 0 0 0 -1-1zm4 0a1 1 0 0 0 -1 1 1 1 0 0 0 1 1 1 1 0 0 0 1-1 1 1 0 0 0 -1-1zm4 0a1 1 0 0 0 -1 1 1 1 0 0 0 1 1 1 1 0 0 0 1-1 1 1 0 0 0 -1-1zm4 0a1 1 0 0 0 -1 1 1 1 0 0 0 1 1 1 1 0 0 0 1-1 1 1 0 0 0 -1-1zm-24 5v1 7h6v-8zm2 2h2v4h-2zm9 0h6v10h-6z" fill="#68a2e6"/></svg>