<?xml version="1.0" encoding="UTF-8"?>
<svg width="324px" height="324px" viewBox="0 0 324 324" version="1.1" xmlns="http://www.w3.org/2000/svg" xmlns:xlink="http://www.w3.org/1999/xlink">
    <!-- Generator: Sketch 64 (93537) - https://sketch.com -->
    <title>Group</title>
    <desc>Created with Sketch.</desc>
    <defs>
        <linearGradient x1="100%" y1="0%" x2="0%" y2="100%" id="linearGradient-1">
            <stop stop-color="#C9A1F0" offset="0%"></stop>
            <stop stop-color="#7AB2EB" offset="100%"></stop>
        </linearGradient>
    </defs>
    <g id="Screens" stroke="none" stroke-width="1" fill="none" fill-rule="evenodd">
        <g id="Splashscreen" transform="translate(-25.000000, -243.000000)">
            <g id="Group" transform="translate(25.000000, 243.000000)">
                <circle id="Oval-Copy" fill="#E0C3FC" opacity="0.5" cx="108" cy="108" r="108"></circle>
                <circle id="Oval-Copy-3" fill="#E0C3FC" opacity="0.5" cx="216" cy="108" r="108"></circle>
                <circle id="Oval-Copy-2" fill="#8EC5FC" opacity="0.5" cx="216" cy="216" r="108"></circle>
                <circle id="Oval-Copy-4" fill="#8EC5FC" opacity="0.5" cx="108" cy="216" r="108"></circle>
                <circle id="Combined-Shape" fill="url(#linearGradient-1)" cx="162" cy="162" r="108"></circle>
                <g id="Group-2" transform="translate(92.000000, 104.000000)" fill="#FFFFFF">
                    <g id="Group-3">
                        <path d="M66.1866667,63.12 C71.7066667,63.12 76.0266667,67.44 76.0266667,72.84 C76.0266667,78.12 71.7066667,82.56 66.1866667,82.56 C60.7866667,82.56 56.5866667,78.12 56.5866667,72.84 C56.5866667,67.44 60.7866667,63.12 66.1866667,63.12 Z M137.053333,-2.13162821e-14 L135.253333,11.4 L105.013333,11.4 L105.013333,31.44 C109.093333,29.4 113.293333,28.44 117.253333,28.44 C130.693333,28.44 140.413333,38.04 140.413333,54.48 C140.413333,71.04 128.533333,82.56 110.293333,82.56 C99.0133333,82.56 91.0933333,78 84.8533333,71.16 L84.8533333,71.16 L93.6133333,63 C98.0533333,67.92 103.213333,70.68 109.933333,70.68 C118.933333,70.68 124.573333,64.92 124.573333,54.48 C124.573333,43.32 119.053333,39.48 111.613333,39.48 C107.893333,39.48 104.893333,40.32 101.173333,42.24 L101.173333,42.24 L90.2533333,42.24 L90.2533333,-2.13162821e-14 L137.053333,-2.13162821e-14 Z M39.84,1.0658141e-13 L39.84,80.76 L24.72,80.76 L24.72,15.48 L6.72,26.4 L3.01980663e-13,16.08 L26.28,1.0658141e-13 L39.84,1.0658141e-13 Z" id="Combined-Shape"></path>
                        <g id="icons8-ruler" transform="translate(1.000000, 99.000000)" fill-rule="nonzero">
                            <path d="M0,0.493846154 L0,16.4938462 L140,16.4938462 L140,0.493846154 L0,0.493846154 Z M2.01923077,2.49384615 L5.04807692,2.49384615 L5.04807692,9.49384615 L7.06730769,9.49384615 L7.06730769,2.49384615 L9.08653846,2.49384615 L9.08653846,6.49384615 L11.1057692,6.49384615 L11.1057692,2.49384615 L13.125,2.49384615 L13.125,9.49384615 L15.1442308,9.49384615 L15.1442308,2.49384615 L17.1634615,2.49384615 L17.1634615,6.49384615 L19.1826923,6.49384615 L19.1826923,2.49384615 L21.2019231,2.49384615 L21.2019231,9.49384615 L23.2211538,9.49384615 L23.2211538,2.49384615 L25.2403846,2.49384615 L25.2403846,6.49384615 L27.2596154,6.49384615 L27.2596154,2.49384615 L30.2884615,2.49384615 L30.2884615,14.4938462 L2.01923077,14.4938462 L2.01923077,2.49384615 Z M28.9423077,2.49384615 L31.9711538,2.49384615 L31.9711538,9.49384615 L33.9903846,9.49384615 L33.9903846,2.49384615 L36.0096154,2.49384615 L36.0096154,6.49384615 L38.0288462,6.49384615 L38.0288462,2.49384615 L40.0480769,2.49384615 L40.0480769,9.49384615 L42.0673077,9.49384615 L42.0673077,2.49384615 L44.0865385,2.49384615 L44.0865385,6.49384615 L46.1057692,6.49384615 L46.1057692,2.49384615 L48.125,2.49384615 L48.125,9.49384615 L50.1442308,9.49384615 L50.1442308,2.49384615 L52.1634615,2.49384615 L52.1634615,6.49384615 L54.1826923,6.49384615 L54.1826923,2.49384615 L57.2115385,2.49384615 L57.2115385,14.4938462 L28.9423077,14.4938462 L28.9423077,2.49384615 Z M55.8653846,2.49384615 L58.8942308,2.49384615 L58.8942308,9.49384615 L60.9134615,9.49384615 L60.9134615,2.49384615 L62.9326923,2.49384615 L62.9326923,6.49384615 L64.9519231,6.49384615 L64.9519231,2.49384615 L66.9711538,2.49384615 L66.9711538,9.49384615 L68.9903846,9.49384615 L68.9903846,2.49384615 L71.0096154,2.49384615 L71.0096154,6.49384615 L73.0288462,6.49384615 L73.0288462,2.49384615 L75.0480769,2.49384615 L75.0480769,9.49384615 L77.0673077,9.49384615 L77.0673077,2.49384615 L79.0865385,2.49384615 L79.0865385,6.49384615 L81.1057692,6.49384615 L81.1057692,2.49384615 L84.1346154,2.49384615 L84.1346154,14.4938462 L55.8653846,14.4938462 L55.8653846,2.49384615 Z M82.7884615,2.49384615 L85.8173077,2.49384615 L85.8173077,9.49384615 L87.8365385,9.49384615 L87.8365385,2.49384615 L89.8557692,2.49384615 L89.8557692,6.49384615 L91.875,6.49384615 L91.875,2.49384615 L93.8942308,2.49384615 L93.8942308,9.49384615 L95.9134615,9.49384615 L95.9134615,2.49384615 L97.9326923,2.49384615 L97.9326923,6.49384615 L99.9519231,6.49384615 L99.9519231,2.49384615 L101.971154,2.49384615 L101.971154,9.49384615 L103.990385,9.49384615 L103.990385,2.49384615 L106.009615,2.49384615 L106.009615,6.49384615 L108.028846,6.49384615 L108.028846,2.49384615 L111.057692,2.49384615 L111.057692,14.4938462 L82.7884615,14.4938462 L82.7884615,2.49384615 Z M109.711538,2.49384615 L112.740385,2.49384615 L112.740385,9.49384615 L114.759615,9.49384615 L114.759615,2.49384615 L116.778846,2.49384615 L116.778846,6.49384615 L118.798077,6.49384615 L118.798077,2.49384615 L120.817308,2.49384615 L120.817308,9.49384615 L122.836538,9.49384615 L122.836538,2.49384615 L124.855769,2.49384615 L124.855769,6.49384615 L126.875,6.49384615 L126.875,2.49384615 L128.894231,2.49384615 L128.894231,9.49384615 L130.913462,9.49384615 L130.913462,2.49384615 L132.932692,2.49384615 L132.932692,6.49384615 L134.951923,6.49384615 L134.951923,2.49384615 L137.980769,2.49384615 L137.980769,14.4938462 L109.711538,14.4938462 L109.711538,2.49384615 Z" id="Shape"></path>
                        </g>
                    </g>
                </g>
            </g>
        </g>
    </g>
</svg>