<svg xmlns="http://www.w3.org/2000/svg" width="73" height="11" viewBox="0 0 73 11">
  <defs>
    <linearGradient id="logo-full-dark-gradient-a" x1="8.923%" x2="91.871%" y1="50%" y2="50%">
      <stop offset="0%" stop-color="#7CB7FF"/>
      <stop offset="100%" stop-color="#BA6DF6"/>
    </linearGradient>
  </defs>
  <g fill="none">
    <path fill="#17054B" d="M15.5005754,2.32480341 L16.8730754,2.32480341 L16.8730754,6.41230341 L19.1005754,6.41230341 L19.1005754,7.58230341 L15.5005754,7.58230341 L15.5005754,2.32480341 Z M19.2655754,2.32480341 L23.7730754,2.32480341 L23.7730754,3.45730341 L22.1980754,3.45730341 L22.1980754,7.58230341 L20.8255754,7.58230341 L20.8255754,3.45730341 L19.2655754,3.45730341 L19.2655754,2.32480341 Z M26.8330754,2.28730341 C28.4605754,2.28730341 29.6755754,3.42730341 29.6755754,4.94980341 C29.6755754,6.48730341 28.4605754,7.64230341 26.8330754,7.64230341 C25.2055754,7.64230341 23.9905754,6.48730341 23.9905754,4.94980341 C23.9905754,3.41980341 25.2055754,2.28730341 26.8330754,2.28730341 Z M26.8480754,3.45730341 C26.0605754,3.45730341 25.4005754,4.10230341 25.4005754,4.95730341 C25.4005754,5.81230341 26.0680754,6.47230341 26.8480754,6.47230341 C27.6355754,6.47230341 28.2655754,5.81230341 28.2655754,4.95730341 C28.2655754,4.10230341 27.6355754,3.45730341 26.8480754,3.45730341 Z M32.6080754,2.32480341 L33.8155754,2.32480341 L36.2005754,5.48980341 L36.2005754,2.32480341 L37.4755754,2.32480341 L37.4755754,7.58230341 L36.2755754,7.58230341 L33.8905754,4.43230341 L33.8905754,7.58230341 L32.6080754,7.58230341 L32.6080754,2.32480341 Z M38.5030754,2.32480341 L42.6505754,2.32480341 L42.6505754,3.41980341 L39.8755754,3.41980341 L39.8755754,4.40230341 L42.3805754,4.40230341 L42.3805754,5.48980341 L39.8755754,5.49730341 L39.8755754,6.48730341 L42.7255754,6.48730341 L42.7255754,7.58230341 L38.5030754,7.58230341 L38.5030754,2.32480341 Z M43.1080754,2.32480341 L47.6155754,2.32480341 L47.6155754,3.45730341 L46.0405754,3.45730341 L46.0405754,7.58230341 L44.6680754,7.58230341 L44.6680754,3.45730341 L43.1080754,3.45730341 L43.1080754,2.32480341 Z M47.6455754,2.32480341 L49.1230754,2.32480341 L50.1205754,6.12730341 L51.1105754,2.32480341 L52.4530754,2.32480341 L53.4505754,6.12730341 L54.4405754,2.32480341 L55.8505754,2.32480341 L54.1180754,7.58230341 L52.7005754,7.58230341 L51.7555754,4.03480341 L50.7805754,7.58230341 L49.3705754,7.58230341 L47.6455754,2.32480341 Z M58.8130754,2.28730341 C60.4405754,2.28730341 61.6555754,3.42730341 61.6555754,4.94980341 C61.6555754,6.48730341 60.4405754,7.64230341 58.8130754,7.64230341 C57.1855754,7.64230341 55.9705754,6.48730341 55.9705754,4.94980341 C55.9705754,3.41980341 57.1855754,2.28730341 58.8130754,2.28730341 Z M58.8280754,3.45730341 C58.0405754,3.45730341 57.3805754,4.10230341 57.3805754,4.95730341 C57.3805754,5.81230341 58.0480754,6.47230341 58.8280754,6.47230341 C59.6155754,6.47230341 60.2455754,5.81230341 60.2455754,4.95730341 C60.2455754,4.10230341 59.6155754,3.45730341 58.8280754,3.45730341 Z M67.0480754,7.58230341 L65.4955754,7.58230341 L64.7305754,6.12730341 L63.7105754,6.12730341 L63.7105754,7.58230341 L62.3380754,7.58230341 L62.3380754,2.32480341 L64.7005754,2.32480341 C66.0955754,2.32480341 66.8905754,2.99980341 66.8905754,4.16980341 C66.8905754,4.96480341 66.5605754,5.54980341 65.9530754,5.86480341 L67.0480754,7.58230341 Z M63.7105754,3.41980341 L63.7105754,5.03230341 L64.7080754,5.03230341 C65.2630754,5.03230341 65.5855754,4.74730341 65.5855754,4.21480341 C65.5855754,3.69730341 65.2630754,3.41980341 64.7080754,3.41980341 L63.7105754,3.41980341 Z M72.8230754,7.58230341 L71.1805754,7.58230341 L69.8155754,5.54980341 L69.1405754,6.29980341 L69.1405754,7.58230341 L67.7680754,7.58230341 L67.7680754,2.32480341 L69.1405754,2.32480341 L69.1405754,4.52980341 L71.1130754,2.32480341 L72.7030754,2.32480341 L70.7530754,4.49980341 L72.8230754,7.58230341 Z"/>
    <path fill="url(#logo-full-dark-gradient-a)" d="M7.1213272,0.0962792482 L5.99336402,1.22428078 L6.22171078,1.45262754 C6.3500959,1.58101266 6.55841964,1.58093594 6.68672804,1.45262754 L7.81472957,0.324626007 L7.58638282,0.0962792482 C7.52217108,0.0320675105 7.43801304,0 7.35385501,0 C7.26965861,0 7.18553893,0.0321058688 7.1213272,0.0962792482 L7.1213272,0.0962792482 Z M4.26804756,0.0962792482 L4.03966245,0.324626007 L5.16770234,1.45262754 C5.29601074,1.58093594 5.50429613,1.58101266 5.6327196,1.45262754 L5.86106636,1.22428078 L4.73306483,0.0962792482 C4.66889145,0.0321058688 4.58473341,0 4.50053702,0 C4.41637898,0 4.33222094,0.0320675105 4.26804756,0.0962792482 Z M8.1835443,1.57207518 L6.05216724,3.70345224 L6.48369774,4.13494438 C6.72623705,4.3774837 7.11986958,4.37740698 7.36233218,4.13494438 L9.49370924,2.00356732 L9.06217875,1.57207518 C8.94088991,1.45078634 8.78185654,1.39018028 8.62286153,1.39018028 C8.46382815,1.39018028 8.30475643,1.4508247 8.1835443,1.57207518 L8.1835443,1.57207518 Z M2.79225163,1.57207518 L2.36072114,2.00356732 L4.4920982,4.13494438 C4.73452244,4.37740698 5.12819333,4.3774837 5.37073264,4.13494438 L5.80222478,3.70345224 L3.67088608,1.57207518 C3.54967395,1.4508247 3.39060222,1.39021864 3.23156885,1.39018028 C3.07253548,1.39018028 2.91354047,1.45078634 2.79225163,1.57207518 L2.79225163,1.57207518 Z M5.69470656,1.52289988 L5.46632144,1.751285 L5.92719601,2.21215957 L6.38807058,1.751285 L6.15972382,1.52289988 C6.09555044,1.45872651 6.01139241,1.42662064 5.92719601,1.42662064 C5.84303797,1.42662064 5.75887994,1.45872651 5.69470656,1.52289988 Z M9.6770234,3.64721903 L6.13486766,7.1893364 L6.85201381,7.90644419 C7.25515919,8.30958957 7.90932106,8.30939778 8.31227465,7.90644419 L11.854392,4.36432681 L11.1372842,3.64721903 C10.9357115,3.44564634 10.6714614,3.34491752 10.407173,3.34491752 C10.1428845,3.34491752 9.87851937,3.44572305 9.6770234,3.64721903 L9.6770234,3.64721903 Z M0.717107787,3.64721903 L0,4.36432681 L3.54215573,7.90644419 C3.94507096,8.30939778 4.59927119,8.30958957 5.00237821,7.90644419 L5.71952436,7.1893364 L2.17736862,3.64721903 C1.97587265,3.44572305 1.71150748,3.34491752 1.44721903,3.34491752 C1.18293057,3.34491752 0.918680476,3.44564634 0.717107787,3.64721903 Z M5.48787879,4.26770234 L5.05638665,4.69919448 L5.92719601,5.57004219 L6.79800537,4.69919448 L6.36655159,4.26770234 C6.24530111,4.14649022 6.08622938,4.08584578 5.92719601,4.08584578 C5.76816264,4.08580744 5.60916763,4.14645186 5.48787879,4.26770234 Z M5.19708477,8.12715765 L4.47997699,8.8443038 L5.92719601,10.2914845 L7.37441504,8.8443038 L6.65734561,8.12715765 C6.45584964,7.92566168 6.19148446,7.8248945 5.92719601,7.8248945 C5.66290756,7.82485616 5.39865746,7.92558496 5.19708477,8.12715765 L5.19708477,8.12715765 Z"/>
  </g>
</svg>
