<svg height="32" viewBox="0 0 32 32" width="32" xmlns="http://www.w3.org/2000/svg" xmlns:xlink="http://www.w3.org/1999/xlink"><linearGradient id="a" x1="100%" x2="0%" y1="0%" y2="100%"><stop offset="0" stop-color="#3a89d8"/><stop offset="1" stop-color="#001a3f"/></linearGradient><g fill="none" fill-rule="evenodd" transform="translate(2 2)"><circle cx="9.312073" cy="9.312073" fill="#0882ec" opacity=".5" r="9.312073"/><circle cx="18.687927" cy="9.312073" fill="#0882ec" opacity=".5" r="9.312073"/><circle cx="18.687927" cy="18.687927" fill="#32c5ff" opacity=".5" r="9.312073"/><circle cx="9.312073" cy="18.687927" fill="#32c5ff" opacity=".5" r="9.312073"/><circle cx="14.031891" cy="14.031891" fill="url(#a)" r="9.312073"/><g fill="#fff" transform="translate(7.972665 9.056948)"><path d="m5.69845472 5.41411044c.47525388 0 .8471917.37054748.8471917.83373183 0 .45289137-.37193782.83373184-.8471917.83373184-.46492227 0-.82652848-.38084047-.82652848-.83373184 0-.46318435.36160621-.83373183.82652848-.83373183zm6.10138738-5.41411044-.1549741.97783363h-2.60356474v1.7189286c.35127461-.17498075.71288082-.25732464 1.05382384-.25732464 1.1571399 0 1.994.82343885 1.994 2.23357788 0 1.42043202-1.022829 2.40855864-2.59323317 2.40855864-.97117097 0-1.65305697-.39113345-2.19030048-.97783363l.75420724-.69992303c.38226942.42201241.82652848.65875108 1.40509842.65875108.77487049 0 1.26045599-.49406331 1.26045599-1.38955306 0-.95724766-.4752539-1.2866232-1.1158135-1.2866232-.32027979 0-.57856994.0720509-.89884973.23673867h-.94017615v-3.62313094zm-8.36974889 0v6.92717933h-1.30178236v-5.59938418l-1.54974091.93666169-.57856994-.88519677 2.26262173-1.37926007z"/><path d="m0 .00001965v1.37239809h12.0535404v-1.37239809zm.17384914.17154976h.26077371v.60042417h.17384914v-.60042417h.17384914v.34309953h.17384914v-.34309953h.17384914v.60042417h.17384914v-.60042417h.17384914v.34309953h.17384915v-.34309953h.17384914v.60042417h.17384914v-.60042417h.17384914v.34309953h.17384914v-.34309953h.26077371v1.02929857h-2.43388797zm2.31798854 0h.26077371v.60042417h.17384914v-.60042417h.17384914v.34309953h.17384914v-.34309953h.17384914v.60042417h.17384914v-.60042417h.17384915v.34309953h.17384914v-.34309953h.17384914v.60042417h.17384914v-.60042417h.17384914v.34309953h.17384914v-.34309953h.26077371v1.02929857h-2.43388797zm2.31798854 0h.26077371v.60042417h.17384914v-.60042417h.17384914v.34309953h.17384914v-.34309953h.17384914v.60042417h.17384915v-.60042417h.17384914v.34309953h.17384914v-.34309953h.17384914v.60042417h.17384914v-.60042417h.17384914v.34309953h.17384914v-.34309953h.26077371v1.02929857h-2.43388797zm2.31798854 0h.26077371v.60042417h.17384914v-.60042417h.17384914v.34309953h.17384914v-.34309953h.17384915v.60042417h.17384914v-.60042417h.17384914v.34309953h.17384914v-.34309953h.17384914v.60042417h.17384914v-.60042417h.17384914v.34309953h.17384914v-.34309953h.26077371v1.02929857h-2.43388797zm2.31798854 0h.26077371v.60042417h.17384914v-.60042417h.17384915v.34309953h.1738491v-.34309953h.1738492v.60042417h.1738491v-.60042417h.1738492v.34309953h.1738491v-.34309953h.1738491v.60042417h.1738492v-.60042417h.1738491v.34309953h.1738492v-.34309953h.2607737v1.02929857h-2.433888z" fill-rule="nonzero" transform="translate(.086097 8.534053)"/></g></g></svg>