<svg height="776" viewBox="0 0 1124 776" width="1124" xmlns="http://www.w3.org/2000/svg"><g fill="none" transform="translate(-38 -62)"><ellipse cx="600" cy="801" fill="#3f3d56" rx="562" ry="37"/><ellipse cx="572" cy="278" fill="#c9a1f0" rx="58" ry="53"/><path d="m674.5 763.5s-123.5 49.5-211 1l.81-14 7.54-130 7.13-123 8.52-147h164l7.88 147 6.6 123 6.97 130z" fill="#3f3d56"/><path d="m674.5 763.5s-113.5 50.5-211 1l.81-14h208.64z" fill="#c9a1f0"/><path d="m665.98 620.5h-194.13l7.13-123h180.4z" fill="#c9a1f0"/><g fill="#3f3d56"><path d="m477.5 334.5h184v20h-184z"/><path d="m477.5 267.5h184v20h-184z"/><path d="m493.5 287.5h11v52h-11z"/><path d="m522.5 287.5h11v52h-11z"/><path d="m551.5 287.5h11v52h-11z"/><path d="m580.5 287.5h11v52h-11z"/><path d="m609.5 287.5h11v52h-11z"/><path d="m522.5 208h11v68.5h-11z"/><path d="m551.5 208h11v68.5h-11z"/><path d="m580.5 208h11v68.5h-11z"/><path d="m609.5 208h11v68.5h-11z"/><path d="m638.5 287.5h11v52h-11z"/><path d="m494 216h11v61h-11z"/><path d="m639 216h11v61h-11z"/><path d="m662 227.5h-184v-60l92-74.5 92 74.5z"/></g><circle cx="572" cy="277" fill="#c9a1f0" opacity=".3" r="154.69512"/><circle cx="572" cy="277" fill="#c9a1f0" opacity=".3" r="215"/><path d="m89.40863 754.73447c6.07317 22.45005 26.87512 36.35394 26.87512 36.35394s10.95541-22.49485 4.88225-44.94491-26.87512-36.35394-26.87512-36.35394-10.95541 22.49485-4.88225 44.94491z" fill="#8985a8"/><path d="m98.33272 749.90971c16.66484 16.22255 18.70033 41.1604 18.70033 41.1604s-24.98356-1.36411-41.64841-17.58667-18.70033-41.16044-18.70033-41.16044 24.98356 1.36415 41.64841 17.58671z" fill="#3f3d56"/><g transform="translate(225.06611 656.1498)"><path d="m129.69124 66.2584c-8.95314 33.09618-39.61966 53.59348-39.61966 53.59348s-16.15062-33.16222-7.19748-66.2584 39.61966-53.59348 39.61966-53.59348 16.15062 33.1622 7.19748 66.2584z" fill="#8985a8"/><path d="m48.24265 66.2584c8.95314 33.09618 39.61966 53.59348 39.61966 53.59348s16.15062-33.16222 7.19748-66.2584-39.61967-53.59348-39.61967-53.59348-16.15061 33.1622-7.19747 66.2584z" fill="#8985a8"/><g fill="#3f3d56"><path d="m61.39865 59.14567c24.56755 23.91552 27.56829 60.67923 27.56829 60.67923s-36.83111-2.011-61.39865-25.92651-27.56829-60.67919-27.56829-60.67919 36.83111 2.011 61.39865 25.92647z"/><path d="m116.53523 59.14567c-24.56754 23.91553-27.56829 60.67923-27.56829 60.67923s36.83112-2.011 61.39866-25.92651 27.56829-60.67919 27.56829-60.67919-36.83111 2.011-61.39866 25.92647z"/></g></g><g transform="matrix(.93969262 .34202014 -.34202014 .93969262 830.954675 639.32845)"><path d="m129.69124 66.2584c-8.95314 33.09618-39.61966 53.59348-39.61966 53.59348s-16.15062-33.16222-7.19748-66.2584 39.61966-53.59348 39.61966-53.59348 16.15062 33.1622 7.19748 66.2584z" fill="#8985a8"/><path d="m48.24265 66.2584c8.95314 33.09618 39.61966 53.59348 39.61966 53.59348s16.15062-33.16222 7.19748-66.2584-39.61967-53.59348-39.61967-53.59348-16.15061 33.1622-7.19747 66.2584z" fill="#8985a8"/><g fill="#3f3d56"><path d="m61.39865 59.14567c24.56755 23.91552 27.56829 60.67923 27.56829 60.67923s-36.83111-2.011-61.39865-25.92651-27.56829-60.67919-27.56829-60.67919 36.83111 2.011 61.39865 25.92647z"/><path d="m116.53523 59.14567c-24.56754 23.91553-27.56829 60.67923-27.56829 60.67923s36.83112-2.011 61.39866-25.92651 27.56829-60.67919 27.56829-60.67919-36.83111 2.011-61.39866 25.92647z"/></g></g></g></svg>