<svg width="24" height="24" viewBox="0 0 24 24" fill="none" xmlns="http://www.w3.org/2000/svg">
<path d="M11.927 21.562C13.894 21.562 15.5168 20.9705 16.4886 20.5055C17.0523 20.2358 17.1866 19.5404 16.8308 19.0266C16.4649 18.4979 15.7223 18.3689 15.1396 18.6406C14.386 18.992 13.2622 19.3723 11.927 19.3723C7.83942 19.3723 4.48175 16.0146 4.48175 11.781C4.48175 7.54744 7.83942 4.18978 11.927 4.18978C16.1606 4.18978 19.5182 7.54744 19.5182 11.489C19.5182 13.6788 18.6423 14.5547 17.7664 14.5547C16.8905 14.5547 16.3066 13.9708 16.3066 12.365V8.08448C16.3066 7.46538 15.8047 6.9635 15.1856 6.9635C14.7183 6.9635 14.3001 7.25336 14.136 7.69088L13.9708 8.13138C13.9708 8.13138 12.9489 6.67153 11.1971 6.67153C8.71533 6.67153 6.67153 8.71533 6.67153 11.781C6.67153 14.8467 8.71533 16.8905 11.2555 16.8905C13.3869 16.8905 14.5547 15.1387 14.5547 15.1387C14.5547 15.1387 15.5766 16.8905 17.7664 16.8905C20.1022 16.8905 22 14.9927 22 11.489C22 6.37956 17.6204 2 11.927 2C6.37956 2 2 6.37956 2 11.781C2 17.1825 6.37956 21.562 11.927 21.562ZM11.635 14.5547C10.3212 14.5547 9.15328 13.3869 9.15328 11.781C9.15328 10.1752 10.3212 9.0073 11.635 9.0073C12.9489 9.0073 14.1168 10.1752 14.1168 11.781C14.1168 13.3869 12.9489 14.5547 11.635 14.5547Z" fill="#17054B"/>
</svg>
