<svg width="24" height="24" viewBox="0 0 24 24" fill="none" xmlns="http://www.w3.org/2000/svg">
<path fill-rule="evenodd" clip-rule="evenodd" d="M3.83784 6.67814L10.1003 1.55432C11.2054 0.650147 12.7946 0.650148 13.8997 1.55432L20.1622 6.67814C20.3672 6.84588 20.5435 7.03398 20.6913 7.23676C21.4856 7.77964 22 8.69208 22 9.71498V14.5581C22 15.4695 21.5857 16.3314 20.8741 16.9007L13.8741 22.5007C12.7784 23.3773 11.2216 23.3773 10.1259 22.5007L3.12592 16.9007C2.41427 16.3314 2 15.4695 2 14.5581V9.71498C2 8.69208 2.51442 7.77964 3.30875 7.23675C3.45647 7.03398 3.63283 6.84587 3.83784 6.67814ZM4 11.4546V14.5581C4 14.8619 4.13809 15.1492 4.37531 15.339L11.3753 20.939C11.7405 21.2312 12.2595 21.2312 12.6247 20.939L19.6247 15.339C19.8619 15.1492 20 14.8619 20 14.5581V11.4546L13.8997 16.4457C12.7946 17.3499 11.2054 17.3499 10.1003 16.4457L4 11.4546Z" fill="#17054B"/>
</svg>
