<svg width="24" height="24" viewBox="0 0 24 24" fill="none" xmlns="http://www.w3.org/2000/svg">
<path fill-rule="evenodd" clip-rule="evenodd" d="M4 2C2.89543 2 2 2.89543 2 4V20C2 21.1046 2.89543 22 4 22H20C21.1046 22 22 21.1046 22 20V4C22 2.89543 21.1046 2 20 2H4ZM13.2425 7.02985C13.7783 7.1638 14.1041 7.70673 13.9701 8.24253L11.9701 16.2425C11.8362 16.7783 11.2933 17.1041 10.7575 16.9701C10.2217 16.8362 9.8959 16.2933 10.0299 15.7575L12.0299 7.75746C12.1638 7.22166 12.7067 6.8959 13.2425 7.02985ZM7.70711 10.7071C8.09763 10.3166 8.09763 9.68342 7.70711 9.29289C7.31658 8.90237 6.68342 8.90237 6.29289 9.29289L4.29289 11.2929C3.90237 11.6834 3.90237 12.3166 4.29289 12.7071L6.29289 14.7071C6.68342 15.0976 7.31658 15.0976 7.70711 14.7071C8.09763 14.3166 8.09763 13.6834 7.70711 13.2929L6.41421 12L7.70711 10.7071ZM16.2929 13.2929C15.9024 13.6834 15.9024 14.3166 16.2929 14.7071C16.6834 15.0976 17.3166 15.0976 17.7071 14.7071L19.7071 12.7071C19.8946 12.5196 20 12.2652 20 12C20 11.7348 19.8946 11.4804 19.7071 11.2929L17.7071 9.29289C17.3166 8.90237 16.6834 8.90237 16.2929 9.29289C15.9024 9.68342 15.9024 10.3166 16.2929 10.7071L17.5858 12L16.2929 13.2929Z" fill="#17054B"/>
</svg>
