<svg width="24" height="24" viewBox="0 0 24 24" fill="none" xmlns="http://www.w3.org/2000/svg">
<path fill-rule="evenodd" clip-rule="evenodd" d="M21.7773 8.99999H15V2.22269C18.3639 2.9858 21.0142 5.63604 21.7773 8.99999ZM13.9993 0.0447612C13.4492 -0.00476977 13 0.4477 13 0.999985V9.99999C13 10.5523 13.4477 11 14 11H23C23.5523 11 24.0048 10.5508 23.9552 10.0007C23.48 4.723 19.277 0.520004 13.9993 0.0447612ZM11 2.99998C11 2.4477 10.5508 1.99523 10.0007 2.04476C4.39389 2.54964 0 7.26169 0 13C0 19.0751 4.92487 24 11 24C16.7383 24 21.4503 19.6061 21.9552 13.9992C22.0048 13.4492 21.5523 13 21 13H12C11.4477 13 11 12.5523 11 12V2.99998Z" fill="#17054B"/>
</svg>
