<svg width="16" height="16" viewBox="0 0 16 16" fill="none" xmlns="http://www.w3.org/2000/svg">
<g clip-path="url(#clip0)">
<circle cx="8" cy="8" r="8" fill="#C3CDD6"/>
<path d="M7.86 13.08C8.34 13.08 8.66 12.76 8.66 12.28C8.66 11.8 8.34 11.48 7.86 11.48C7.38 11.48 7.06 11.8 7.06 12.28C7.06 12.76 7.38 13.08 7.86 13.08ZM7.22 10.44H8.5V10.28C8.5 7.72 10.82 8.04 10.82 5.496C10.82 3.96 9.62 2.84 8.02 2.84C6.26 2.84 5.06 3.96 5.06 5.96V6.12H6.34V5.96C6.34 4.6 6.98 3.96 8.02 3.96C8.9 3.96 9.54 4.6 9.54 5.496C9.54 7.56 7.22 7.24 7.22 10.28V10.44Z" fill="white"/>
</g>
<defs>
<clipPath id="clip0">
<path d="M0 0L16 2.79753e-06L16 16L-2.79753e-06 16L0 0Z" fill="white"/>
</clipPath>
</defs>
</svg>
