<svg width="24" height="24" viewBox="0 0 24 24" fill="none" xmlns="http://www.w3.org/2000/svg">
<path fill-rule="evenodd" clip-rule="evenodd" d="M19.5145 17.1589L12.5145 21.3589L13.5435 23.0739L12.5145 21.3589C12.1978 21.5489 11.8022 21.5489 11.4855 21.3589L4.48551 17.1589C4.1843 16.9782 4 16.6527 4 16.3014V7.69857C4 7.3473 4.1843 7.0218 4.4855 6.84107L11.4855 2.64107C11.8022 2.45106 12.1978 2.45106 12.5145 2.64107L19.5145 6.84107C19.8157 7.0218 20 7.3473 20 7.69857V16.3014C20 16.6527 19.8157 16.9782 19.5145 17.1589ZM10.4565 23.0739C11.4066 23.6439 12.5934 23.6439 13.5435 23.0739L20.5435 18.8739C21.4471 18.3317 22 17.3552 22 16.3014V7.69857C22 6.64478 21.4471 5.66826 20.5435 5.12609L13.5435 0.926087C12.5934 0.356058 11.4066 0.356059 10.4565 0.926087L3.45651 5.12609C2.5529 5.66826 2 6.64478 2 7.69857V16.3014C2 17.3552 2.5529 18.3317 3.45651 18.8739L10.4565 23.0739ZM16.5145 15.2913L12.5145 17.6913C12.1978 17.8813 11.8022 17.8813 11.4855 17.6913L7.4855 15.2913C7.1843 15.1106 7 14.7851 7 14.4338V9.56619C7 9.21493 7.1843 8.88942 7.4855 8.7087L11.4855 6.3087C11.8022 6.11869 12.1978 6.11869 12.5145 6.3087L16.5145 8.7087C16.8157 8.88942 17 9.21493 17 9.56619V14.4338C17 14.7851 16.8157 15.1106 16.5145 15.2913Z" fill="#17054B"/>
</svg>
