<svg width="30" height="20" viewBox="0 0 30 20" fill="none" xmlns="http://www.w3.org/2000/svg">
<rect x="0.5" y="0.5" width="29" height="19" rx="3.5" stroke="#FCA62A"/>
<path d="M8.12496 14.132C7.62629 14.132 7.17529 14.0477 6.77196 13.879C6.37596 13.703 6.03496 13.45 5.74896 13.12C5.47029 12.7827 5.25396 12.3683 5.09996 11.877C4.94596 11.3783 4.86896 10.8063 4.86896 10.161C4.86896 9.51567 4.94596 8.94733 5.09996 8.456C5.25396 7.96467 5.47029 7.55033 5.74896 7.213C6.03496 6.87567 6.37596 6.62267 6.77196 6.454C7.17529 6.278 7.62629 6.19 8.12496 6.19C8.61629 6.19 9.06362 6.278 9.46696 6.454C9.87029 6.62267 10.2113 6.87567 10.49 7.213C10.776 7.55033 10.996 7.96467 11.15 8.456C11.304 8.94733 11.381 9.51567 11.381 10.161C11.381 10.8063 11.304 11.3783 11.15 11.877C10.996 12.3683 10.776 12.7827 10.49 13.12C10.2113 13.45 9.87029 13.703 9.46696 13.879C9.06362 14.0477 8.61629 14.132 8.12496 14.132ZM8.12496 13.307C8.45496 13.307 8.75929 13.2483 9.03796 13.131C9.31662 13.0137 9.55496 12.845 9.75296 12.625C9.95829 12.405 10.116 12.141 10.226 11.833C10.336 11.525 10.391 11.1803 10.391 10.799V9.523C10.391 9.14167 10.336 8.797 10.226 8.489C10.116 8.181 9.95829 7.917 9.75296 7.697C9.55496 7.477 9.31662 7.30833 9.03796 7.191C8.75929 7.07367 8.45496 7.015 8.12496 7.015C7.79496 7.015 7.49062 7.07367 7.21196 7.191C6.93329 7.30833 6.69129 7.477 6.48596 7.697C6.28796 7.917 6.13396 8.181 6.02396 8.489C5.91396 8.797 5.85896 9.14167 5.85896 9.523V10.799C5.85896 11.1803 5.91396 11.525 6.02396 11.833C6.13396 12.141 6.28796 12.405 6.48596 12.625C6.69129 12.845 6.93329 13.0137 7.21196 13.131C7.49062 13.2483 7.79496 13.307 8.12496 13.307ZM13.911 6.322V11.074C13.911 11.8073 14.0467 12.3647 14.318 12.746C14.5894 13.12 15.066 13.307 15.748 13.307C16.43 13.307 16.9067 13.12 17.178 12.746C17.4494 12.3647 17.585 11.8073 17.585 11.074V6.322H18.509V10.854C18.509 11.4113 18.4577 11.8953 18.355 12.306C18.2597 12.7167 18.102 13.0577 17.882 13.329C17.662 13.6003 17.3724 13.802 17.013 13.934C16.661 14.066 16.2284 14.132 15.715 14.132C15.2017 14.132 14.769 14.066 14.417 13.934C14.0724 13.802 13.7937 13.6003 13.581 13.329C13.3684 13.0577 13.2144 12.7167 13.119 12.306C13.031 11.8953 12.987 11.4113 12.987 10.854V6.322H13.911ZM23.0821 7.136V14H22.1581V7.136H19.7161V6.322H25.5241V7.136H23.0821Z" fill="#FCA62A"/>
</svg>
