<svg width="24" height="24" viewBox="0 0 24 24" fill="none" xmlns="http://www.w3.org/2000/svg">
<path d="M11.9986 2.00003C11.5083 2.0027 11.0186 2.04145 10.534 2.1163C10.5035 2.12112 10.4749 2.1339 10.4509 2.15334C10.4269 2.17279 10.4085 2.19821 10.3975 2.22705C10.2387 2.63867 10.2433 3.09637 10.0979 3.51474C9.9525 3.9331 9.6857 4.3231 8.94671 4.62917C8.20836 4.935 7.74403 4.84839 7.3456 4.65582C6.94718 4.46324 6.62697 4.13695 6.22429 3.95775C6.19591 3.945 6.16466 3.94003 6.13373 3.94334C6.1028 3.94665 6.07331 3.95813 6.04827 3.97659C5.25985 4.56193 4.56244 5.26047 3.97749 6.0492C3.95888 6.07415 3.94724 6.1036 3.94376 6.13453C3.94029 6.16546 3.94511 6.19676 3.95773 6.22521C4.1371 6.62761 4.4643 6.94773 4.65672 7.34608C4.84915 7.74444 4.93486 8.20862 4.62915 8.94672C4.32357 9.68448 3.93503 9.95182 3.51747 10.0974C3.09992 10.2431 2.64246 10.2388 2.23117 10.3962C2.2023 10.407 2.17682 10.4254 2.1573 10.4492C2.13777 10.4731 2.12489 10.5017 2.11995 10.5322C2.04381 11.0171 2.00419 11.5068 2.00001 11.9977C2 11.9986 2 11.9995 2.00001 12.0005C2.00303 12.4908 2.04143 12.9805 2.11627 13.4651C2.1211 13.4956 2.13387 13.5242 2.15332 13.5482C2.17277 13.5722 2.19819 13.5906 2.22703 13.6016C2.63865 13.7603 3.09635 13.7558 3.51472 13.9012C3.93308 14.0466 4.32305 14.3134 4.62915 15.0524C4.93498 15.7907 4.84838 16.255 4.6558 16.6535C4.46322 17.0519 4.13693 17.3722 3.95773 17.7748C3.94498 17.8032 3.94001 17.8344 3.94332 17.8654C3.94663 17.8963 3.95811 17.9258 3.97657 17.9508C4.56192 18.7392 5.26046 19.4376 6.04919 20.0225C6.07422 20.041 6.10371 20.0525 6.13464 20.0558C6.16557 20.0591 6.19683 20.0541 6.2252 20.0414C6.62762 19.862 6.94819 19.5357 7.34652 19.3433C7.74487 19.1509 8.20862 19.0651 8.94671 19.3709C9.68448 19.6765 9.95184 20.065 10.0974 20.4825C10.2431 20.9001 10.2384 21.3575 10.3957 21.7688C10.4068 21.7976 10.4252 21.8229 10.4492 21.8423C10.4731 21.8616 10.5018 21.8744 10.5322 21.8791C11.0172 21.9553 11.5068 21.9958 11.9977 22C11.9986 22 11.9996 22 12.0005 22C12.4908 21.9973 12.9805 21.9576 13.4651 21.8828C13.4955 21.8781 13.5241 21.8654 13.548 21.8461C13.572 21.8269 13.5905 21.8016 13.6016 21.773C13.7604 21.3613 13.7558 20.9027 13.9012 20.4844C14.0466 20.066 14.3134 19.6769 15.0524 19.3709C15.7908 19.065 16.2555 19.1507 16.654 19.3433C17.0524 19.5359 17.3726 19.8631 17.7753 20.0423C17.8037 20.0549 17.835 20.0597 17.866 20.0562C17.8969 20.0528 17.9263 20.0411 17.9513 20.0225C18.7397 19.4372 19.4376 18.7386 20.0225 17.9499C20.0411 17.9249 20.0526 17.8954 20.056 17.8645C20.0594 17.8336 20.0545 17.8023 20.0418 17.7739C19.8625 17.3715 19.5357 17.0523 19.3433 16.6539C19.1509 16.2556 19.0651 15.7905 19.3709 15.0524C19.6764 14.3146 20.065 14.0473 20.4825 13.9017C20.9001 13.756 21.3575 13.7607 21.7688 13.6034C21.7976 13.5923 21.8229 13.5739 21.8423 13.5499C21.8616 13.526 21.8744 13.4973 21.8791 13.4669C21.9553 12.9819 21.9958 12.4923 22 12.0014C22 12.0005 22 11.9995 22 11.9986C21.997 11.5083 21.9577 11.0186 21.8828 10.534C21.8781 10.5036 21.8654 10.475 21.8461 10.4511C21.8269 10.4271 21.8016 10.4086 21.773 10.3975C21.3613 10.2387 20.9027 10.2433 20.4844 10.0979C20.066 9.95249 19.6769 9.68569 19.3708 8.9467C19.065 8.20835 19.1507 7.74404 19.3433 7.34559C19.5359 6.94717 19.8631 6.62696 20.0423 6.22428C20.0549 6.19582 20.0597 6.16452 20.0562 6.13359C20.0528 6.10266 20.0411 6.07321 20.0225 6.04826C19.4372 5.25984 18.7391 4.56243 17.9504 3.97749C17.9254 3.95887 17.896 3.94723 17.865 3.94376C17.8341 3.94029 17.8028 3.94511 17.7743 3.95773C17.3719 4.13709 17.0523 4.46429 16.6539 4.65671C16.2556 4.84915 15.7905 4.9349 15.0524 4.62914C14.3146 4.32356 14.0477 3.93502 13.9021 3.51747C13.7565 3.09992 13.7607 2.64246 13.6034 2.23117C13.5925 2.20224 13.5741 2.17672 13.5501 2.15719C13.5262 2.13766 13.4974 2.12482 13.4669 2.11995C12.9819 2.04383 12.4923 2.00419 12.0014 2.00001C12.0005 2 11.9995 2 11.9986 2.00001L11.9986 2.00003ZM11.9996 6.81203C14.8669 6.81203 17.1871 9.13228 17.1871 11.9996C17.1871 14.8668 14.8668 17.188 11.9996 17.188C9.13231 17.188 6.81202 14.8668 6.81202 11.9996C6.81202 9.13226 9.13231 6.81203 11.9996 6.81203Z" fill="#17054B"/>
</svg>
