<svg width="24" height="24" viewBox="0 0 24 24" fill="none" xmlns="http://www.w3.org/2000/svg">
<path fill-rule="evenodd" clip-rule="evenodd" d="M15.9393 11.9393C15.3536 12.5251 15.3536 13.4749 15.9393 14.0607C16.5251 14.6464 17.4749 14.6464 18.0607 14.0607L23.0607 9.06066C23.6464 8.47487 23.6464 7.52513 23.0607 6.93934L18.0607 1.93934C17.4749 1.35355 16.5251 1.35355 15.9393 1.93934C15.3536 2.52513 15.3536 3.47487 15.9393 4.06066L18.3787 6.5H11.5C10.6716 6.5 10 7.17157 10 8C10 8.82843 10.6716 9.5 11.5 9.5H18.3787L15.9393 11.9393ZM8.06066 12.0607C8.64645 11.4749 8.64645 10.5251 8.06066 9.93934C7.47487 9.35355 6.52513 9.35355 5.93934 9.93934L0.93934 14.9393C0.353553 15.5251 0.353553 16.4749 0.93934 17.0607L5.93934 22.0607C6.52513 22.6464 7.47487 22.6464 8.06066 22.0607C8.64645 21.4749 8.64645 20.5251 8.06066 19.9393L5.62132 17.5H11.5C12.3284 17.5 13 16.8284 13 16C13 15.1716 12.3284 14.5 11.5 14.5H5.62132L8.06066 12.0607Z" fill="#17054B"/>
</svg>
