<svg width="24" height="24" viewBox="0 0 24 24" fill="none" xmlns="http://www.w3.org/2000/svg">
<path fill-rule="evenodd" clip-rule="evenodd" d="M16.9961 8.25104C16.9987 8.16768 17 8.08399 17 8C17 3.58172 13.4183 0 9 0C4.58172 0 1 3.58172 1 8C1 11.7291 3.55145 14.8622 7.00387 15.749C7.0013 15.8323 7 15.916 7 16C7 20.4183 10.5817 24 15 24C19.4183 24 23 20.4183 23 16C23 12.2709 20.4486 9.13778 16.9961 8.25104ZM9 16C9 19.3137 11.6863 22 15 22C18.3137 22 21 19.3137 21 16C21 13.2704 19.1772 10.9664 16.6824 10.2391C15.714 13.5676 12.641 16 9 16Z" fill="#17054B"/>
</svg>
